SplineFontDB: 3.2
FontName: SteMiAlfa-Regular
FullName: SteMi Alfa Regular
FamilyName: SteMi
Weight: Regular
Copyright: Copyright (c) 2012-2025, Krzysztof Smirnow\n
UComments: "PL: Font, kt+APMA-rego zadaniem jest umo+AXwA-liwienie tworzenia tekst+APMA-w przy pomocy stenograficznego pisma SteMi: +AAoA-https://www.stenografia.pl/blog/2013-02-28_kurs-stemi-lekcja-01/+AAoA-EN:+AKAA Font whose task is to enable the creation of texts using the SteMi shorthand script (Polish basically, but)"
FontLog: "v. 2.0 began in 2023+AAoA-v. 1.0 postponed in 2013+AAoA-v. 1.0 began in 2012"
Version: 002.200
ItalicAngle: 0
UnderlinePosition: -298
UnderlineWidth: 148
Ascent: 1365
Descent: 683
InvalidEm: 0
sfntRevision: 0x00020000
LayerCount: 3
Layer: 0 1 "Warstwa t+AUIA-a" 1
Layer: 1 1 "Plan pierwszy" 1
Layer: 2 0 "Warstwa t+AUIA-a 2" 1
HasVMetrics: 1
XUID: [1021 102 369710040 11306370]
BaseHoriz: 0
StyleMap: 0x0040
FSType: 0
OS2Version: 4
OS2_WeightWidthSlopeOnly: 0
OS2_UseTypoMetrics: 1
CreationTime: 1379607424
ModificationTime: 1718956709
PfmFamily: 17
TTFWeight: 300
TTFWidth: 3
LineGap: 270
VLineGap: 270
Panose: 2 0 5 3 0 0 0 0 0 0
OS2TypoAscent: 2000
OS2TypoAOffset: 0
OS2TypoDescent: -1000
OS2TypoDOffset: 0
OS2TypoLinegap: 270
OS2WinAscent: 3557
OS2WinAOffset: 0
OS2WinDescent: 1092
OS2WinDOffset: 0
HheadAscent: 3557
HheadAOffset: 0
HheadDescent: -1092
HheadDOffset: 0
OS2SubXSize: 1950
OS2SubYSize: 2100
OS2SubXOff: 0
OS2SubYOff: 420
OS2SupXSize: 1950
OS2SupYSize: 2100
OS2SupXOff: 0
OS2SupYOff: 1440
OS2StrikeYSize: 149
OS2StrikeYPos: 776
OS2CapHeight: 3432
OS2XHeight: 1520
OS2FamilyClass: 2560
OS2Vendor: 'KsMi'
OS2CodePages: 00000001.00000000
OS2UnicodeRanges: 00000007.02000000.04000000.00000000
MarkAttachClasses: 1
DEI: 91125
TtTable: prep
PUSHW_1
 511
SCANCTRL
PUSHB_1
 1
SCANTYPE
SVTCA[y-axis]
MPPEM
PUSHB_1
 8
LT
IF
PUSHB_2
 1
 1
INSTCTRL
EIF
PUSHB_2
 70
 6
CALL
IF
POP
PUSHB_1
 16
EIF
MPPEM
PUSHB_1
 20
GT
IF
POP
PUSHB_1
 128
EIF
SCVTCI
PUSHB_1
 6
CALL
NOT
IF
EIF
PUSHB_1
 20
CALL

StartChar: .notdef
Encoding: 1114112 -1 0
Width: 1200
VWidth: 3000
Flags: HW
LayerCount: 3
Fore
SplineSet
150 150 m 1
 1050 150 l 1
 1050 1183 l 1
 150 1183 l 1
 150 150 l 1
0 0 m 1
 0 1333 l 1
 1200 1333 l 1
 1200 0 l 1
 0 0 l 1
EndSplineSet
Validated: 1
EndChar

StartChar: exclam
Encoding: 33 33 5
Width: 462
GlyphClass: 2
Flags: HW
LayerCount: 3
Fore
SplineSet
267 1360 m 29,0,-1
 267 1320 l 5,1,-1
 247 1340 l 5,2,-1
 287 1340 l 1029,3,-1
267 280 m 29,0,-1
 267 240 l 5,1,-1
 247 260 l 5,2,-1
 287 260 l 1029,3,-1
207 260 m 1025
415 -168 m 29,0,-1
 387 -196 l 5,1,-1
 387 -168 l 5,2,-1
 415 -196 l 1029,3,-1
75 -508 m 29,0,-1
 46 -536 l 5,1,-1
 46 -508 l 5,2,-1
 75 -536 l 1029,3,-1
18 -479 m 1025
417 -466 m 29,0,-1
 388 -437 l 5,1,-1
 417 -437 l 5,2,-1
 388 -466 l 1029,3,-1
77 -125 m 29,0,-1
 48 -97 l 5,1,-1
 77 -97 l 5,2,-1
 48 -125 l 1029,3,-1
105 -69 m 1025
327 1340 m 1
 207 1340 l 1
 207 1364 207 1364 225 1382 c 0
 243 1400 243 1400 267 1400 c 0
 291 1400 291 1400 309 1382 c 0
 327 1364 327 1364 327 1353 c 2
 327 1340 l 1
327 1335 m 1
 327 260 l 2
 328 236 328 236 310 218 c 0
 292 200 292 200 267 200 c 0
 242 200 242 200 224 218 c 0
 206 236 206 236 207 260 c 2
 207 1335 l 1
 208 1314 208 1314 225 1297 c 0
 242 1280 242 1280 267 1280 c 0
 292 1280 292 1280 309 1297 c 0
 326 1314 326 1314 327 1335 c 1
18 -479 m 1
 103 -564 l 1
 86 -582 86 -582 61 -582 c 0
 36 -582 36 -582 18 -564 c 0
 0 -546 0 -546 0 -522 c 0
 0 -498 0 -498 18 -479 c 1
18 -479 m 1
 182 -316 l 1
 22.4248046875 -156.424804688 l 1
 37.92578125 -171 37.92578125 -171 62 -171 c 0
 88 -171 88 -171 105 -154 c 0
 122 -137 122 -137 122 -112 c 0
 122 -87 122 -87 105 -69 c 1
 267 -231 l 1
 358 -139 l 1
 340 -158 340 -158 340 -182 c 0
 340 -206 340 -206 358 -224 c 0
 376 -242 376 -242 401 -242 c 0
 424.44140625 -242 424.44140625 -242 440.849609375 -226.174804688 c 1
 352 -316 l 1
 267 -231 l 1
 182 -316 l 1
 267 -400 l 1
 105.424804688 -561.575195312 l 1
 120 -546.07421875 120 -546.07421875 120 -522 c 0
 120 -496 120 -496 103 -479 c 0
 86 -462 86 -462 61 -462 c 0
 36 -462 36 -462 18 -479 c 1
105.424804688 -561.575195312 m 1
 103 -564 l 1
 104.258789062 -562.814453125 104.258789062 -562.814453125 105.424804688 -561.575195312 c 1
267 -400 m 1
 352 -316 l 1
 445 -409 l 2
 462 -427 462 -427 462 -452 c 0
 462 -477 462 -477 445 -494 c 0
 428 -511 428 -511 402 -511 c 0
 376 -511 376 -511 360 -494 c 2
 267 -400 l 1
440.849609375 -226.174804688 m 1
 441.940429688 -225.122070312 441.940429688 -225.122070312 443 -224 c 1
 440.849609375 -226.174804688 l 1
358 -139 m 1
 376 -122 376 -122 401 -122 c 0
 426 -122 426 -122 443 -139 c 0
 460 -156 460 -156 460 -182 c 0
 460 -208 460 -208 444 -224 c 1
 358 -139 l 1
22.4248046875 -156.424804688 m 1
 20 -154 l 1
 21.185546875 -155.258789062 21.185546875 -155.258789062 22.4248046875 -156.424804688 c 1
20 -154 m 1
 3 -137 3 -137 3 -112 c 0
 2 -87 2 -87 20 -69 c 0
 38 -51 38 -51 62 -51 c 0
 86 -51 86 -51 105 -69 c 1
 20 -154 l 1
EndSplineSet
Validated: 526347
EndChar

StartChar: quotedbl
Encoding: 34 34 6
Width: 650
GlyphClass: 2
Flags: HW
LayerCount: 3
Fore
SplineSet
160 1849 m 29,0,-1
 131 1821 l 5,1,-1
 131 1849 l 5,2,-1
 160 1821 l 1029,3,-1
75 1764 m 29,0,-1
 46 1736 l 5,1,-1
 46 1764 l 5,2,-1
 75 1736 l 1029,3,-1
18 1793 m 1025
142 1810 m 25,0,-1
 142 1850 l 25,1,-1
 162 1830 l 25,2,-1
 122 1830 l 1049,3,-1
140 1311 m 25,0,-1
 140 1351 l 25,1,-1
 160 1331 l 25,2,-1
 120 1331 l 1049,3,-1
540 1849 m 29,0,-1
 511 1821 l 5,1,-1
 511 1849 l 5,2,-1
 540 1821 l 1029,3,-1
455 1764 m 29,0,-1
 426 1736 l 5,1,-1
 426 1764 l 5,2,-1
 455 1736 l 1029,3,-1
398 1793 m 1025
522 1810 m 25,0,-1
 522 1850 l 25,1,-1
 542 1830 l 25,2,-1
 502 1830 l 1049,3,-1
520 1311 m 25,0,-1
 520 1351 l 25,1,-1
 540 1331 l 25,2,-1
 500 1331 l 1049,3,-1
144 1271 m 0
 82 1273 82 1273 80 1330 c 0
 80 1356 80 1356 91 1371 c 1
 88 1366 88 1366 86 1361 c 1
 134 1334 134 1334 192 1300 c 1
 175 1271 175 1271 144 1271 c 0
524 1271 m 0
 462 1273 462 1273 460 1330 c 0
 460 1356 460 1356 471 1371 c 1
 468 1366 468 1366 466 1361 c 1
 514 1334 514 1334 572 1300 c 1
 555 1271 555 1271 524 1271 c 0
103 1708 m 1
 116 1721 116 1721 119 1737 c 1
 108 1766 108 1766 93 1794 c 1
 102 1781 102 1781 115 1775 c 1
 111 1785 111 1785 103 1793 c 1
 121 1776 121 1776 146 1776 c 0
 171 1776 171 1776 188 1793 c 1
 173 1778 l 1
 206 1796 206 1796 206 1831 c 0
 206 1838 206 1838 204 1847 c 1
 270 1724 270 1724 270 1580 c 0
 270 1436 270 1436 193 1302 c 1
 200 1315 200 1315 200 1331 c 0
 200 1391 200 1391 140 1391 c 0
 106 1391 106 1391 91 1371 c 1
 149 1477 149 1477 149 1566 c 0
 149 1655 149 1655 123 1727 c 1
 103 1708 l 1
103 1708 m 1
 86 1690 86 1690 61 1690 c 0
 36 1690 36 1690 18 1708 c 0
 0 1726 0 1726 0 1750 c 0
 0 1774 0 1774 18 1793 c 1
 103 1708 l 1
99.2001953125 1873.20019531 m 1
 90 1864 l 1
 97 1877 97 1877 111 1884 c 0
 125 1896 125 1896 147 1896 c 0
 169 1896 169 1896 185 1880 c 0
 201 1864 201 1864 204 1847 c 1
 199 1855 l 1
 205 1842 205 1842 205 1826 c 0
 205 1810 205 1810 188 1793 c 1
 147 1833 l 1
 121 1818 121 1818 94 1803 c 1
 103 1793 l 1
 92 1802 l 1
 93 1802 93 1802 88 1811 c 0
 83 1820 83 1820 83 1839 c 0
 83 1856.09960938 83 1856.09960938 99.2001953125 1873.20019531 c 1
90 1864 m 1
 82 1850 82 1850 82 1833 c 0
 82 1816 82 1816 87 1804 c 1
 72 1812 72 1812 55 1812 c 0
 38 1812 38 1812 19 1794 c 1
 90 1864 l 1
87 1804 m 1
 89 1803 89 1803 92 1802 c 1
 91 1801 91 1801 89 1800 c 1
 88 1802 88 1802 87 1804 c 1
483 1708 m 1
 496 1721 496 1721 499 1737 c 1
 488 1766 488 1766 473 1794 c 1
 482 1781 482 1781 495 1775 c 1
 491 1785 491 1785 483 1793 c 1
 501 1776 501 1776 526 1776 c 0
 551 1776 551 1776 568 1793 c 1
 553 1778 l 1
 586 1796 586 1796 586 1831 c 0
 586 1838 586 1838 584 1847 c 1
 650 1724 650 1724 650 1580 c 0
 650 1436 650 1436 573 1302 c 1
 580 1315 580 1315 580 1331 c 0
 580 1391 580 1391 520 1391 c 0
 486 1391 486 1391 471 1371 c 1
 529 1477 529 1477 529 1566 c 0
 529 1655 529 1655 503 1727 c 1
 483 1708 l 1
483 1708 m 1
 466 1690 466 1690 441 1690 c 0
 416 1690 416 1690 398 1708 c 0
 380 1726 380 1726 380 1750 c 0
 380 1774 380 1774 398 1793 c 1
 483 1708 l 1
479.200195312 1873.20019531 m 1
 470 1864 l 1
 477 1877 477 1877 491 1884 c 0
 505 1896 505 1896 527 1896 c 0
 549 1896 549 1896 565 1880 c 0
 581 1864 581 1864 584 1847 c 1
 579 1855 l 1
 585 1842 585 1842 585 1826 c 0
 585 1810 585 1810 568 1793 c 1
 527 1833 l 1
 501 1818 501 1818 474 1803 c 1
 483 1793 l 1
 472 1802 l 1
 473 1802 473 1802 468 1811 c 0
 463 1820 463 1820 463 1839 c 0
 463 1856.09960938 463 1856.09960938 479.200195312 1873.20019531 c 1
470 1864 m 1
 462 1850 462 1850 462 1833 c 0
 462 1816 462 1816 467 1804 c 1
 452 1812 452 1812 435 1812 c 0
 418 1812 418 1812 399 1794 c 1
 470 1864 l 1
467 1804 m 1
 469 1803 469 1803 472 1802 c 1
 471 1801 471 1801 469 1800 c 1
 468 1802 468 1802 467 1804 c 1
EndSplineSet
Validated: 527363
EndChar

StartChar: numbersign
Encoding: 35 35 7
Width: 603
GlyphClass: 2
Flags: HW
LayerCount: 3
Fore
SplineSet
41.052734375 270 m 29,0,-1
 81.052734375 270 l 5,1,-1
 61.052734375 250 l 5,2,-1
 61.052734375 290 l 1029,3,-1
522.052734375 270 m 29,0,-1
 562.052734375 270 l 5,1,-1
 542.052734375 250 l 5,2,-1
 542.052734375 290 l 1029,3,-1
542.052734375 210 m 1025
40.052734375 536 m 29,0,-1
 80.052734375 536 l 5,1,-1
 60.052734375 516 l 5,2,-1
 60.052734375 556 l 1029,3,-1
521.052734375 536 m 29,0,-1
 561.052734375 536 l 5,1,-1
 541.052734375 516 l 5,2,-1
 541.052734375 556 l 1029,3,-1
541.052734375 476 m 1025
133.052734375 615 m 29,0,-1
 133.052734375 575 l 5,1,-1
 113.052734375 595 l 5,2,-1
 153.052734375 595 l 1029,3,-1
133.052734375 134 m 29,0,-1
 133.052734375 94 l 5,1,-1
 113.052734375 114 l 5,2,-1
 153.052734375 114 l 1029,3,-1
73.052734375 114 m 1025
375.052734375 618 m 29,0,-1
 375.052734375 578 l 5,1,-1
 355.052734375 598 l 5,2,-1
 395.052734375 598 l 1029,3,-1
375.052734375 137 m 29,0,-1
 375.052734375 97 l 5,1,-1
 355.052734375 117 l 5,2,-1
 395.052734375 117 l 1029,3,-1
315.052734375 117 m 1025
541.052734375 595 m 1
 565.052734375 596 565.052734375 596 583.052734375 578 c 0
 601.052734375 560 601.052734375 560 601.052734375 536 c 0
 601.052734375 512 601.052734375 512 583.052734375 494 c 0
 565.052734375 476 565.052734375 476 541.052734375 476 c 1
 541.052734375 595 l 1
417.052734375 640 m 0
 435.052734375 622 435.052734375 622 435.052734375 610 c 2
 435.052734375 596 l 1
 541.052734375 596 l 1
 517.052734375 596 517.052734375 596 499.052734375 578 c 0
 481.052734375 560 481.052734375 560 481.052734375 536 c 0
 481.052734375 512 481.052734375 512 499.052734375 494 c 0
 517.052734375 476 517.052734375 476 541.052734375 476 c 1
 435.052734375 476 l 1
 435.052734375 596 l 1
 434.052734375 573 434.052734375 573 417.052734375 555 c 0
 399.052734375 538 399.052734375 538 375.052734375 538 c 0
 351.052734375 538 351.052734375 538 333.052734375 556 c 0
 316.052734375 574 316.052734375 574 315.052734375 596 c 1
 315.052734375 476 l 1
 193.052734375 476 l 1
 193.052734375 595 l 1
 192.052734375 595 l 1
 192.052734375 571 192.052734375 571 175.052734375 553 c 0
 158.052734375 535 158.052734375 535 142.052734375 535 c 0
 126.052734375 535 126.052734375 535 120.052734375 536 c 1
 119.052734375 512 119.052734375 512 105.052734375 496 c 0
 91.052734375 480 91.052734375 480 73.052734375 477 c 1
 73.052734375 594 l 1
 73.052734375 570 73.052734375 570 88.052734375 555 c 0
 103.052734375 540 103.052734375 540 120.052734375 536 c 1
 120.052734375 560 120.052734375 560 102.052734375 578 c 0
 84.052734375 596 84.052734375 596 60.052734375 596 c 1
 73.052734375 596 l 1
 73.052734375 622 73.052734375 622 91.052734375 638 c 0
 109.052734375 654 109.052734375 654 133.052734375 655 c 0
 157.052734375 656 157.052734375 656 175.052734375 638 c 0
 193.052734375 620 193.052734375 620 193.052734375 596 c 1
 315.052734375 596 l 1
 315.052734375 598 l 2
 315.052734375 622 315.052734375 622 333.052734375 640 c 0
 351.052734375 658 351.052734375 658 375.052734375 658 c 0
 399.052734375 658 399.052734375 658 417.052734375 640 c 0
542.052734375 210 m 1
 542.052734375 330 l 1
 567.052734375 330 567.052734375 330 585.052734375 312 c 0
 603.052734375 294 603.052734375 294 603.052734375 270 c 0
 603.052734375 246 603.052734375 246 585.052734375 228 c 0
 567.052734375 210 567.052734375 210 542.052734375 210 c 1
542.052734375 210 m 1
 435.052734375 210 l 1
 435.052734375 330 l 1
 541.052734375 330 l 1
 517.052734375 330 517.052734375 330 499.052734375 312 c 0
 481.052734375 294 481.052734375 294 481.052734375 270 c 0
 481.052734375 246 481.052734375 246 499.052734375 228 c 0
 517.052734375 210 517.052734375 210 542.052734375 210 c 1
61.052734375 330 m 1
 67.052734375 330 67.052734375 330 73.052734375 329 c 1
 73.052734375 330 l 1
 61.052734375 330 l 1
61.052734375 330 m 1
 61.052734375 210 l 1
 37.052734375 210 37.052734375 210 19.052734375 228 c 0
 1.052734375 246 1.052734375 246 1.052734375 270 c 0
 1.052734375 294 1.052734375 294 19.052734375 312 c 0
 37.052734375 330 37.052734375 330 48.052734375 330 c 2
 61.052734375 330 l 1
73.052734375 329 m 1
 89.052734375 326 89.052734375 326 105.052734375 311 c 0
 121.052734375 296 121.052734375 296 121.052734375 270 c 0
 121.052734375 244 121.052734375 244 106.052734375 230 c 0
 91.052734375 216 91.052734375 216 73.052734375 212 c 1
 73.052734375 329 l 1
73.052734375 212 m 1
 73.052734375 210 l 1
 61.052734375 210 l 1
 67.052734375 210 67.052734375 210 73.052734375 212 c 1
60.052734375 476 m 1
 35.052734375 476 35.052734375 476 17.052734375 494 c 0
 -0.947265625 512 -0.947265625 512 0.052734375 536 c 0
 -0.947265625 560 -0.947265625 560 17.052734375 578 c 0
 35.052734375 596 35.052734375 596 47.052734375 596 c 2
 60.052734375 595 l 1
 60.052734375 476 l 1
60.052734375 476 m 1
 73.052734375 476 l 1
 73.052734375 477 l 1
 67.052734375 476 67.052734375 476 60.052734375 476 c 1
73.052734375 210 m 1
 193.052734375 210 l 1
 193.052734375 114 l 1
 192.052734375 114 l 1
 193.052734375 90 193.052734375 90 175.052734375 72 c 0
 157.052734375 54 157.052734375 54 133.052734375 54 c 0
 109.052734375 54 109.052734375 54 90.052734375 72 c 0
 73.052734375 90 73.052734375 90 73.052734375 114 c 2
 73.052734375 210 l 1
73.052734375 476 m 1
 193.052734375 476 l 1
 193.052734375 330 l 1
 73.052734375 330 l 1
 73.052734375 476 l 1
193.052734375 210 m 1
 193.052734375 330 l 1
 315.052734375 330 l 1
 315.052734375 210 l 1
 193.052734375 210 l 1
435.052734375 210 m 1
 435.052734375 117 l 2
 435.052734375 92 435.052734375 92 417.052734375 74 c 0
 399.052734375 56 399.052734375 56 375.052734375 56 c 0
 351.052734375 56 351.052734375 56 333.052734375 74 c 0
 315.052734375 92 315.052734375 92 315.052734375 117 c 2
 315.052734375 210 l 1
 435.052734375 210 l 1
315.052734375 476 m 1
 435.052734375 476 l 1
 435.052734375 330 l 1
 315.052734375 330 l 1
 315.052734375 476 l 1
EndSplineSet
Validated: 527363
EndChar

StartChar: dollar
Encoding: 36 36 8
Width: 853
GlyphClass: 2
Flags: HW
LayerCount: 3
Fore
SplineSet
430 1714 m 29,0,-1
 430 1674 l 5,1,-1
 410 1694 l 5,2,-1
 450 1694 l 1029,3,-1
430 34 m 29,0,-1
 430 -6 l 5,1,-1
 410 14 l 5,2,-1
 450 14 l 1029,3,-1
370 14 m 1025
738 445 m 29,0,-1
 698 445 l 5,1,-1
 718 465 l 5,2,-1
 718 425 l 1029,3,-1
80 445 m 29,0,-1
 40 445 l 5,1,-1
 60 465 l 5,2,-1
 60 425 l 1029,3,-1
422 154 m 29,0,-1
 382 154 l 5,1,-1
 402 174 l 5,2,-1
 402 134 l 1029,3,-1
427 791 m 29,0,-1
 427 831 l 5,1,-1
 447 811 l 5,2,-1
 407 811 l 1029,3,-1
427 1449 m 29,0,-1
 427 1489 l 5,1,-1
 447 1469 l 5,2,-1
 407 1469 l 1029,3,-1
136 1107 m 29,0,-1
 136 1147 l 5,1,-1
 156 1127 l 5,2,-1
 116 1127 l 1029,3,-1
429 829 m 29,0,-1
 429 789 l 5,1,-1
 409 809 l 5,2,-1
 449 809 l 1029,3,-1
429 171 m 29,0,-1
 429 131 l 5,1,-1
 409 151 l 5,2,-1
 449 151 l 1029,3,-1
720 513 m 29,0,-1
 720 473 l 5,1,-1
 700 493 l 5,2,-1
 740 493 l 1029,3,-1
115 1173 m 29,0,-1
 155 1173 l 5,1,-1
 135 1153 l 5,2,-1
 135 1193 l 1029,3,-1
773 1173 m 29,0,-1
 813 1173 l 5,1,-1
 793 1153 l 5,2,-1
 793 1193 l 1029,3,-1
431 1464 m 29,0,-1
 471 1464 l 5,1,-1
 451 1444 l 5,2,-1
 451 1484 l 1029,3,-1
0 454 m 0
 0 470 0 470 18 488 c 0
 36 506 36 506 60 505 c 0
 84 505 84 505 104 485 c 0
 124 465 124 465 119 435 c 1
 119 440 119 440 119 445 c 1
 1 445 l 1
 1 432 l 1
 0 438 0 438 0 454 c 0
370 204 m 1
 342 185 342 185 342 153 c 0
 342 121 342 121 370 103 c 1
 370 140 l 1
 376 106 376 106 409 94 c 1
 420 95 420 95 429 100 c 1
 429 207 l 1
 411 216 411 216 392 198 c 0
 373 180 373 180 370 162 c 1
 370 204 l 1
413 213 m 1
 408 214 408 214 402 214 c 0
 396 214 396 214 391 213 c 1
 402 213 402 213 413 213 c 1
411 94 m 1
 426 89 426 89 441 92 c 1
 435 92 435 92 429 92 c 1
 429 95 l 1
 420 94 420 94 411 94 c 1
658 437 m 1
 656 450 656 450 660 462 c 1
 660 453 660 453 659 445 c 1
 685 445 l 1
 670 456 670 456 664 471 c 1
 662 466 662 466 660 462 c 1
 660 472 660 472 661 482 c 1
 662 476 662 476 664 471 c 1
 682 505 682 505 720 505 c 0
 758 505 758 505 774 467 c 1
 779 477 779 477 780 492 c 1
 780 469 780 469 778 446 c 1
 778 457 778 457 774 467 c 1
 768 454 768 454 756 445 c 1
 778 445 l 1
 777 438 777 438 776 430 c 1
 778 437 778 437 778 445 c 1
 779 445 l 1
 779 293 779 293 661 191 c 1
 588 115 588 115 490 97 c 1
 490 14 l 2
 490 -10 490 -10 472 -28 c 0
 454 -46 454 -46 430 -46 c 0
 406 -46 406 -46 388 -28 c 0
 370 -10 370 -10 370 14 c 2
 370 95 l 1
 233 104 233 104 119 196 c 0
 5 288 5 288 1 432 c 1
 4 415 4 415 20 400 c 0
 36 385 36 385 60 385 c 0
 84 385 84 385 101 401 c 0
 117 417 117 417 119 435 c 1
 124 325 124 325 255 241 c 0
 293 217 293 217 370 214 c 1
 370 754 l 1
 393 750 393 750 417 750 c 1
 402 753 402 753 390 764 c 1
 406 751 406 751 427 751 c 1
 427 869 l 1
 428 869 428 869 429 869 c 2
 439 870 l 1
 428 872 428 872 410 872 c 0
 392 872 392 872 370 877 c 1
 370 829 l 1
 381 864 381 864 416 869 c 1
 405 868 405 868 389 853 c 0
 373 838 373 838 370 820 c 2
 370 798 l 2
 373 781 373 781 385 768 c 1
 374 779 374 779 370 792 c 1
 370 754 l 1
 256 772 256 772 168 873 c 0
 80 974 80 974 76 1117 c 1
 76 1100 76 1100 94 1083 c 0
 112 1066 112 1066 136 1066 c 0
 160 1066 160 1066 176 1082 c 0
 192 1098 192 1098 195 1116 c 1
 197 1023 197 1023 223 987 c 0
 288 899 288 899 370 877 c 1
 370 1399 l 1
 363 1398 363 1398 357 1396 c 1
 364 1399 364 1399 370 1401 c 1
 370 1450 l 1
 381 1415 381 1415 418 1410 c 0
 425 1410 425 1410 426 1409 c 0
 444 1400 444 1400 466 1422 c 0
 488 1444 488 1444 488 1476 c 0
 488 1508 488 1508 451 1524 c 1
 438 1524 438 1524 427 1519 c 1
 427 1523 l 1
 412 1523 412 1523 397 1521 c 1
 408.175260559 1527.51890199 408.175260559 1527.51890199 424.554123137 1527.9669347 c 1
 422.818393507 1528.00000025 422.818393507 1528.00000025 421 1528 c 0
 401 1528 401 1528 370 1523 c 1
 370 1694 l 1
 370 1670 370 1670 388 1652 c 0
 406 1634 406 1634 430 1634 c 0
 454 1634 454 1634 472 1652 c 0
 489 1670 489 1670 490 1694 c 1
 490 1523 l 1
 623 1512 623 1512 738 1419 c 0
 853 1326 853 1326 853 1173 c 0
 852 1148 852 1148 834 1130 c 0
 816 1112 816 1112 792 1112 c 0
 768 1112 768 1112 750 1130 c 0
 732 1148 732 1148 733 1163 c 0
 733 1177 733 1177 734 1183 c 0
 729 1293 729 1293 598 1376 c 0
 562 1399 562 1399 490 1404 c 1
 490 865 l 1
 602 846 602 846 690 745 c 0
 778 644 778 644 780 501 c 1
 780 520 780 520 762 537 c 0
 744 554 744 554 720 554 c 0
 696 554 696 554 680 538 c 0
 664 522 664 522 661 504 c 1
 660 597 660 597 633 633 c 0
 569 718 569 718 490 741 c 1
 490 220 l 1
 491 220 491 220 492 221 c 0
 570 248 570 248 632 346 c 0
 659 388 659 388 659 441 c 0
 659 443 659 443 659 445 c 1
 658 441 658 441 658 437 c 1
490 1419 m 1
 511 1438 511 1438 511 1464 c 0
 511 1490 511 1490 490 1509 c 1
 490 1419 l 1
440 1405 m 1
 445 1404 445 1404 451 1404 c 0
 457 1404 457 1404 462 1405 c 1
 451 1405 451 1405 440 1405 c 1
370 1516 m 1
 383 1519 383 1519 397 1521 c 1
 377 1509 377 1509 370 1487 c 1
 370 1516 l 1
370 1516 m 1
 276 1498 276 1498 201 1435 c 1
 273 1507 273 1507 370 1523 c 1
 370 1516 l 1
370 1487 m 1
 370 1450 l 1
 367 1458 367 1458 367 1468 c 0
 367 1478 367 1478 370 1487 c 1
201 1435 m 1
 104 1338 104 1338 82 1201 c 1
 100 1233 100 1233 130 1233 c 0
 160 1233 160 1233 177 1216 c 0
 194 1199 194 1199 194 1173 c 1
 174 1173 l 1
 186 1163 186 1163 191 1152 c 1
 196 1166 196 1166 194 1182 c 0
 199 1294 199 1294 311 1377 c 0
 328 1389 328 1389 357 1396 c 1
 284 1367 284 1367 224 1274 c 0
 196 1232 196 1232 195 1138 c 1
 194 1145 194 1145 191 1152 c 1
 176 1113 176 1113 136 1113 c 0
 96 1113 96 1113 80 1148 c 1
 77 1140 77 1140 76 1128 c 1
 76 1143 76 1143 77 1157 c 1
 78 1152 78 1152 80 1148 c 1
 86 1162 86 1162 98 1173 c 1
 78 1173 l 1
 77 1165 77 1165 77 1157 c 1
 75 1165 75 1165 75 1169 c 0
 75 1173 75 1173 74 1173 c 1
 74 1330 74 1330 201 1435 c 1
195 1138 m 1
 196 1133 196 1133 196 1127 c 0
 196 1121 196 1121 195 1116 c 1
 195 1138 l 1
370 162 m 1
 370 140 l 1
 369 145 369 145 369 151 c 0
 369 157 369 157 370 162 c 1
661 504 m 1
 661 482 l 1
 660 487 660 487 660 493 c 0
 660 499 660 499 661 504 c 1
490 1694 m 1
 370 1694 l 1
 370 1718 370 1718 388 1736 c 0
 406 1754 406 1754 430 1754 c 0
 454 1754 454 1754 472 1736 c 0
 490 1718 490 1718 490 1707 c 2
 490 1694 l 1
427 1527.90254226 m 1
 427 1523 l 1
 439 1524 439 1524 451 1524 c 1
 442.560911085 1527.37563557 442.560911085 1527.37563557 427 1527.90254226 c 1
427 1519 m 1
 427 1410 l 1
 426 1410 426 1410 425 1410 c 0
 391 1427 391 1427 391 1465 c 0
 391 1503 391 1503 427 1519 c 1
756 445 m 1
 685 445 l 1
 700 433 700 433 720 433 c 0
 740 433 740 433 756 445 c 1
EndSplineSet
Validated: 527371
EndChar

StartChar: percent
Encoding: 37 37 9
Width: 1768
GlyphClass: 2
Flags: HW
LayerCount: 3
Fore
SplineSet
868.013671875 1185 m 29,0,-1
 837.013671875 1160 l 5,1,-1
 840.013671875 1188 l 5,2,-1
 865.013671875 1157 l 1029,3,-1
347.013671875 748 m 29,0,-1
 316.013671875 722 l 5,1,-1
 319.013671875 751 l 5,2,-1
 345.013671875 720 l 1029,3,-1
293.013671875 781 m 1025
708.013671875 343 m 29,0,-1
 678.013671875 317 l 5,1,-1
 680.013671875 345 l 5,2,-1
 706.013671875 314 l 1029,3,-1
187.013671875 -94 m 29,0,-1
 157.013671875 -120 l 5,1,-1
 159.013671875 -92 l 5,2,-1
 185.013671875 -123 l 1029,3,-1
134.013671875 -61 m 1025
1021.01367188 1365 m 29,0,-1
 1001.01367188 1331 l 5,1,-1
 994.013671875 1358 l 5,2,-1
 1028.01367188 1338 l 1029,3,-1
181.013671875 -90 m 29,0,-1
 161.013671875 -124 l 5,1,-1
 154.013671875 -97 l 5,2,-1
 188.013671875 -117 l 1029,3,-1
119.013671875 -77 m 1025
733.013671875 298 m 29,0,-1
 733.013671875 258 l 5,1,-1
 713.013671875 278 l 5,2,-1
 753.013671875 278 l 1029,3,-1
913.013671875 478 m 29,0,-1
 913.013671875 438 l 5,1,-1
 893.013671875 458 l 5,2,-1
 933.013671875 458 l 1029,3,-1
1095.01367188 298 m 29,0,-1
 1095.01367188 258 l 5,1,-1
 1075.01367188 278 l 5,2,-1
 1115.01367188 278 l 1029,3,-1
913.013671875 118 m 29,0,-1
 913.013671875 78 l 5,1,-1
 893.013671875 98 l 5,2,-1
 933.013671875 98 l 1029,3,-1
60.013671875 894 m 29,0,-1
 60.013671875 854 l 5,1,-1
 40.013671875 874 l 5,2,-1
 80.013671875 874 l 1029,3,-1
240.013671875 1074 m 29,0,-1
 240.013671875 1034 l 5,1,-1
 220.013671875 1054 l 5,2,-1
 260.013671875 1054 l 1029,3,-1
422.013671875 894 m 29,0,-1
 422.013671875 854 l 5,1,-1
 402.013671875 874 l 5,2,-1
 442.013671875 874 l 1029,3,-1
240.013671875 714 m 29,0,-1
 240.013671875 674 l 5,1,-1
 220.013671875 694 l 5,2,-1
 260.013671875 694 l 1029,3,-1
1155.01367188 284 m 1
 1153.01367188 306 1153.01367188 306 1136.01367188 322 c 0
 1119.01367188 338 1119.01367188 338 1095.01367188 338 c 0
 1071.01367188 338 1071.01367188 338 1053.01367188 320 c 0
 1035.01367188 302 1035.01367188 302 1035.01367188 278 c 1
 1035.01367188 332 1035.01367188 332 1002.01367188 364 c 0
 969.013671875 396 969.013671875 396 918.013671875 398 c 1
 941.013671875 400 941.013671875 400 957.013671875 417 c 0
 973.013671875 434 973.013671875 434 973.013671875 458 c 0
 973.013671875 482 973.013671875 482 956.013671875 500 c 0
 939.013671875 518 939.013671875 518 918.013671875 518 c 1
 1011.01367188 516 1011.01367188 516 1082.01367188 446 c 0
 1153.01367188 376 1153.01367188 376 1155.01367188 284 c 1
918.013671875 38 m 1
 941.013671875 40 941.013671875 40 957.013671875 57 c 0
 973.013671875 74 973.013671875 74 973.013671875 98 c 0
 973.013671875 122 973.013671875 122 955.013671875 140 c 0
 937.013671875 158 937.013671875 158 916.013671875 158 c 1
 1035.01367188 160 1035.01367188 160 1035.01367188 278 c 1
 1035.01367188 254 1035.01367188 254 1053.01367188 236 c 0
 1071.01367188 218 1071.01367188 218 1095.01367188 218 c 0
 1119.01367188 218 1119.01367188 218 1136.01367188 235 c 0
 1152.01367188 252 1152.01367188 252 1155.01367188 273 c 1
 1153.01367188 179 1153.01367188 179 1082.01367188 109 c 0
 1011.01367188 39 1011.01367188 39 918.013671875 38 c 1
112.013671875 -108 m 1
 111.013671875 -92 111.013671875 -92 119.013671875 -77 c 1
 114.013671875 -93 114.013671875 -93 112.013671875 -108 c 1
870.013671875 500 m 0
 853.013671875 484 853.013671875 484 853.013671875 458 c 0
 853.013671875 432 853.013671875 432 869.013671875 416 c 0
 885.013671875 399 885.013671875 399 908.013671875 398 c 1
 854.013671875 396 854.013671875 396 823.013671875 363 c 0
 793.013671875 329 793.013671875 329 793.013671875 279 c 1
 793.013671875 303 793.013671875 303 779.013671875 317 c 0
 765.013671875 331 765.013671875 331 753.013671875 335 c 1
 755.013671875 303 755.013671875 303 732.013671875 284 c 1
 697.013671875 325 l 1
 713.013671875 338 713.013671875 338 729.013671875 338 c 0
 745.013671875 338 745.013671875 338 753.013671875 335 c 1
 753.013671875 354 753.013671875 354 739.013671875 370 c 0
 725.013671875 386 725.013671875 386 701.013671875 389 c 1
 718.013671875 419 718.013671875 419 746.013671875 446 c 0
 816.013671875 515 816.013671875 515 907.013671875 518 c 1
 887.013671875 516 887.013671875 516 870.013671875 500 c 0
684.013671875 244 m 1
 703.013671875 218 703.013671875 218 730.013671875 218 c 0
 757.013671875 218 757.013671875 218 775.013671875 236 c 0
 792.013671875 254 792.013671875 254 793.013671875 278 c 1
 793.013671875 224 793.013671875 224 824.013671875 191 c 0
 855.013671875 158 855.013671875 158 910.013671875 158 c 1
 889.013671875 157 889.013671875 157 871.013671875 140 c 0
 853.013671875 123 853.013671875 123 853.013671875 98 c 0
 853.013671875 73 853.013671875 73 869.013671875 57 c 0
 885.013671875 41 885.013671875 41 907.013671875 38 c 1
 816.013671875 41 816.013671875 41 752.013671875 103 c 0
 688.013671875 165 688.013671875 165 676.013671875 238 c 1
 211.013671875 -153 l 1
 224.013671875 -142 224.013671875 -142 229.013671875 -126 c 2
 392.013671875 155 l 1
 141.013671875 -55 l 2
 127.013671875 -63 127.013671875 -63 119.013671875 -76 c 1
 741.013671875 1000 l 1
 449.013671875 756 l 1
 433.013671875 730 433.013671875 730 409.013671875 706 c 0
 338.013671875 636 338.013671875 636 245.013671875 634 c 1
 267.013671875 636 267.013671875 636 282.013671875 651 c 0
 297.013671875 666 297.013671875 666 299.013671875 685 c 1
 316.013671875 674 316.013671875 674 334.013671875 674 c 0
 352.013671875 674 352.013671875 674 370.013671875 689 c 1
 338.013671875 728 338.013671875 728 305.013671875 767 c 1
 325.013671875 777 325.013671875 777 332.013671875 785 c 0
 338.013671875 794 338.013671875 794 337.013671875 794 c 0
 312.013671875 797 312.013671875 797 294.013671875 782 c 1
 358.013671875 835 l 1
 362.013671875 852 362.013671875 852 362.013671875 890 c 0
 362.013671875 928 362.013671875 928 329.013671875 960 c 0
 296.013671875 992 296.013671875 992 245.013671875 994 c 1
 267.013671875 996 267.013671875 996 283.013671875 1013 c 0
 299.013671875 1030 299.013671875 1030 300.013671875 1054 c 0
 300.013671875 1078 300.013671875 1078 283.013671875 1096 c 0
 266.013671875 1114 266.013671875 1114 245.013671875 1114 c 1
 338.013671875 1113 338.013671875 1113 398.013671875 1053 c 0
 458.013671875 993 458.013671875 993 474.013671875 933 c 1
 814.013671875 1218 l 2
 839.013671875 1239 839.013671875 1239 873.013671875 1229 c 1
 845.013671875 1181 l 1
 891.013671875 1126 l 1
 910.013671875 1144 910.013671875 1144 912.013671875 1168 c 0
 914.013671875 1192 914.013671875 1192 901.013671875 1208 c 0
 888.013671875 1224 888.013671875 1224 873.013671875 1229 c 1
 959.013671875 1378 l 1
 947.013671875 1356 947.013671875 1356 953.013671875 1332 c 0
 959.013671875 1308 959.013671875 1308 981.013671875 1296 c 0
 1003.01367188 1284 1003.01367188 1284 1027.01367188 1290 c 0
 1049.44726562 1295.60839844 1049.44726562 1295.60839844 1061.39550781 1315.1953125 c 1
 392.013671875 155 l 1
 654.013671875 376 l 1
 635.013671875 360 635.013671875 360 633.013671875 335 c 0
 631.013671875 310 631.013671875 310 647.013671875 291 c 0
 663.013671875 272 663.013671875 272 688.013671875 270 c 0
 711.592773438 268.11328125 711.592773438 268.11328125 728.9453125 282.239257812 c 1
 684.013671875 244 l 1
197.013671875 1096 m 0
 181.013671875 1080 181.013671875 1080 181.013671875 1054 c 0
 181.013671875 1028 181.013671875 1028 197.013671875 1012 c 0
 213.013671875 995 213.013671875 995 235.013671875 994 c 1
 181.013671875 992 181.013671875 992 150.013671875 959 c 0
 120.013671875 925 120.013671875 925 120.013671875 875 c 1
 120.013671875 898 120.013671875 898 102.013671875 916 c 0
 84.013671875 934 84.013671875 934 60.013671875 934 c 0
 36.013671875 934 36.013671875 934 18.013671875 917 c 0
 0.013671875 900 0.013671875 900 0.013671875 876 c 1
 -0.986328125 970 -0.986328125 970 71.013671875 1040 c 0
 143.013671875 1110 143.013671875 1110 234.013671875 1114 c 1
 214.013671875 1112 214.013671875 1112 197.013671875 1096 c 0
197.013671875 736 m 0
 179.013671875 719 179.013671875 719 179.013671875 694 c 0
 179.013671875 669 179.013671875 669 196.013671875 653 c 0
 212.013671875 637 212.013671875 637 234.013671875 634 c 1
 143.013671875 637 143.013671875 637 72.013671875 706 c 0
 1.013671875 775 1.013671875 775 0.013671875 871 c 1
 1.013671875 848 1.013671875 848 18.013671875 831 c 0
 35.013671875 814 35.013671875 814 60.013671875 814 c 0
 85.013671875 814 85.013671875 814 103.013671875 832 c 0
 120.013671875 850 120.013671875 850 120.013671875 874 c 1
 120.013671875 820 120.013671875 820 151.013671875 787 c 0
 182.013671875 754 182.013671875 754 237.013671875 754 c 1
 215.013671875 753 215.013671875 753 197.013671875 736 c 0
218.013671875 -69 m 1
 240.013671875 -95 240.013671875 -95 232.013671875 -105 c 1
 232.013671875 -87 232.013671875 -87 218.013671875 -69 c 1
459.013671875 921 m 1
 443.013671875 934 443.013671875 934 421.013671875 934 c 0
 399.013671875 934 399.013671875 934 381.013671875 916 c 0
 363.013671875 898 363.013671875 898 362.013671875 878 c 0
 362.013671875 858 362.013671875 858 369.013671875 845 c 1
 459.013671875 921 l 1
293.013671875 781 m 1
 299.013671875 774 299.013671875 774 305.013671875 767 c 1
 292.013671875 760 292.013671875 760 276.013671875 757 c 1
 281.013671875 771 281.013671875 771 293.013671875 781 c 1
682.013671875 343 m 1
 654.013671875 376 l 1
 674.013671875 392 674.013671875 392 701.013671875 389 c 1
 689.013671875 367 689.013671875 367 682.013671875 343 c 1
682.013671875 343 m 1
 697.013671875 325 l 1
 674.013671875 307 674.013671875 307 673.013671875 280 c 1
 673.013671875 313 673.013671875 313 682.013671875 343 c 1
210.013671875 -153 m 1
 173.013671875 -108 l 1
 198.013671875 -122 198.013671875 -122 223.013671875 -137 c 1
 218.013671875 -147 218.013671875 -147 210.013671875 -153 c 1
173.013671875 -108 m 1
 146.013671875 -93 146.013671875 -93 120.013671875 -78 c 1
 125.013671875 -68 125.013671875 -68 134.013671875 -61 c 1
 173.013671875 -108 l 1
134.013671875 -61 m 1
 143.013671875 -53 143.013671875 -53 153.013671875 -50 c 1
 144.013671875 -53 144.013671875 -53 134.013671875 -61 c 1
117.013671875 -133 m 1
 133.013671875 -165 133.013671875 -165 167.013671875 -167 c 1
 129.013671875 -166 129.013671875 -166 117.013671875 -133 c 1
117.013671875 -133 m 1
 113.013671875 -121 113.013671875 -121 112.013671875 -111 c 1
 112.013671875 -122 112.013671875 -122 117.013671875 -133 c 1
276.013671875 757 m 1
 274.013671875 751 274.013671875 751 273.013671875 744 c 1
 260.013671875 753 260.013671875 753 243.013671875 754 c 1
 261.013671875 754 261.013671875 754 276.013671875 757 c 1
273.013671875 744 m 1
 300.013671875 726 300.013671875 726 300.013671875 708 c 0
 300.013671875 690 300.013671875 690 299.013671875 685 c 1
 269.013671875 706 269.013671875 706 271.013671875 724 c 0
 273.013671875 742 273.013671875 742 273.013671875 744 c 1
728.9453125 282.239257812 m 1
 729.990234375 283.090820312 729.990234375 283.090820312 731.013671875 284 c 1
 728.9453125 282.239257812 l 1
1061.39550781 1315.1953125 m 1
 1062.23046875 1316.56347656 1062.23046875 1316.56347656 1063.01367188 1318 c 1
 1061.39550781 1315.1953125 l 1
1063.01367188 1318 m 1
 959.013671875 1378 l 1
 971.013671875 1400 971.013671875 1400 995.013671875 1406 c 0
 1019.01367188 1412 1019.01367188 1412 1041.01367188 1400 c 0
 1063.01367188 1388 1063.01367188 1388 1069.01367188 1364 c 0
 1076.01367188 1340 1076.01367188 1340 1063.01367188 1318 c 1
891.013671875 1126 m 1
 872.013671875 1111 872.013671875 1111 850.013671875 1113 c 0
 828.013671875 1115 828.013671875 1115 814.013671875 1127 c 1
 741.013671875 1000 l 1
 891.013671875 1126 l 1
EndSplineSet
Validated: 527403
Layer: 2
SplineSet
243.013671875 1216 m 4
 243.013671875 1305.33300781 273.680664062 1381.33300781 335.013671875 1444 c 4
 396.346679688 1505.33300781 472.013671875 1536 562.013671875 1536 c 4
 604.013671875 1536 645.013671875 1528 685.013671875 1512 c 4
 724.346679688 1495.33300781 758.680664062 1472.33300781 788.013671875 1443 c 132
 817.346679688 1413.66699219 840.346679688 1379.33300781 857.013671875 1340 c 4
 871.013671875 1307.33300781 879.013671875 1273 881.013671875 1237 c 5
 1504.01367188 2001 l 5
 1691.01367188 2001 l 5
 551.013671875 -474 l 5
 1205.01367188 391 l 6
 1211.68066406 399 1217.01367188 404.666992188 1221.01367188 408 c 4
 1282.34667969 470 1357.68066406 501 1447.01367188 501 c 4
 1489.68066406 501 1530.34667969 493 1569.01367188 477 c 4
 1607.01367188 461 1641.34667969 437.666992188 1672.01367188 407 c 4
 1702.01367188 377 1725.68066406 342 1743.01367188 302 c 4
 1759.68066406 264 1768.01367188 223.666992188 1768.01367188 181 c 4
 1768.01367188 92.3330078125 1737.01367188 17 1675.01367188 -45 c 132
 1613.01367188 -107 1537.01367188 -138 1447.01367188 -138 c 4
 1356.34667969 -138 1280.68066406 -107.333007812 1220.01367188 -46 c 4
 1171.34667969 2.6669921875 1142.01367188 61.3330078125 1132.01367188 130 c 5
 482.013671875 -749 l 5
 289.013671875 -749 l 5
 1473.01367188 1809 l 5
 789.013671875 990 l 5
 727.013671875 928 651.346679688 897 562.013671875 897 c 4
 472.013671875 897 396.346679688 927.666992188 335.013671875 989 c 132
 273.680664062 1050.33300781 243.013671875 1126 243.013671875 1216 c 4
378.013671875 1216 m 4
 378.013671875 1163.33300781 395.680664062 1119.33300781 431.013671875 1084 c 4
 465.680664062 1049.33300781 509.346679688 1032 562.013671875 1032 c 4
 613.346679688 1032 657.013671875 1050 693.013671875 1086 c 4
 729.013671875 1120.66699219 747.013671875 1164 747.013671875 1216 c 132
 747.013671875 1268 729.013671875 1311.33300781 693.013671875 1346 c 4
 657.013671875 1382 613.346679688 1400 562.013671875 1400 c 4
 511.346679688 1400 467.680664062 1382.33300781 431.013671875 1347 c 4
 395.680664062 1311.66699219 378.013671875 1268 378.013671875 1216 c 4
1264.01367188 181 m 4
 1264.01367188 128.333007812 1281.68066406 84.6669921875 1317.01367188 50 c 4
 1351.01367188 14.6669921875 1394.34667969 -3 1447.01367188 -3 c 4
 1498.34667969 -3 1541.68066406 14.6669921875 1577.01367188 50 c 4
 1613.01367188 86 1631.01367188 129.666992188 1631.01367188 181 c 132
 1631.01367188 232.333007812 1613.01367188 276 1577.01367188 312 c 132
 1541.01367188 348 1497.68066406 366 1447.01367188 366 c 4
 1394.34667969 366 1351.01367188 348.333007812 1317.01367188 313 c 4
 1281.68066406 278.333007812 1264.01367188 234.333007812 1264.01367188 181 c 4
EndSplineSet
EndChar

StartChar: ampersand
Encoding: 38 38 10
Width: 844
GlyphClass: 2
Flags: HW
LayerCount: 3
Fore
SplineSet
755 33 m 29,0,-1
 755 -7 l 5,1,-1
 735 13 l 5,2,-1
 775 13 l 1029,3,-1
784 563 m 29,0,-1
 784 523 l 5,1,-1
 764 543 l 5,2,-1
 804 543 l 1029,3,-1
815 10 m 0
 816 -12 816 -12 798 -30 c 0
 780 -48 780 -48 752 -47 c 0
 724 -47 724 -47 705 -20 c 1
 703 -22 l 1
 645 62 l 1
 524 -40 524 -40 368 -40 c 0
 212 -40 212 -40 106 58 c 0
 0 156 0 156 -0 311 c 0
 0 510 0 510 205 657 c 1
 133 760 133 760 133 868 c 0
 133 976 133 976 202 1036 c 0
 271 1096 271 1096 335 1096 c 0
 354 1096 354 1096 392 1091 c 0
 430 1086 430 1086 487 1044 c 0
 544 1002 544 1002 554 964 c 0
 564 926 564 926 564 895 c 0
 564 818 564 818 516 746 c 0
 468 674 468 674 386 618 c 1
 669 238 l 1
 724 308 724 308 724 503 c 0
 724 522 724 522 723 543 c 1
 724 543 l 1
 724 555 l 2
 724 568 724 568 742 586 c 0
 760 604 760 604 784 604 c 0
 808 604 808 604 826 586 c 0
 844 568 844 568 844 556 c 2
 844 543 l 1
 724 543 l 1
 724 518 724 518 741 500 c 0
 758 482 758 482 784 482 c 0
 810 482 810 482 826 501 c 0
 842 519 842 519 844 543 c 1
 844 514 l 2
 844 279 844 279 734 151 c 1
 806 48 l 1
 804 47 l 1
 815 32 815 32 815 10 c 0
321 709 m 1
 354 720 354 720 382 752 c 0
 438 816 438 816 440 880 c 2
 440 883 l 2
 440 932 440 932 386 960 c 0
 360 974 360 974 342 974 c 0
 324 974 324 974 304 956 c 0
 262 924 262 924 262 874 c 0
 262 824 262 824 278 788 c 0
 294 752 294 752 321 709 c 1
166 467 m 0
 130 410 130 410 130 315 c 0
 130 220 130 220 204 147 c 0
 278 74 278 74 380 74 c 0
 383 74 383 74 386 74 c 0
 492 74 492 74 581 146 c 1
 265 575 l 1
 202 524 202 524 166 467 c 0
EndSplineSet
Validated: 3
EndChar

StartChar: quotesingle
Encoding: 39 39 11
Width: 270
GlyphClass: 2
Flags: HW
LayerCount: 3
Fore
SplineSet
160 1849 m 29,0,-1
 131 1821 l 5,1,-1
 131 1849 l 5,2,-1
 160 1821 l 1029,3,-1
75 1764 m 29,0,-1
 46 1736 l 5,1,-1
 46 1764 l 5,2,-1
 75 1736 l 1029,3,-1
18 1793 m 1025
142 1810 m 25,0,-1
 142 1850 l 25,1,-1
 162 1830 l 25,2,-1
 122 1830 l 1049,3,-1
140 1311 m 25,0,-1
 140 1351 l 25,1,-1
 160 1331 l 25,2,-1
 120 1331 l 1049,3,-1
144 1271 m 0
 82 1273 82 1273 80 1330 c 0
 80 1356 80 1356 91 1371 c 1
 88 1366 88 1366 86 1361 c 1
 134 1334 134 1334 192 1300 c 1
 175 1271 175 1271 144 1271 c 0
103 1708 m 1
 116 1721 116 1721 119 1737 c 1
 108 1766 108 1766 93 1794 c 1
 102 1781 102 1781 115 1775 c 1
 111 1785 111 1785 103 1793 c 1
 121 1776 121 1776 146 1776 c 0
 171 1776 171 1776 188 1793 c 1
 173 1778 l 1
 206 1796 206 1796 206 1831 c 0
 206 1838 206 1838 204 1847 c 1
 270 1724 270 1724 270 1580 c 0
 270 1436 270 1436 193 1302 c 1
 200 1315 200 1315 200 1331 c 0
 200 1391 200 1391 140 1391 c 0
 106 1391 106 1391 91 1371 c 1
 149 1477 149 1477 149 1566 c 0
 149 1655 149 1655 123 1727 c 1
 103 1708 l 1
103 1708 m 1
 86 1690 86 1690 61 1690 c 0
 36 1690 36 1690 18 1708 c 0
 0 1726 0 1726 0 1750 c 0
 0 1774 0 1774 18 1793 c 1
 103 1708 l 1
99.2001953125 1873.20019531 m 1
 90 1864 l 1
 97 1877 97 1877 111 1884 c 0
 125 1896 125 1896 147 1896 c 0
 169 1896 169 1896 185 1880 c 0
 201 1864 201 1864 204 1847 c 1
 199 1855 l 1
 205 1842 205 1842 205 1826 c 0
 205 1810 205 1810 188 1793 c 1
 147 1833 l 1
 121 1818 121 1818 94 1803 c 1
 103 1793 l 1
 92 1802 l 1
 93 1802 93 1802 88 1811 c 0
 83 1820 83 1820 83 1839 c 0
 83 1856.09960938 83 1856.09960938 99.2001953125 1873.20019531 c 1
90 1864 m 1
 82 1850 82 1850 82 1833 c 0
 82 1816 82 1816 87 1804 c 1
 72 1812 72 1812 55 1812 c 0
 38 1812 38 1812 19 1794 c 1
 90 1864 l 1
87 1804 m 1
 89 1803 89 1803 92 1802 c 1
 91 1801 91 1801 89 1800 c 1
 88 1802 88 1802 87 1804 c 1
EndSplineSet
Validated: 526339
EndChar

StartChar: parenleft
Encoding: 40 40 12
Width: 657
GlyphClass: 2
Flags: HW
LayerCount: 3
Fore
SplineSet
597 2765 m 29,0,-1
 597 2725 l 5,1,-1
 577 2745 l 5,2,-1
 617 2745 l 1029,3,-1
570 -823 m 29,0,-1
 570 -863 l 5,1,-1
 550 -843 l 5,2,-1
 590 -843 l 1029,3,-1
40 772 m 29,0,-1
 80 772 l 5,1,-1
 60 752 l 5,2,-1
 60 792 l 1029,3,-1
320 772 m 29,0,-1
 360 772 l 5,1,-1
 340 752 l 5,2,-1
 340 792 l 1029,3,-1
340 712 m 1025
612 -885 m 0
 594 -903 594 -903 566 -903 c 0
 538 -903 538 -903 518 -873 c 1
 516 -874 l 1
 314 -506 314 -506 232 -213 c 0
 90 298 90 298 80 712 c 1
 213 712 l 1
 207 780 207 780 207 832 c 1
 340 832 l 1
 316 832 316 832 298 814 c 0
 280 796 280 796 280 772 c 0
 280 748 280 748 298 730 c 0
 316 712 316 712 340 712 c 1
 213 712 l 1
 262 156 262 156 358 -172 c 0
 454 -500 454 -500 624 -813 c 1
 623 -814 l 1
 630 -827 630 -827 630 -847 c 0
 630 -867 630 -867 612 -885 c 0
649 2715 m 1
 651 2714 l 1
 427 2226 427 2226 302 1692 c 0
 209 1298 209 1298 207 832 c 1
 80 832 l 1
 80 833 l 2
 79 866 79 866 79 898 c 0
 79 1339 79 1339 184 1776 c 0
 288 2212 288 2212 543 2775 c 1
 545 2774 l 1
 535 2758 535 2758 535 2739 c 0
 535 2721 535 2721 553 2703 c 0
 572 2684 572 2684 602 2684 c 0
 632 2684 632 2684 649 2715 c 1
649 2715 m 1
 545 2774 l 1
 563 2806 563 2806 592 2806 c 0
 621 2806 621 2806 639 2788 c 0
 657 2770 657 2770 657 2750 c 0
 657 2730 657 2730 649 2715 c 1
80 716 m 1
 80 829 l 1
 120 815 120 815 120 772 c 0
 120 729 120 729 80 716 c 1
80 716 m 1
 80 712 l 1
 60 712 l 1
 70 712 70 712 80 716 c 1
80 829 m 1
 70 832 70 832 60 832 c 1
 80 832 l 1
 80 829 l 1
60 832 m 1
 60 712 l 1
 36 712 36 712 18 730 c 0
 0 748 0 748 0 772 c 0
 0 796 0 796 18 814 c 0
 36 832 36 832 48 832 c 2
 60 832 l 1
340 712 m 1
 340 832 l 1
 364 832 364 832 382 814 c 0
 400 796 400 796 400 772 c 0
 400 748 400 748 382 730 c 0
 364 712 364 712 340 712 c 1
EndSplineSet
Validated: 2051
EndChar

StartChar: parenright
Encoding: 41 41 13
Width: 656
GlyphClass: 2
Flags: HW
LayerCount: 3
Fore
SplineSet
616 772 m 29,0,-1
 576 772 l 5,1,-1
 596 752 l 5,2,-1
 596 792 l 1029,3,-1
336 772 m 29,0,-1
 296 772 l 5,1,-1
 316 752 l 5,2,-1
 316 792 l 1029,3,-1
316 712 m 1025
87 -823 m 29,0,-1
 87 -863 l 5,1,-1
 107 -843 l 5,2,-1
 67 -843 l 1029,3,-1
60 2765 m 29,0,-1
 60 2725 l 5,1,-1
 80 2745 l 5,2,-1
 40 2745 l 1029,3,-1
139 -873 m 1
 122 -903 122 -903 92 -903 c 0
 62 -903 62 -903 44 -885 c 0
 26 -867 26 -867 27 -847 c 0
 27 -827 27 -827 34 -814 c 1
 33 -813 l 1
 204 -499 204 -499 300 -171 c 0
 396 157 396 157 444 713 c 1
 317.922851562 712.006835938 l 1
 340.381835938 712.361328125 340.381835938 712.361328125 359 730 c 0
 376 748 376 748 376 772 c 0
 376 796 376 796 359 814 c 0
 341 832 341 832 317 832 c 1
 450 832 l 1
 448 1298 448 1298 355 1692 c 0
 230 2226 230 2226 6 2714 c 1
 8 2715 l 1
 0 2728 0 2728 0 2749 c 0
 0 2770 0 2770 18 2788 c 0
 36 2806 36 2806 65 2806 c 0
 94 2806 94 2806 112 2774 c 1
 8 2715 l 1
 26 2684 26 2684 55 2684 c 0
 84 2684 84 2684 102 2702 c 0
 120 2720 120 2720 120 2741 c 0
 120 2762 120 2762 112 2774 c 1
 114 2775 l 1
 370 2212 370 2212 474 1777 c 0
 578 1342 578 1342 578 906 c 0
 578 870 578 870 577 833 c 2
 577 832 l 1
 596 832 l 1
 586 832 586 832 577 829 c 1
 577 832 l 1
 450 832 l 1
 450 780 450 780 444 713 c 1
 577 712 l 1
 567 297 567 297 425 -213 c 0
 343 -506 343 -506 141 -874 c 1
 139 -873 l 1
596 832 m 1
 609 832 l 2
 620 832 620 832 638 814 c 0
 656 796 656 796 656 772 c 0
 656 748 656 748 638 730 c 0
 620 712 620 712 596 712 c 1
 596 832 l 1
596 712 m 1
 577 712 l 1
 577 716 l 1
 586 712 586 712 596 712 c 1
577 829 m 1
 577 716 l 1
 536 730 536 730 536 772 c 0
 536 814 536 814 577 829 c 1
316 712 m 1
 292 712 292 712 274 730 c 0
 256 748 256 748 256 772 c 0
 256 796 256 796 274 814 c 0
 292 832 292 832 316 832 c 1
 316 712 l 1
317.922851562 712.006835938 m 1
 317 712 l 1
 317.461914062 712 317.461914062 712 317.922851562 712.006835938 c 1
EndSplineSet
Validated: 526339
EndChar

StartChar: asterisk
Encoding: 42 42 14
Width: 757
GlyphClass: 2
Flags: HW
LayerCount: 3
Fore
SplineSet
596.22265625 1345 m 29,0,-1
 566.22265625 1319 l 5,1,-1
 568.22265625 1347 l 5,2,-1
 594.22265625 1317 l 1029,3,-1
75.22265625 908 m 29,0,-1
 45.22265625 882 l 5,1,-1
 47.22265625 910 l 5,2,-1
 73.22265625 880 l 1029,3,-1
21.22265625 941 m 1025
159.22265625 1333 m 29,0,-1
 189.22265625 1308 l 5,1,-1
 161.22265625 1305 l 5,2,-1
 187.22265625 1336 l 1029,3,-1
680.22265625 896 m 29,0,-1
 710.22265625 870 l 5,1,-1
 682.22265625 868 l 5,2,-1
 708.22265625 899 l 1029,3,-1
657.22265625 837 m 1025
377.22265625 1408 m 29,0,-1
 377.22265625 1368 l 5,1,-1
 357.22265625 1388 l 5,2,-1
 397.22265625 1388 l 1029,3,-1
377.22265625 728 m 29,0,-1
 377.22265625 688 l 5,1,-1
 357.22265625 708 l 5,2,-1
 397.22265625 708 l 1029,3,-1
317.22265625 708 m 1025
213.22265625 1366 m 1
 317.22265625 1279 l 1
 317.22265625 1383 l 1
 318.22265625 1362 318.22265625 1362 335.22265625 1345 c 0
 352.22265625 1328 352.22265625 1328 377.22265625 1328 c 0
 402.22265625 1328 402.22265625 1328 420.22265625 1346 c 0
 437.22265625 1364 437.22265625 1364 437.22265625 1388 c 1
 437.22265625 1290 l 1
 542.22265625 1378 l 1
 523.22265625 1362 523.22265625 1362 521.22265625 1337 c 0
 520.22265625 1312 520.22265625 1312 536.22265625 1293 c 0
 552.22265625 1274 552.22265625 1274 576.22265625 1272 c 0
 600.22265625 1270 600.22265625 1270 619.22265625 1286 c 1
 464.22265625 1156 l 1
 733.22265625 930 l 2
 757.22265625 906 757.22265625 906 757.22265625 885 c 0
 757.22265625 864 757.22265625 864 741.22265625 845 c 0
 725.22265625 826 725.22265625 826 700.22265625 824 c 0
 675.22265625 822 675.22265625 822 657.22265625 837 c 2
 437.22265625 1022 l 1
 437.22265625 708 l 2
 438.22265625 684 438.22265625 684 420.22265625 666 c 0
 402.22265625 648 402.22265625 648 377.22265625 648 c 0
 352.22265625 648 352.22265625 648 334.22265625 666 c 0
 316.22265625 684 316.22265625 684 317.22265625 708 c 2
 317.22265625 1032 l 1
 99.22265625 849 l 1
 118.22265625 865 118.22265625 865 120.22265625 890 c 0
 120.22265625 915 120.22265625 915 106.22265625 933 c 0
 92.22265625 951 92.22265625 951 66.22265625 954 c 0
 40.22265625 957 40.22265625 957 21.22265625 941 c 1
 277.22265625 1156 l 1
 136.22265625 1274 l 1
 156.22265625 1258 156.22265625 1258 180.22265625 1260 c 0
 204.22265625 1262 204.22265625 1262 220.22265625 1282 c 0
 236.22265625 1302 236.22265625 1302 234.22265625 1326 c 0
 232.22265625 1350 232.22265625 1350 213.22265625 1366 c 1
317.22265625 1122 m 1
 317.22265625 1189 l 1
 277.22265625 1156 l 1
 317.22265625 1122 l 1
317.22265625 1122 m 1
 317.22265625 1032 l 1
 371.22265625 1077 l 1
 317.22265625 1122 l 1
437.22265625 1178 m 1
 437.22265625 1133 l 1
 464.22265625 1156 l 1
 437.22265625 1178 l 1
437.22265625 1178 m 1
 437.22265625 1290 l 1
 371.22265625 1234 l 1
 437.22265625 1178 l 1
317.22265625 1388 m 1
 317.22265625 1412 317.22265625 1412 335.22265625 1430 c 0
 353.22265625 1448 353.22265625 1448 377.22265625 1448 c 0
 401.22265625 1448 401.22265625 1448 419.22265625 1430 c 0
 437.22265625 1412 437.22265625 1412 437.22265625 1401 c 2
 437.22265625 1388 l 1
 317.22265625 1388 l 1
136.22265625 1274 m 1
 117.22265625 1290 117.22265625 1290 115.22265625 1316 c 0
 112.22265625 1342 112.22265625 1342 128.22265625 1360 c 0
 144.22265625 1378 144.22265625 1378 178.22265625 1381 c 0
 212.22265625 1385 212.22265625 1385 212.22265625 1367 c 0
 212.22265625 1365 212.22265625 1365 136.22265625 1274 c 1
21.22265625 941 m 1
 99.22265625 849 l 1
 80.22265625 834 80.22265625 834 55.22265625 836 c 0
 30.22265625 838 30.22265625 838 14.22265625 856 c 0
 -1.77734375 874 -1.77734375 874 0.22265625 900 c 0
 2.22265625 925 2.22265625 925 21.22265625 941 c 1
619.22265625 1286 m 1
 542.22265625 1378 l 1
 561.22265625 1394 561.22265625 1394 586.22265625 1391 c 0
 610.22265625 1388 610.22265625 1388 626.22265625 1371 c 0
 642.22265625 1354 642.22265625 1354 640.22265625 1328 c 0
 638.22265625 1302 638.22265625 1302 619.22265625 1286 c 1
EndSplineSet
Validated: 526339
EndChar

StartChar: plus
Encoding: 43 43 15
Width: 800
GlyphClass: 2
Flags: HW
LayerCount: 3
Fore
SplineSet
760 890 m 29,0,-1
 720 890 l 5,1,-1
 740 910 l 5,2,-1
 740 870 l 1029,3,-1
80 890 m 29,0,-1
 40 890 l 5,1,-1
 60 910 l 5,2,-1
 60 870 l 1029,3,-1
60 950 m 1025
478 1167 m 29,0,-1
 478 1127 l 5,1,-1
 458 1147 l 5,2,-1
 498 1147 l 1029,3,-1
478 487 m 29,0,-1
 478 447 l 5,1,-1
 458 467 l 5,2,-1
 498 467 l 1029,3,-1
418 467 m 1025
60 950 m 1
 60 830 l 1
 36 830 36 830 18 848 c 0
 0 866 0 866 0 890 c 0
 0 914 0 914 18 932 c 0
 36 950 36 950 60 950 c 1
60 950 m 1
 418 950 l 1
 418 830 l 1
 60 830 l 1
 84 830 84 830 102 848 c 0
 120 866 120 866 120 890 c 0
 120 914 120 914 102 932 c 0
 84 950 84 950 60 950 c 1
418 830 m 1
 538 830 l 1
 538 950 l 1
 740 950 l 1
 716 950 716 950 698 932 c 0
 680 914 680 914 680 890 c 0
 680 866 680 866 698 848 c 0
 716 830 716 830 740 830 c 1
 538 830 l 1
 538 467 l 2
 538 442 538 442 520 424 c 0
 502 406 502 406 478 406 c 0
 454 406 454 406 436 424 c 0
 418 442 418 442 418 467 c 2
 418 830 l 1
740 830 m 1
 740 950 l 1
 764 950 764 950 782 932 c 0
 800 914 800 914 800 890 c 0
 800 866 800 866 782 848 c 0
 764 830 764 830 753 830 c 2
 740 830 l 1
418 950 m 1
 418 1147 l 1
 418 1122 418 1122 436 1104 c 0
 454 1086 454 1086 478 1086 c 0
 502 1086 502 1086 520 1104 c 0
 538 1122 538 1122 538 1147 c 1
 538 950 l 1
 418 950 l 1
538 1147 m 1
 418 1147 l 1
 418 1172 418 1172 436 1190 c 0
 454 1208 454 1208 478 1208 c 0
 502 1208 502 1208 520 1190 c 0
 538 1172 538 1172 538 1160 c 2
 538 1147 l 1
EndSplineSet
Validated: 2051
EndChar

StartChar: comma
Encoding: 44 44 16
Width: 654
GlyphClass: 2
Flags: HW
LayerCount: 3
Fore
SplineSet
402 -122 m 25,0,-1
 430 -93 l 25,1,-1
 430 -122 l 25,2,-1
 402 -93 l 1049,3,-1
47 -473 m 25,0,-1
 76 -445 l 25,1,-1
 76 -473 l 25,2,-1
 47 -445 l 1049,3,-1
441 -106 m 29,0,-1
 401 -106 l 5,1,-1
 421 -86 l 5,2,-1
 421 -126 l 1029,3,-1
321 -106 m 29,0,-1
 281 -106 l 5,1,-1
 301 -86 l 5,2,-1
 301 -126 l 1029,3,-1
301 -46 m 1025
301 -166 m 1
 277 -166 277 -166 259 -148 c 0
 241 -130 241 -130 241 -106 c 0
 241 -82 241 -82 259 -64 c 0
 277 -46 277 -46 301 -46 c 1
 301 -166 l 1
0 -459 m 0
 0 -436 0 -436 16 -420 c 0
 32 -404 32 -404 45 -400 c 1
 60 -453 60 -453 76 -518 c 1
 44 -526 44 -526 22 -504 c 0
 0 -482 0 -482 0 -459 c 0
476 -124 m 1
 461 -166 461 -166 422 -166 c 2
 421 -166 l 1
 421 -109 l 1
 392 -101 392 -101 363 -93 c 1
 361 -106 l 1
 360 -92 l 1
 361 -93 361 -93 363 -93 c 0
 367 -78 367 -78 382 -62 c 0
 397 -46 397 -46 421 -46 c 1
 403 -46 l 1
 437 -36 437 -36 459 -60 c 0
 481 -84 481 -84 481 -104 c 0
 481 -124 481 -124 471 -139 c 1
 476 -124 l 1
360 -92 m 1
 358 -91 358 -91 358 -90 c 2
 358 -87 l 1
 359 -89 359 -89 360 -92 c 1
361 -106 m 1
 361 -130 361 -130 379 -148 c 0
 397 -166 397 -166 421 -166 c 1
 401 -166 l 1
 407 -168 407 -168 414 -168 c 0
 451 -168 451 -168 471 -139 c 1
 431 -272 431 -272 329 -374 c 0
 227 -476 227 -476 79 -517 c 1
 93 -512 93 -512 109 -496 c 0
 125 -480 125 -480 125 -459 c 0
 125 -438 125 -438 102 -415 c 0
 80 -393 80 -393 55 -397 c 1
 171 -362 171 -362 233 -300 c 0
 295 -238 295 -238 329 -166 c 1
 302 -166 l 1
 320 -166 320 -166 334 -157 c 1
 346 -128 346 -128 355 -98 c 1
 354 -104 354 -104 354 -111 c 0
 354 -118 354 -118 358 -127 c 1
 361 -117 361 -117 361 -106 c 1
358 -87 m 1
 343 -46 343 -46 301 -46 c 1
 403 -46 l 1
 371 -54 371 -54 358 -87 c 1
EndSplineSet
Validated: 2051
Layer: 2
SplineSet
419 250 m 1
 654 249 l 1
 653 125 l 1026
EndSplineSet
EndChar

StartChar: hyphen
Encoding: 45 45 17
Width: 1699
GlyphClass: 2
Flags: HW
LayerCount: 3
Fore
SplineSet
416.555664062 828 m 29,0,-1
 454.555664062 814 l 5,1,-1
 428.555664062 802 l 5,2,-1
 442.555664062 840 l 1029,3,-1
1431.55566406 459 m 29,0,-1
 1469.55566406 445 l 5,1,-1
 1443.55566406 433 l 5,2,-1
 1457.55566406 470 l 1029,3,-1
1429.55566406 395 m 1025
40.5556640625 1165 m 29,0,-1
 78.5556640625 1151 l 5,1,-1
 52.5556640625 1139 l 5,2,-1
 66.5556640625 1177 l 1029,3,-1
1619.55566406 590 m 29,0,-1
 1657.55566406 576 l 5,1,-1
 1631.55566406 564 l 5,2,-1
 1645.55566406 602 l 1029,3,-1
1617.55566406 527 m 1025
1470.55566406 508 m 2
 1493.55566406 500 1493.55566406 500 1504.55566406 478 c 0
 1515.55566406 456 1515.55566406 456 1506.55566406 432 c 0
 1497.55566406 408 1497.55566406 408 1475.55566406 398 c 0
 1453.55566406 388 1453.55566406 388 1429.55566406 395 c 2
 417.555664062 764 l 1
 439.555664062 756 439.555664062 756 461.555664062 766 c 0
 483.555664062 776 483.555664062 776 491.555664062 800 c 0
 500.555664062 824 500.555664062 824 489.555664062 846 c 0
 478.555664062 868 478.555664062 868 457.555664062 876 c 1
 1470.55566406 508 l 2
1658.55566406 640 m 2
 1681.55566406 632 1681.55566406 632 1692.55566406 610 c 0
 1703.55566406 588 1703.55566406 588 1694.55566406 564 c 0
 1685.55566406 540 1685.55566406 540 1663.55566406 530 c 0
 1641.55566406 520 1641.55566406 520 1617.55566406 527 c 2
 42.5556640625 1101 l 1
 63.5556640625 1094 63.5556640625 1094 85.5556640625 1103 c 0
 106.555664062 1112 106.555664062 1112 115.555664062 1136 c 0
 124.555664062 1160 124.555664062 1160 113.555664062 1182 c 0
 102.555664062 1204 102.555664062 1204 80.5556640625 1214 c 1
 1658.55566406 640 l 2
414.555664062 765 m 1
 391.555664062 774 391.555664062 774 381.555664062 796 c 0
 371.555664062 818 371.555664062 818 379.555664062 841 c 0
 387.555664062 864 387.555664062 864 409.555664062 875 c 0
 432.555664062 886 432.555664062 886 455.555664062 878 c 1
 414.555664062 765 l 1
414.555664062 765 m 1
 416.555664062 764 416.555664062 764 417.555664062 764 c 1
 414.555664062 765 l 1
39.5556640625 1102 m 1
 40.5556640625 1102 40.5556640625 1102 42.5556640625 1101 c 1
 39.5556640625 1102 l 1
39.5556640625 1102 m 1
 15.5556640625 1110 15.5556640625 1110 5.5556640625 1132 c 0
 -4.4443359375 1154 -4.4443359375 1154 3.5556640625 1178 c 0
 11.5556640625 1202 11.5556640625 1202 34.5556640625 1212 c 0
 57.5556640625 1223 57.5556640625 1223 80.5556640625 1214 c 1
 39.5556640625 1102 l 1
457.555664062 876 m 1
 456.555664062 876 456.555664062 876 455.555664062 877 c 1
 457.555664062 876 l 1
EndSplineSet
Validated: 526339
EndChar

StartChar: period
Encoding: 46 46 18
Width: 1536
VWidth: 0
GlyphClass: 2
Flags: HW
LayerCount: 3
Fore
SplineSet
417 -418 m 29,0,-1
 388 -389 l 5,1,-1
 417 -389 l 5,2,-1
 388 -418 l 1029,3,-1
77 -77 m 29,0,-1
 48 -49 l 5,1,-1
 77 -49 l 5,2,-1
 48 -77 l 1029,3,-1
105 -21 m 1025
415 -120 m 29,0,-1
 387 -148 l 5,1,-1
 387 -120 l 5,2,-1
 415 -148 l 1029,3,-1
75 -460 m 29,0,-1
 46 -488 l 5,1,-1
 46 -460 l 5,2,-1
 75 -488 l 1029,3,-1
18 -431 m 1025
105 -21 m 1
 20 -106 l 1
 37 -123 37 -123 63 -123 c 0
 89 -123 89 -123 105 -106 c 0
 121 -89 121 -89 122 -64 c 0
 123 -39 123 -39 105 -21 c 1
105 -21 m 2
 267 -183 l 1
 358 -91 l 1
 341 -110 341 -110 341 -134 c 0
 341 -158 341 -158 359 -176 c 0
 377 -194 377 -194 401 -194 c 0
 424.44140625 -194 424.44140625 -194 440.849609375 -178.174804688 c 1
 352 -268 l 1
 267 -183 l 1
 182 -268 l 1
 267 -352 l 1
 105.424804688 -513.575195312 l 1
 120 -498.07421875 120 -498.07421875 120 -474 c 0
 120 -448 120 -448 103 -431 c 0
 86 -414 86 -414 61 -414 c 0
 36 -414 36 -414 18 -431 c 1
 182 -268 l 1
 20 -106 l 2
 3 -89 3 -89 3 -64 c 0
 1 -39 1 -39 19 -21 c 0
 37 -3 37 -3 62 -3 c 0
 87 -3 87 -3 105 -21 c 2
18 -431 m 1
 103 -516 l 1
 86 -534 86 -534 61 -534 c 0
 36 -534 36 -534 18 -516 c 0
 0 -498 0 -498 0 -474 c 0
 0 -450 0 -450 18 -431 c 1
105.424804688 -513.575195312 m 1
 103 -516 l 1
 104.258789062 -514.814453125 104.258789062 -514.814453125 105.424804688 -513.575195312 c 1
267 -352 m 1
 352 -268 l 1
 445 -361 l 2
 463 -379 463 -379 463 -404 c 0
 463 -429 463 -429 445 -446 c 0
 427 -463 427 -463 403 -463 c 0
 377 -463 377 -463 360 -446 c 2
 267 -352 l 1
440.849609375 -178.174804688 m 1
 441.940429688 -177.122070312 441.940429688 -177.122070312 443 -176 c 1
 440.849609375 -178.174804688 l 1
358 -91 m 1
 376 -74 376 -74 401 -74 c 0
 425 -74 425 -74 443 -91 c 0
 461 -108 461 -108 461 -134 c 0
 461 -160 461 -160 444 -176 c 1
 358 -91 l 1
EndSplineSet
Validated: 526347
Layer: 2
SplineSet
1353.98046875 196 m 5
 1535.98046875 197 l 5
 1367.98046875 6 l 5
 1525.98046875 -186 l 5
 1343.98046875 -188 l 5
 1293.98046875 -78 l 5
 1222.98046875 -192 l 5
 1061.98046875 -188 l 5
 1222.98046875 -1 l 5
 1062.98046875 197 l 5
 1239.98046875 197 l 5
 1299.98046875 93 l 5
 1353.98046875 196 l 5
EndSplineSet
EndChar

StartChar: slash
Encoding: 47 47 19
Width: 2245
GlyphClass: 2
Flags: HW
LayerCount: 3
Fore
SplineSet
70 -921 m 29,0,-1
 50 -956 l 5,1,-1
 43 -928 l 5,2,-1
 78 -948 l 1029,3,-1
2195 2760 m 29,0,-1
 2175 2725 l 5,1,-1
 2168 2752 l 5,2,-1
 2203 2732 l 1029,3,-1
112 -968 m 1
 100 -990 100 -990 76 -996 c 0
 52 -1002 52 -1002 30 -990 c 0
 8 -978 8 -978 2 -954 c 0
 -4 -930 -4 -930 8 -908 c 1
 112 -968 l 1
113 -968 m 1
 125 -946 125 -946 118 -922 c 0
 111 -898 111 -898 90 -886 c 0
 69 -874 69 -874 45 -880 c 0
 21.2880859375 -885.927734375 21.2880859375 -885.927734375 9.2900390625 -906.498046875 c 1
 2133 2772 l 1
 2121 2750 2121 2750 2127 2726 c 0
 2133 2702 2133 2702 2155 2690 c 0
 2177 2678 2177 2678 2201 2684 c 0
 2223.42285156 2689.60546875 2223.42285156 2689.60546875 2235.37109375 2709.17675781 c 1
 113 -968 l 1
2235.37109375 2709.17675781 m 1
 2236.2109375 2710.55371094 2236.2109375 2710.55371094 2237 2712 c 1
 2235.37109375 2709.17675781 l 1
2237 2712 m 1
 2133 2772 l 1
 2146 2794 2146 2794 2170 2800 c 0
 2194 2806 2194 2806 2215 2794 c 0
 2236 2782 2236 2782 2243 2758 c 0
 2250 2734 2250 2734 2237 2712 c 1
9.2900390625 -906.498046875 m 1
 9.1435546875 -906.748046875 9.1435546875 -906.748046875 9 -907 c 1
 9.2900390625 -906.498046875 l 1
EndSplineSet
Validated: 524299
EndChar

StartChar: zero
Encoding: 48 48 20
Width: 967
GlyphClass: 2
Flags: HW
LayerCount: 3
Fore
SplineSet
483.0078125 131 m 0
 764.0078125 131 764.0078125 131 764.0078125 745 c 0
 764.0078125 975 764.0078125 975 727.0078125 1116 c 1
 338.0078125 187 l 1
 399.0078125 131 399.0078125 131 483.0078125 131 c 0
483.0078125 1360 m 0
 203.0078125 1360 203.0078125 1360 203.0078125 745 c 0
 203.0078125 471 203.0078125 471 257.0078125 321 c 1
 647.0078125 1285 l 1
 583.0078125 1360 583.0078125 1360 483.0078125 1360 c 0
967.0078125 746 m 0
 967.0078125 364 967.0078125 364 845.0078125 168 c 0
 723.0078125 -28 723.0078125 -28 483.0078125 -28 c 0
 243.0078125 -28 243.0078125 -28 121.0078125 167 c 0
 0 360.415039062 0 360.415039062 0 733.866210938 c 0,0,0
 0 736.926757812 0 736.926757812 0.0078125 740 c 0
 0.0078125 743 0.0078125 743 0.0078125 746 c 0
 0.0078125 749 0.0078125 749 0.0078125 752 c 0
 0.0078125 1129 0.0078125 1129 121.0078125 1325 c 0
 243.0078125 1520 243.0078125 1520 483.0078125 1520 c 0
 723.0078125 1520 723.0078125 1520 845.0078125 1324 c 0
 967.0078125 1128 967.0078125 1128 967.0078125 746 c 0
EndSplineSet
Validated: 524289
EndChar

StartChar: one
Encoding: 49 49 21
Width: 848
GlyphClass: 2
Flags: HW
LayerCount: 3
Fore
SplineSet
24 170 m 1
 338 170 l 1
 338 1311 l 1
 0 1235 l 1
 0 1419 l 1
 336 1493 l 1
 538 1493 l 1
 538 170 l 1
 848 170 l 1
 848 0 l 1
 24 0 l 1
 24 170 l 1
EndSplineSet
Validated: 1
EndChar

StartChar: two
Encoding: 50 50 22
Width: 907
GlyphClass: 2
Flags: HW
LayerCount: 3
Fore
SplineSet
12 1421 m 1
 218 1520 218 1520 424 1520 c 0
 630 1520 630 1520 764 1404 c 0
 897.0078125 1288.859375 897.0078125 1288.859375 897.0078125 1102.78125 c 0,0,0
 897.0078125 912.008789062 897.0078125 912.008789062 708 694 c 0
 624 596 624 596 221 170 c 1
 907 170 l 1
 907 0 l 1
 0 0 l 1
 0 170 l 1
 378 564 378 564 499 708 c 0
 620 852 620 852 655 929 c 0
 690 1006 690 1006 690 1083 c 0
 690 1210 690 1210 616 1280 c 0
 542 1350 542 1350 415 1350 c 0
 234 1350 234 1350 12 1217 c 1
 12 1421 l 1
EndSplineSet
Validated: 524289
EndChar

StartChar: three
Encoding: 51 51 23
Width: 942
GlyphClass: 2
Flags: HW
LayerCount: 3
Fore
SplineSet
707 1116 m 0
 707 1350 707 1350 406 1350 c 0
 249 1350 249 1350 45 1270 c 1
 45 1456 l 1
 289 1520 289 1520 428 1520 c 0
 646 1520 646 1520 777 1411 c 0
 907 1301 907 1301 907 1120 c 0
 907 870 907 870 639 799 c 1
 786 760 786 760 864 660 c 0
 942 560 942 560 942 412 c 0
 941 206 941 206 803 88 c 0
 665 -30 665 -30 438 -30 c 0
 211 -30 211 -30 0 45 c 1
 0 246 l 1
 201 141 201 141 383 141 c 0
 565 141 565 141 653 216 c 0
 741 291 741 291 742 427 c 0
 742 563 742 563 654 639 c 0
 566 715 566 715 412 715 c 2
 258 715 l 1
 258 881 l 1
 412 881 l 2
 414 881 414 881 416 881 c 0
 552 881 552 881 630 942 c 0
 707 1004 707 1004 707 1116 c 0
EndSplineSet
Validated: 1
EndChar

StartChar: four
Encoding: 52 52 24
Width: 1033
GlyphClass: 2
Flags: HW
LayerCount: 3
Fore
SplineSet
600 1493 m 1
 834 1493 l 1
 834 520 l 1
 1033 520 l 1
 1033 356 l 1
 834 356 l 1
 834 0 l 1
 633 0 l 1
 633 356 l 1
 0 356 l 1
 0 547 l 1
 600 1493 l 1
633 1309 m 1
 162 520 l 1
 633 520 l 1
 633 1309 l 1
EndSplineSet
Validated: 1
EndChar

StartChar: five
Encoding: 53 53 25
Width: 925
GlyphClass: 2
Flags: HW
LayerCount: 3
Fore
SplineSet
723 479 m 0
 723 640 723 640 629 728 c 0
 535 816 535 816 369 816 c 0
 203 816 203 816 64 743 c 1
 64 1493 l 1
 820 1493 l 1
 820 1323 l 1
 248 1323 l 1
 248 956 l 1
 329 987 329 987 422 987 c 0
 653 986 653 986 789 850 c 0
 925 714 925 714 925 478 c 0
 925 242 925 242 784 106 c 0
 644.029296875 -29.0068359375 644.029296875 -29.0068359375 408.469726562 -29.0068359375 c 0,0,0
 406.737304688 -29.0068359375 406.737304688 -29.0068359375 405 -29 c 0
 403 -29 403 -29 402 -29 c 0
 162 -29 162 -29 0 35 c 1
 0 240 l 1
 184 141 184 141 363 141 c 0
 542 141 542 141 633 229 c 0
 723 318 723 318 723 479 c 0
EndSplineSet
Validated: 524289
EndChar

StartChar: six
Encoding: 54 54 26
Width: 967
GlyphClass: 2
Flags: HW
LayerCount: 3
Fore
SplineSet
768 479 m 0
 768 829 768 829 498 829 c 0
 497 829 497 829 495 829 c 0
 368 829 368 829 295 736 c 0
 221 642 221 642 221 479 c 0
 221 316 221 316 295 222 c 0
 368.220703125 128.989257812 368.220703125 128.989257812 492.353515625 128.989257812 c 0,0,0
 493.673828125 128.989257812 493.673828125 128.989257812 495 129 c 0
 496 129 496 129 498 129 c 0
 768 129 768 129 768 479 c 0
567 1520 m 0
 711 1520 711 1520 858 1460 c 1
 858 1274 l 1
 730 1350 730 1350 576 1350 c 0
 384 1350 384 1350 285 1206 c 0
 186 1062 186 1062 186 780 c 1
 234 880 234 880 319 934 c 0
 405 987 405 987 514 987 c 0
 731 986 731 986 849 854 c 0
 967 722 967 722 967 480 c 0
 967 238 967 238 845 104 c 0
 723.903320312 -29.0078125 723.903320312 -29.0078125 508.224609375 -29.0078125 c 0,0,0
 506.615234375 -29.0078125 506.615234375 -29.0078125 505 -29 c 0
 503 -29 503 -29 502 -29 c 0
 500 -29 500 -29 499 -29 c 0
 241 -29 241 -29 121 156 c 0
 0 342 0 342 0 732 c 0
 0 735 0 735 0 737 c 0
 0 1123 0 1123 145 1322 c 0
 291 1520 291 1520 567 1520 c 0
EndSplineSet
Validated: 524289
EndChar

StartChar: seven
Encoding: 55 55 27
Width: 940
GlyphClass: 2
Flags: HW
LayerCount: 3
Fore
SplineSet
0 1493 m 1
 940 1493 l 1
 940 1407 l 1
 406 0 l 1
 195 0 l 1
 715 1323 l 1
 0 1323 l 1
 0 1493 l 1
EndSplineSet
Validated: 1
EndChar

StartChar: eight
Encoding: 56 56 28
Width: 971
GlyphClass: 2
Flags: HW
LayerCount: 3
Fore
SplineSet
300 1300 m 1
 237 1234 237 1234 237 1114 c 0
 237 994 237 994 301 931 c 0
 365 868 365 868 486 868 c 0
 607 868 607 868 671 931 c 0
 735 994 735 994 735 1115 c 0
 735 1236 735 1236 671 1300 c 0
 607 1364 607 1364 487 1364 c 0
 367 1364 367 1364 300 1300 c 1
309 793 m 1
 181 826 181 826 107 916 c 0
 35 1006 35 1006 35 1133 c 0
 35 1312 35 1312 156 1416 c 0
 277 1520 277 1520 485 1520 c 0
 693 1520 693 1520 815 1416 c 0
 936 1311 936 1311 936 1133 c 0
 935 1006 935 1006 863 916 c 0
 791 826 791 826 662 793 c 1
 811 760 811 760 891 660 c 0
 971 560 971 560 971 401 c 0
 971 198 971 198 842 84 c 0
 713 -30 713 -30 485 -30 c 0
 257 -30 257 -30 129 84 c 0
 1 198 1 198 0 399 c 0
 0 560 0 560 79 660 c 0
 158 760 158 760 309 793 c 1
203 420 m 0
 203 282 203 282 277 206 c 0
 352 129 352 129 486 129 c 0
 620 129 620 129 694 204 c 0
 768 280 768 280 768 419 c 0
 768 557 768 557 695 633 c 0
 621.948242188 709.012695312 621.948242188 709.012695312 487.502929688 709.012695312 c 0,0,0
 485.756835938 709.012695312 485.756835938 709.012695312 484 709 c 0
 348 709 348 709 276 634 c 0
 203 558 203 558 203 420 c 0
EndSplineSet
Validated: 524289
EndChar

StartChar: nine
Encoding: 57 57 29
Width: 967
GlyphClass: 2
Flags: HW
LayerCount: 3
Fore
SplineSet
399 -29 m 0
 256 -29 256 -29 109 31 c 1
 109 217 l 1
 237 141 237 141 391 141 c 0
 780 143 780 143 780 711 c 1
 733 610 733 610 648 557 c 0
 563 504 563 504 453 504 c 0
 236 504 236 504 118 637 c 0
 0 770 0 770 0 1012 c 0
 0 1254 0 1254 121 1388 c 0
 243 1520 243 1520 465 1520 c 0
 725 1520 725 1520 846 1333 c 0
 967 1146 967 1146 967 758 c 0
 967 370 967 370 821 170 c 0
 675.7265625 -29.0048828125 675.7265625 -29.0048828125 404.712890625 -29.0048828125 c 0,0,0
 403.358398438 -29.0048828125 403.358398438 -29.0048828125 402 -29 c 0
 400 -29 400 -29 399 -29 c 0
199 1012 m 0
 199 662 199 662 469 662 c 0
 597 662 597 662 671 756 c 0
 745 850 745 850 745 1012 c 0
 745 1174 745 1174 671 1268 c 0
 597 1362 597 1362 469 1362 c 0
 199 1362 199 1362 199 1012 c 0
EndSplineSet
Validated: 524289
EndChar

StartChar: colon
Encoding: 58 58 30
Width: 860
GlyphClass: 2
Flags: HW
LayerCount: 3
Fore
SplineSet
614 -168 m 29,0,-1
 585 -196 l 5,1,-1
 585 -168 l 5,2,-1
 614 -196 l 1029,3,-1
274 -508 m 29,0,-1
 245 -536 l 5,1,-1
 245 -508 l 5,2,-1
 274 -536 l 1029,3,-1
217 -479 m 1025
615 -466 m 29,0,-1
 587 -437 l 5,1,-1
 615 -437 l 5,2,-1
 587 -466 l 1029,3,-1
275 -125 m 29,0,-1
 247 -97 l 5,1,-1
 275 -97 l 5,2,-1
 247 -125 l 1029,3,-1
304 -69 m 1025
614 538 m 29,0,-1
 585 510 l 5,1,-1
 585 538 l 5,2,-1
 614 510 l 1029,3,-1
274 198 m 29,0,-1
 245 170 l 5,1,-1
 245 198 l 5,2,-1
 274 170 l 1029,3,-1
217 227 m 1025
615 240 m 29,0,-1
 587 269 l 5,1,-1
 615 269 l 5,2,-1
 587 240 l 1029,3,-1
275 581 m 29,0,-1
 247 609 l 5,1,-1
 275 609 l 5,2,-1
 247 581 l 1029,3,-1
304 637 m 1025
557 -139 m 1
 575 -122 575 -122 600 -122 c 0
 625 -122 625 -122 642 -139 c 0
 659 -156 659 -156 659 -182 c 0
 659 -208 659 -208 642 -224 c 1
 557 -139 l 1
217 -479 m 1
 302 -564 l 1
 285 -582 285 -582 260 -582 c 0
 235 -582 235 -582 217 -564 c 0
 199 -546 199 -546 199 -522 c 0
 199 -498 199 -498 217 -479 c 1
217 -479 m 1
 381 -316 l 1
 219 -154 l 1
 236 -171 236 -171 262 -171 c 0
 288 -171 288 -171 304 -154 c 0
 320 -137 320 -137 321 -112 c 0
 321 -87 321 -87 304 -69 c 1
 466 -231 l 1
 556 -140 l 1
 539 -158 539 -158 539 -182 c 0
 539 -206 539 -206 557 -224 c 0
 575 -242 575 -242 600 -242 c 0
 623.076923077 -242 623.076923077 -242 639.337278107 -226.662721893 c 1
 550 -316 l 1
 466 -231 l 1
 381 -316 l 1
 466 -400 l 1
 304.425240055 -561.574759945 l 1
 319 -546.074074074 319 -546.074074074 319 -522 c 0
 319 -496 319 -496 302 -479 c 0
 285 -462 285 -462 260 -462 c 0
 235 -462 235 -462 217 -479 c 1
304.425240055 -561.574759945 m 1
 302 -564 l 1
 303.259259259 -562.814814815 303.259259259 -562.814814815 304.425240055 -561.574759945 c 1
466 -400 m 1
 550 -316 l 1
 644 -409 l 2
 662 -427 662 -427 662 -452 c 0
 662 -477 662 -477 644 -494 c 0
 626 -511 626 -511 602 -511 c 0
 576 -511 576 -511 559 -494 c 2
 466 -400 l 1
639.337278107 -226.662721893 m 1
 640.692307692 -225.384615385 640.692307692 -225.384615385 642 -224 c 1
 639.337278107 -226.662721893 l 1
219 -154 m 1
 202 -137 202 -137 201 -112 c 0
 200 -87 200 -87 218 -69 c 0
 236 -51 236 -51 261 -51 c 0
 286 -51 286 -51 304 -69 c 1
 219 -154 l 1
557 567 m 1
 575 584 575 584 600 584 c 0
 625 584 625 584 642 567 c 0
 659 550 659 550 659 524 c 0
 659 498 659 498 642 482 c 1
 557 567 l 1
217 227 m 1
 302 142 l 1
 285 124 285 124 260 124 c 0
 235 124 235 124 217 142 c 0
 199 160 199 160 199 184 c 0
 199 208 199 208 217 227 c 1
217 227 m 1
 381 390 l 1
 219 552 l 1
 236 535 236 535 262 535 c 0
 288 535 288 535 304 552 c 0
 320 569 320 569 321 594 c 0
 321 619 321 619 304 637 c 1
 466 475 l 1
 556 566 l 1
 539 548 539 548 539 524 c 0
 539 500 539 500 557 482 c 0
 575 464 575 464 600 464 c 0
 623.076923077 464 623.076923077 464 639.337278107 479.337278107 c 1
 550 390 l 1
 466 475 l 1
 381 390 l 1
 466 306 l 1
 304.425240055 144.425240055 l 1
 319 159.925925926 319 159.925925926 319 184 c 0
 319 210 319 210 302 227 c 0
 285 244 285 244 260 244 c 0
 235 244 235 244 217 227 c 1
304.425240055 144.425240055 m 1
 302 142 l 1
 303.259259259 143.185185185 303.259259259 143.185185185 304.425240055 144.425240055 c 1
466 306 m 1
 550 390 l 1
 644 297 l 2
 662 279 662 279 662 254 c 0
 662 229 662 229 644 212 c 0
 626 195 626 195 602 195 c 0
 576 195 576 195 559 212 c 2
 466 306 l 1
639.337278107 479.337278107 m 1
 640.692307692 480.615384615 640.692307692 480.615384615 642 482 c 1
 639.337278107 479.337278107 l 1
219 552 m 1
 202 569 202 569 201 594 c 0
 200 619 200 619 218 637 c 0
 236 655 236 655 261 655 c 0
 286 655 286 655 304 637 c 1
 219 552 l 1
EndSplineSet
Validated: 527371
EndChar

StartChar: semicolon
Encoding: 59 59 31
Width: 614
GlyphClass: 2
Flags: HW
LayerCount: 3
Fore
SplineSet
494 498 m 29,0,-1
 465 470 l 5,1,-1
 465 498 l 5,2,-1
 494 470 l 1029,3,-1
153 158 m 29,0,-1
 125 130 l 5,1,-1
 125 158 l 5,2,-1
 153 130 l 1029,3,-1
97 187 m 1025
495 200 m 29,0,-1
 467 229 l 5,1,-1
 495 229 l 5,2,-1
 467 200 l 1029,3,-1
155 541 m 29,0,-1
 127 569 l 5,1,-1
 155 569 l 5,2,-1
 127 541 l 1029,3,-1
183 597 m 1025
438 -106 m 29,0,-1
 398 -106 l 5,1,-1
 418 -86 l 5,2,-1
 418 -126 l 1029,3,-1
318 -106 m 29,0,-1
 278 -106 l 5,1,-1
 298 -86 l 5,2,-1
 298 -126 l 1029,3,-1
298 -46 m 1025
398 -122 m 25,0,-1
 427 -93 l 25,1,-1
 427 -122 l 25,2,-1
 398 -93 l 1049,3,-1
44 -473 m 25,0,-1
 72 -445 l 25,1,-1
 72 -473 l 25,2,-1
 44 -445 l 1049,3,-1
-3 -459 m 0
 -3 -436 -3 -436 12 -420 c 0
 28 -404 28 -404 41 -400 c 1
 56 -453 56 -453 73 -518 c 1
 41 -526 41 -526 19 -504 c 0
 -3 -482 -3 -482 -3 -459 c 0
97 187 m 1
 182 102 l 1
 165 84 165 84 140 84 c 0
 115 84 115 84 97 102 c 0
 79 120 79 120 79 144 c 0
 79 168 79 168 97 187 c 1
97 187 m 1
 261 350 l 1
 99 512 l 1
 116 495 116 495 141 495 c 0
 166 495 166 495 183 512 c 0
 200 529 200 529 201 554 c 0
 201 579 201 579 183 597 c 1
 345 435 l 1
 437 527 l 1
 419 508 419 508 419 484 c 0
 419 460 419 460 437 442 c 0
 455 424 455 424 480 424 c 0
 503.076923077 424 503.076923077 424 519.337278107 439.337278107 c 1
 430 350 l 1
 524 257 l 2
 542 239 542 239 542 214 c 0
 542 189 542 189 524 172 c 0
 506 155 506 155 482 155 c 0
 456 155 456 155 439 172 c 2
 345 266 l 1
 430 350 l 1
 345 435 l 1
 261 350 l 1
 345 266 l 1
 184.657608151 104.673912496 l 1
 199 120.118605704 199 120.118605704 199 144 c 0
 199 170 199 170 182 187 c 0
 165 204 165 204 140 204 c 0
 115 204 115 204 97 187 c 1
184.657608151 104.673912496 m 1
 182 102 l 1
 183.385242191 103.303757356 183.385242191 103.303757356 184.657608151 104.673912496 c 1
519.337278107 439.337278107 m 1
 520.692307692 440.615384615 520.692307692 440.615384615 522 442 c 1
 519.337278107 439.337278107 l 1
522 442 m 1
 437 527 l 1
 455 544 455 544 480 544 c 0
 505 544 505 544 522 527 c 0
 539 510 539 510 539 484 c 0
 539 458 539 458 522 442 c 1
99 512 m 1
 82 529 82 529 81 554 c 0
 80 579 80 579 98 597 c 0
 116 615 116 615 140 615 c 0
 164 615 164 615 183 597 c 1
 141 554 141 554 99 512 c 1
358 -106 m 1
 358 -98 358 -98 356 -92 c 1
 358 -93 358 -93 360 -93 c 1
 358 -99 358 -99 358 -106 c 1
358 -106 m 1
 358 -130 358 -130 376 -148 c 0
 394 -166 394 -166 418 -166 c 1
 397 -166 l 1
 404 -168 404 -168 411 -168 c 0
 448 -168 448 -168 468 -139 c 1
 428 -272 428 -272 326 -375 c 0
 223 -477 223 -477 75 -517 c 1
 90 -512 90 -512 106 -496 c 0
 122 -480 122 -480 122 -459 c 0
 122 -438 122 -438 99 -415 c 0
 77 -393 77 -393 52 -397 c 1
 168 -362 168 -362 230 -300 c 0
 292 -238 292 -238 326 -166 c 1
 299 -166 l 1
 316 -166 316 -166 330 -157 c 1
 343 -128 343 -128 352 -98 c 1
 349 -116 349 -116 354 -127 c 1
 358 -117 358 -117 358 -106 c 1
360 -93 m 1
 364 -78 364 -78 378 -62 c 0
 392 -46 392 -46 418 -46 c 1
 400 -46 l 1
 434 -36 434 -36 456 -60 c 0
 478 -84 478 -84 478 -104 c 0
 478 -124 478 -124 468 -139 c 1
 472 -124 l 1
 457 -166 457 -166 419 -166 c 2
 418 -166 l 1
 418 -109 l 1
 389 -101 389 -101 360 -93 c 1
400 -46 m 1
 368 -54 368 -54 355 -87 c 1
 340 -46 340 -46 298 -46 c 1
 400 -46 l 1
298 -46 m 1
 298 -166 l 1
 274 -166 274 -166 256 -148 c 0
 238 -130 238 -130 238 -106 c 0
 238 -82 238 -82 256 -64 c 0
 274 -46 274 -46 298 -46 c 1
355 -87 m 1
 356 -89 356 -89 356 -92 c 1
 353 -92 353 -92 355 -87 c 1
EndSplineSet
Validated: 527371
EndChar

StartChar: less
Encoding: 60 60 32
Width: 1649
GlyphClass: 2
Flags: HW
LayerCount: 3
Fore
SplineSet
43 1073 m 29,0,-1
 77 1053 l 5,1,-1
 50 1045 l 5,2,-1
 70 1080 l 1029,3,-1
1498 233 m 29,0,-1
 1532 213 l 5,1,-1
 1505 205 l 5,2,-1
 1525 240 l 1029,3,-1
1485 171 m 1025
1606 1871 m 29,0,-1
 1572 1851 l 5,1,-1
 1579 1878 l 5,2,-1
 1599 1843 l 1029,3,-1
151 1031 m 29,0,-1
 117 1011 l 5,1,-1
 124 1038 l 5,2,-1
 144 1003 l 1029,3,-1
104 1073 m 1025
171 1068 m 1
 166 1072 166 1072 159 1075 c 1
 171 1068 l 1
30 1011 m 1
 8 1024 8 1024 2 1048 c 0
 -4 1072 -4 1072 8 1092 c 0
 21 1112 21 1112 45 1120 c 0
 69 1128 69 1128 90 1115 c 1
 30 1011 l 1
30 1011 m 1
 31 1010 31 1010 32 1010 c 1
 30 1011 l 1
1556 1911 m 1
 1559 1913 l 1
 1557 1912 1557 1912 1556 1911 c 1
1556 1911 m 1
 1537 1900 1537 1900 1531 1876 c 0
 1525 1852 1525 1852 1537 1830 c 0
 1549 1808 1549 1808 1573 1802 c 0
 1596.30273438 1796.17480469 1596.30273438 1796.17480469 1617.71972656 1808.26074219 c 1
 253 1020 l 1
 1544 275 l 1
 1545 275 l 1
 1567 262 1567 262 1573 238 c 0
 1579 214 1579 214 1567 192 c 0
 1555 170 1555 170 1531 164 c 0
 1507 158 1507 158 1485 171 c 2
 109 966 l 1
 139 955 139 955 164 969 c 1
 141 1009 141 1009 118 1048 c 1
 110 1013 110 1013 76 1005 c 1
 81 985 81 985 94 974 c 1
 32 1010 l 1
 51 999 51 999 76 1005 c 1
 73 1015 73 1015 73 1024 c 0
 73 1054 73 1054 104 1073 c 1
 111 1060 111 1060 118 1048 c 1
 122 1063 122 1063 118 1079 c 1
 113 1077 113 1077 107 1075 c 1
 117 1080 l 1
 110 1103 110 1103 90 1115 c 1
 133 1090 l 1
 1556 1911 l 1
107 1075 m 1
 105 1074 105 1074 104 1073 c 1
 107 1075 l 1
94 974 m 1
 101 968 101 968 109 966 c 1
 94 974 l 1
1617.71972656 1808.26074219 m 1
 1618.36035156 1808.62207031 1618.36035156 1808.62207031 1619 1809 c 1
 1617.71972656 1808.26074219 l 1
1619 1809 m 1
 1559 1913 l 1
 1581 1924 1581 1924 1605 1918 c 0
 1629 1912 1629 1912 1641 1890 c 0
 1653 1868 1653 1868 1647 1844 c 0
 1641 1820 1641 1820 1619 1809 c 1
EndSplineSet
Validated: 526347
EndChar

StartChar: equal
Encoding: 61 61 33
Width: 1057
GlyphClass: 2
Flags: HW
LayerCount: 3
Fore
SplineSet
0 524 m 1
 1057 524 l 1
 1057 352 l 1
 618 352 l 1
 618 183 l 1
 450 183 l 1
 450 352 l 1
 0 352 l 1
 0 524 l 1
462 1098 m 1
 630 1098 l 1
 630 930 l 1
 1057 930 l 1
 1057 760 l 1
 0 760 l 1
 0 930 l 1
 462 930 l 1
 462 1098 l 1
EndSplineSet
Validated: 1
EndChar

StartChar: greater
Encoding: 62 62 34
Width: 1649
GlyphClass: 2
Flags: HW
LayerCount: 3
Fore
SplineSet
43 167 m 29,0,-1
 77 187 l 5,1,-1
 70 160 l 5,2,-1
 50 194 l 1029,3,-1
1498 1007 m 29,0,-1
 1532 1027 l 5,1,-1
 1525 1000 l 5,2,-1
 1505 1034 l 1029,3,-1
1545 965 m 1025
1606 965 m 29,0,-1
 1572 985 l 5,1,-1
 1599 992 l 5,2,-1
 1579 958 l 1029,3,-1
151 1805 m 29,0,-1
 117 1825 l 5,1,-1
 144 1832 l 5,2,-1
 124 1798 l 1029,3,-1
164 1867 m 1025
104 1763 m 1
 83 1775 83 1775 76 1799 c 0
 70 1823 70 1823 82 1845 c 0
 94 1867 94 1867 118 1873 c 0
 142 1879 142 1879 164 1867 c 1
 134 1815 134 1815 104 1763 c 1
90 125 m 1
 68 114 68 114 44 120 c 0
 20 126 20 126 8 147 c 0
 -4 168 -4 168 2 192 c 0
 8 216 8 216 30 229 c 1
 90 125 l 1
90 125 m 1
 93 127 l 1
 92 126 92 126 90 125 c 1
30 229 m 1
 51 241 51 241 75 235 c 0
 99 229 99 229 111 207 c 0
 123 185 123 185 118 162 c 0
 113 139 113 139 93 127 c 1
 1516 948 l 1
 1490 963 l 2
 1483 966 1483 966 1478 970 c 2
 1396 1017 l 1
 30 229 l 1
1396 1017 m 1
 105 1763 l 1
 126 1752 126 1752 150 1758 c 0
 174 1764 174 1764 186 1785 c 0
 198 1806 198 1806 192 1830 c 0
 186 1854 186 1854 164 1867 c 1
 1619 1027 l 2
 1641 1014 1641 1014 1647 990 c 0
 1653 966 1653 966 1641 945 c 0
 1629 924 1629 924 1605 917 c 0
 1581 910 1581 910 1559 923 c 2
 1516 948 l 1
 1532 957 l 2
 1533 958 1533 958 1521 955 c 0
 1509 952 1509 952 1489 964 c 0
 1469 976 1469 976 1460 992 c 0
 1451 1008 1451 1008 1457 1032 c 0
 1463 1056 1463 1056 1485 1069 c 1
 1396 1017 l 1
EndSplineSet
Validated: 2059
EndChar

StartChar: question
Encoding: 63 63 35
Width: 744
VWidth: 0
GlyphClass: 2
Flags: HW
LayerCount: 3
Fore
SplineSet
60 1385 m 29,0,-1
 60 1345 l 5,1,-1
 40 1365 l 5,2,-1
 80 1365 l 1029,3,-1
360 412 m 29,0,-1
 360 372 l 5,1,-1
 340 392 l 5,2,-1
 380 392 l 1029,3,-1
519 -123 m 29,0,-1
 491 -151 l 5,1,-1
 491 -123 l 5,2,-1
 519 -151 l 1029,3,-1
179 -463 m 29,0,-1
 151 -491 l 5,1,-1
 151 -463 l 5,2,-1
 179 -491 l 1029,3,-1
123 -434 m 1025
521 -421 m 29,0,-1
 493 -392 l 5,1,-1
 521 -392 l 5,2,-1
 493 -421 l 1029,3,-1
181 -80 m 29,0,-1
 153 -52 l 5,1,-1
 181 -52 l 5,2,-1
 153 -80 l 1029,3,-1
209 -24 m 1025
124 -109 m 1
 107 -92 107 -92 107 -67 c 0
 106 -42 106 -42 124 -24 c 0
 142 -6 142 -6 166 -6 c 0
 190 -6 190 -6 209 -24 c 1
 124 -109 l 1
120 1362 m 0
 120 1390 120 1390 102 1408 c 0
 84 1426 84 1426 65 1427 c 0
 47 1427 47 1427 29 1416 c 1
 28 1419 l 1
 227 1536 227 1536 356 1536 c 0
 379 1536 379 1536 399 1532 c 0
 697 1481 697 1481 740 1195 c 0
 744 1170 744 1170 744 1145 c 0
 744 954 744 954 519 768 c 0
 451 711 451 711 426 625 c 0
 420 606 420 606 419 398 c 1
 416 420 416 420 400 436 c 0
 384 452 384 452 360 452 c 0
 336 452 336 452 318 436 c 0
 300 420 300 420 300 396 c 1
 300 623 l 2
 300 716 300 716 444 852 c 1
 616 996 616 996 616 1145 c 0
 616 1164 616 1164 613 1182 c 0
 584 1384 584 1384 392 1411 c 0
 379 1413 379 1413 364 1413 c 0
 255 1413 255 1413 94 1312 c 1
 92 1315 l 1
 78 1305 78 1305 57 1305 c 0
 36 1305 36 1305 18 1323 c 0
 0 1341 0 1341 0 1369 c 0
 0 1397 0 1397 29 1416 c 1
 92 1315 l 1
 120 1334 120 1334 120 1362 c 0
300 392 m 1
 420 392 l 1
 420 368 420 368 402 350 c 0
 384 332 384 332 360 332 c 0
 336 332 336 332 315 352 c 0
 294 372 294 372 300 392 c 1
456 -271 m 1
 371 -186 l 1
 460.0816 -96.9184 l 1
 444 -113.92 444 -113.92 444 -136 c 0
 444 -160 444 -160 462 -178 c 0
 480 -196 480 -196 506 -196 c 0
 530.074074074 -196 530.074074074 -196 545.574759945 -181.425240055 c 1
 456 -271 l 1
456 -271 m 1
 549 -364 l 2
 568 -382 568 -382 568 -407 c 0
 568 -432 568 -432 550 -449 c 0
 532 -466 532 -466 507 -466 c 0
 482 -466 482 -466 474 -458 c 2
 371 -355 l 1
 456 -271 l 1
545.574759945 -181.425240055 m 1
 546.814814815 -180.259259259 546.814814815 -180.259259259 548 -179 c 1
 545.574759945 -181.425240055 l 1
460.0816 -96.9184 m 1
 463 -94 l 1
 461.48 -95.44 461.48 -95.44 460.0816 -96.9184 c 1
548 -179 m 1
 463 -94 l 1
 481 -76 481 -76 506 -76 c 0
 531 -76 531 -76 548 -93 c 0
 565 -110 565 -110 565 -136 c 0
 565 -162 565 -162 548 -179 c 1
123 -434 m 1
 208 -519 l 1
 225 -502 225 -502 225 -476 c 0
 226 -450 226 -450 208 -433 c 0
 190 -416 190 -416 166 -416 c 0
 142 -416 142 -416 123 -434 c 1
123 -434 m 2
 286 -271 l 1
 125 -109 l 1
 142 -126 142 -126 167 -126 c 0
 192 -126 192 -126 209 -109 c 0
 226 -92 226 -92 227 -67 c 0
 227 -42 227 -42 209 -24 c 1
 371 -186 l 1
 286 -271 l 1
 371 -355 l 1
 208 -519 l 2
 192 -536 192 -536 166 -536 c 0
 140 -536 140 -536 122 -518 c 0
 104 -500 104 -500 105 -476 c 0
 105 -452 105 -452 123 -434 c 2
EndSplineSet
Validated: 526347
EndChar

StartChar: at
Encoding: 64 64 36
Width: 983
GlyphClass: 2
Flags: HW
LayerCount: 3
Fore
SplineSet
851 -94 m 29,0,-1
 851 -134 l 5,1,-1
 831 -114 l 5,2,-1
 871 -114 l 1029,3,-1
635 -91 m 0
 737 -91 737 -91 830 -56 c 1
 831 -58 l 1
 792 -74 792 -74 792 -106 c 0
 792 -138 792 -138 809 -156 c 0
 826 -174 826 -174 844 -174 c 0
 862 -174 862 -174 871 -171 c 1
 871 -172 l 1
 765 -214 765 -214 663 -214 c 0
 358 -214 358 -214 178 -15 c 0
 0 184 0 184 0 520 c 0
 0 856 0 856 160 1054 c 0
 320 1252 320 1252 591 1252 c 0
 771 1252 771 1252 877 1138 c 0
 983 1024 983 1024 983 833 c 0
 983 818 983 818 983 684 c 0
 983 550 983 550 966 449 c 1
 931 305 931 305 843 234 c 0
 805 204 805 204 762 180 c 0
 720.719726562 156.959960938 720.719726562 156.959960938 658.243164062 156.959960938 c 0,0,0
 655.639648438 156.959960938 655.639648438 156.959960938 653 157 c 0
 650 157 650 157 648 157 c 0
 646 157 646 157 644 157 c 0
 508 157 508 157 419 260 c 0
 329 364 329 364 329 525 c 0
 329 686 329 686 418 789 c 0
 508 892 508 892 647 893 c 0
 725 892 725 892 792 852 c 0
 859 812 859 812 873 789 c 1
 873 794 873 794 873 799 c 0
 873 948 873 948 785 1049 c 0
 716 1130 716 1130 586 1130 c 0
 375 1130 375 1130 251 966 c 0
 127 802 127 802 127 522 c 0
 127 242 127 242 268 75 c 0
 409 -91 409 -91 635 -91 c 0
809 347 m 0
 864 412 864 412 864 524 c 0
 864 636 864 636 809 702 c 0
 754 768 754 768 662 768 c 0
 570 768 570 768 516 702 c 0
 462 636 462 636 462 524 c 0
 462 412 462 412 516 347 c 0
 571 281 571 281 662 281 c 0
 753 281 753 281 809 347 c 0
871 -171 m 1
 831 -58 l 1
 866 -44 866 -44 888 -66 c 0
 910 -88 910 -88 910 -122 c 0
 910 -156 910 -156 871 -171 c 1
EndSplineSet
Validated: 524291
EndChar

StartChar: A
Encoding: 65 65 37
Width: 626
VWidth: 0
GlyphClass: 2
Flags: HW
LayerCount: 3
Fore
SplineSet
523 668 m 25,0,-1
 503 633 l 25,1,-1
 495 660 l 25,2,-1
 530 640 l 1049,3,-1
183 79 m 25,0,-1
 163 44 l 25,1,-1
 155 71 l 25,2,-1
 190 51 l 1049,3,-1
121 91 m 1025
73 2067 m 25,0,-1
 53 2033 l 25,1,-1
 46 2060 l 25,2,-1
 80 2040 l 1049,3,-1
553 2077 m 25,0,-1
 573 2043 l 25,1,-1
 546 2050 l 25,2,-1
 580 2070 l 1049,3,-1
320 2412 m 25,0,-1
 320 2372 l 25,1,-1
 300 2392 l 25,2,-1
 340 2392 l 1049,3,-1
615 2090 m 1
 626 2071 626 2071 626 2049 c 0
 626 2027 626 2027 600 2012 c 0
 574 1997 574 1997 552 1997 c 0
 530 1997 530 1997 511 2030 c 1
 615 2090 l 1
320 2332 m 0
 380 2332 380 2332 380 2392 c 0
 380 2412 380 2412 372 2426 c 1
 607 2102 l 1
 589 2122 589 2122 570 2122 c 0
 551 2122 551 2122 530 2110 c 0
 509 2098 509 2098 504 2074 c 0
 499 2050 499 2050 510 2031 c 1
 320 2301 l 1
 116 2021 l 1
 127 2041 127 2041 127 2062 c 0
 127 2083 127 2083 102 2097 c 0
 77 2111 77 2111 56 2111 c 0
 36 2111 36 2111 18 2090 c 1
 268 2426 l 1
 270 2426 l 1
 260 2410 260 2410 260 2392 c 0
 260 2332 260 2332 320 2332 c 0
115 2020 m 1
 96 1987 96 1987 74 1987 c 0
 52 1987 52 1987 26 2002 c 0
 0 2017 0 2017 0 2039 c 0
 0 2061 0 2061 11 2080 c 1
 115 2020 l 1
121 91 m 1
 173 61 173 61 225 31 c 1
 206 -1 206 -1 184 -1 c 0
 162 -1 162 -1 136 14 c 0
 110 29 110 29 110 51 c 0
 110 72 110 72 121 91 c 1
225 31 m 1
 236 50 236 50 236 72 c 0
 236 94 236 94 207 111 c 0
 179 128 179 128 156 120 c 0
 133 112 133 112 121 92 c 1
 461 680 l 1
 450 661 450 661 450 639 c 0
 450 617 450 617 476 602 c 0
 502 587 502 587 524 587 c 0
 546 587 546 587 565 620 c 1
 225 31 l 1
565 620 m 1
 513 650 513 650 461 680 c 1
 479.518554688 710.864257812 479.518554688 710.864257812 507.563476562 710.864257812 c 0,0,0
 524.950195312 710.864257812 524.950195312 710.864257812 546 699 c 0
 575 682 575 682 576 661 c 0
 576 639 576 639 565 620 c 1
270 2426 m 1
 287 2452 287 2452 321 2452 c 0
 355 2452 355 2452 372 2426 c 1
 270 2426 l 1
607 2102 m 1
 611 2098 611 2098 613 2092 c 1
 607 2102 l 1
11 2080 m 1
 12 2082 l 1
 12 2081 12 2081 11 2080 c 1
EndSplineSet
Validated: 526339
EndChar

StartChar: B
Encoding: 66 66 38
Width: 737
VWidth: 3070
GlyphClass: 2
Flags: HW
LayerCount: 3
Fore
SplineSet
70 2860 m 29,0,-1
 50 2826 l 5,1,-1
 43 2853 l 5,2,-1
 77 2833 l 1029,3,-1
550 2870 m 29,0,-1
 570 2836 l 5,1,-1
 543 2843 l 5,2,-1
 577 2863 l 1029,3,-1
317 3205 m 29,0,-1
 317 3165 l 5,1,-1
 297 3185 l 5,2,-1
 337 3185 l 1029,3,-1
349 1770 m 29,0,-1
 349 1730 l 5,1,-1
 329 1750 l 5,2,-1
 369 1750 l 1029,3,-1
349 90 m 29,0,-1
 349 50 l 5,1,-1
 329 70 l 5,2,-1
 369 70 l 1029,3,-1
289 70 m 1025
349 891 m 25,0,-1
 349 851 l 25,1,-1
 329 871 l 25,2,-1
 369 871 l 1049,3,-1
349 886 m 25,0,-1
 349 846 l 25,1,-1
 329 866 l 25,2,-1
 369 866 l 1049,3,-1
15 2883 m 1
 265 3219 l 1
 268 3219 l 1
 257 3204 257 3204 257 3182 c 0
 257 3160 257 3160 275 3142 c 0
 293 3124 293 3124 317 3124 c 0
 341 3124 341 3124 359 3142 c 0
 377 3160 377 3160 377 3182 c 0
 377 3204 377 3204 366 3219 c 1
 369 3219 l 1
 604.764648438 2892.32617188 l 1
 594.7421875 2906.0703125 594.7421875 2906.0703125 573 2912 c 0
 551 2918 551 2918 530 2906 c 0
 509 2894 509 2894 503 2869 c 0
 497 2845 497 2845 507 2824 c 1
 317 3094 l 1
 113 2814 l 1
 125 2834 125 2834 118 2858 c 0
 111 2882 111 2882 90 2894 c 0
 69 2906 69 2906 47 2901 c 0
 25 2896 25 2896 15 2883 c 1
618 1280 m 0
 618 1400 618 1400 514 1400 c 0
 409 1400 409 1400 409 1232 c 1
 409 1499 l 1
 289 1442 289 1442 289 1235 c 1
 289 1750 l 1
 289 1726 289 1726 307 1708 c 0
 325 1690 325 1690 349 1690 c 0
 373 1690 373 1690 391 1708 c 0
 409 1726 409 1726 409 1750 c 1
 409 1499 l 1
 453 1520 453 1520 485 1520 c 0
 517 1520 517 1520 520 1520 c 0
 625 1519 625 1519 681 1439 c 0
 737 1359 737 1359 737 1283 c 0
 737 1207 737 1207 690 1137 c 0
 643 1067 643 1067 409 848 c 1
 409 859.080078125 l 2
 411.888671875 872.444335938 411.888671875 872.444335938 409 883.5625 c 2
 409 1009 l 1
 456 1057 456 1057 503 1105 c 0
 618 1220 618 1220 618 1280 c 0
612 2883 m 1
 624 2862 624 2862 618 2838 c 0
 612 2814 612 2814 590 2802 c 0
 568 2790 568 2790 544 2796 c 0
 520 2802 520 2802 508 2823 c 1
 612 2883 l 1
112 2813 m 1
 100 2792 100 2792 76 2785 c 0
 52 2778 52 2778 30 2790 c 0
 8 2802 8 2802 2 2826 c 0
 -4 2850 -4 2850 8 2873 c 1
 112 2813 l 1
604.764648438 2892.32617188 m 1
 605 2892 l 1
 604.8828125 2892.1640625 604.8828125 2892.1640625 604.764648438 2892.32617188 c 1
605 2892 m 1
 608 2889 608 2889 611 2885 c 1
 605 2892 l 1
366 3219 m 1
 268 3219 l 1
 287 3245 287 3245 317 3245 c 0
 347 3245 347 3245 366 3219 c 1
406.103515625 891.415039062 m 1
 409 882.14453125 409 882.14453125 409 871 c 1
 409 883.5625 l 2
 407.940429688 887.639648438 407.940429688 887.639648438 406.103515625 891.415039062 c 1
406.103515625 891.415039062 m 1
 402.8046875 898.1953125 402.8046875 898.1953125 397 904 c 0
 375 926 375 926 349 926 c 0
 323 926 323 926 307 910 c 0
 291 894 291 894 289 871 c 1
 289 898 289 898 306 914 c 0
 323 930 323 930 349 930 c 0
 375 930 375 930 392 914 c 0
 401.983398438 904.604492188 401.983398438 904.604492188 406.103515625 891.415039062 c 1
405 846 m 1
 393 811 393 811 357 811 c 0
 292 811 292 811 289 865 c 1
 290 806 290 806 359 806 c 0
 397 806 397 806 407 846 c 1
 405 846 l 1
405 846 m 1
 407.360351562 852.068359375 407.360351562 852.068359375 408.697265625 857.739257812 c 1
 408.221679688 851.49609375 408.221679688 851.49609375 407 846 c 1
 408 847 408 847 409 848 c 1
 409 70 l 2
 409 46 409 46 391 28 c 0
 373 10 373 10 349 10 c 0
 325 10 325 10 307 28 c 0
 289 46 289 46 289 70 c 2
 289 865 l 1
 405 846 l 1
408.697265625 857.739257812 m 1
 408.85546875 858.412109375 408.85546875 858.412109375 409 859.080078125 c 2
 409 866 l 1
 409 861.717773438 409 861.717773438 408.697265625 857.739257812 c 1
409 1750 m 1
 289 1750 l 1
 289 1774 289 1774 307 1792 c 0
 325 1810 325 1810 349 1810 c 0
 373 1810 373 1810 391 1792 c 0
 409 1774 409 1774 409 1763 c 2
 409 1750 l 1
8 2873 m 1
 9 2875 l 1
 9 2874 9 2874 8 2873 c 1
EndSplineSet
Validated: 527371
EndChar

StartChar: C
Encoding: 67 67 39
Width: 1246
GlyphClass: 2
Flags: HW
LayerCount: 3
Fore
SplineSet
70 2861 m 29,0,-1
 50 2827 l 5,1,-1
 43 2854 l 5,2,-1
 77 2834 l 1029,3,-1
550 2871 m 29,0,-1
 570 2837 l 5,1,-1
 543 2844 l 5,2,-1
 577 2864 l 1029,3,-1
317 3206 m 29,0,-1
 317 3166 l 5,1,-1
 297 3186 l 5,2,-1
 337 3186 l 1029,3,-1
15 2884 m 1
 265 3220 l 1
 268 3220 l 1
 254 3202 254 3202 254 3183 c 0
 254 3164 254 3164 273 3145 c 0
 292 3126 292 3126 317 3126 c 0
 342 3126 342 3126 361 3145 c 0
 380 3164 380 3164 380 3183 c 0
 380 3202 380 3202 366 3220 c 1
 369 3220 l 1
 605 2893 l 1
 594 2906 594 2906 572 2912 c 0
 550 2918 550 2918 529 2906 c 0
 508 2894 508 2894 502 2870 c 0
 496 2846 496 2846 507 2825 c 1
 317 3095 l 1
 113 2815 l 1
 125 2836 125 2836 118 2860 c 0
 110 2884 110 2884 90 2896 c 0
 70 2908 70 2908 48 2902 c 0
 26 2896 26 2896 15 2884 c 1
1116 60 m 0
 1174 6 1174 6 1210 -76 c 0
 1246 -158 1246 -158 1246 -256 c 0
 1246 -354 1246 -354 1207 -442 c 0
 1168 -530 1168 -530 1108 -576 c 0
 1048 -622 1048 -622 991 -650 c 0
 934 -678 934 -678 858 -678 c 0
 782 -678 782 -678 724 -650 c 0
 666 -622 666 -622 606 -574 c 0
 548 -524 548 -524 512 -440 c 0
 476 -356 476 -356 476 -255 c 0
 476 -54 476 -54 600 57 c 0
 724 168 724 168 861 168 c 0
 998 168 998 168 1116 60 c 0
861 -515 m 0
 1041 -515 1041 -515 1084 -350 c 0
 1095 -308 1095 -308 1095 -227 c 0
 1095 -147 1095 -147 1047 -74 c 0
 994 11 994 11 864 11 c 2
 862 11 l 2
 861 11 861 11 859 11 c 0
 745 11 745 11 689 -74 c 0
 632 -160 632 -160 632 -262 c 0
 632 -364 632 -364 690 -440 c 0
 748 -515 748 -515 861 -515 c 0
612 2884 m 1
 624 2862 624 2862 618 2838 c 0
 612 2814 612 2814 590 2802 c 0
 568 2790 568 2790 544 2796 c 0
 520 2802 520 2802 508 2824 c 1
 612 2884 l 1
112 2814 m 1
 100 2792 100 2792 76 2786 c 0
 52 2780 52 2780 30 2792 c 0
 8 2804 8 2804 2 2828 c 0
 -4 2852 -4 2852 8 2874 c 1
 112 2814 l 1
605 2893 m 1
 608 2890 608 2890 611 2886 c 1
 605 2893 l 1
366 3220 m 1
 268 3220 l 1
 287 3246 287 3246 317 3246 c 0
 347 3246 347 3246 366 3220 c 1
8 2874 m 1
 9 2876 l 1
 9 2875 9 2875 8 2874 c 1
EndSplineSet
Validated: 2051
EndChar

StartChar: D
Encoding: 68 68 40
Width: 1124
VWidth: 0
GlyphClass: 2
Flags: HW
LayerCount: 3
Fore
SplineSet
60 -66 m 25,0,-1
 60 -26 l 25,1,-1
 80 -46 l 25,2,-1
 40 -46 l 1049,3,-1
318 -522 m 25,0,-1
 283 -502 l 25,1,-1
 311 -494 l 25,2,-1
 291 -529 l 1049,3,-1
574 2861 m 29,0,-1
 554 2827 l 5,1,-1
 547 2854 l 5,2,-1
 581 2834 l 1029,3,-1
1054 2871 m 29,0,-1
 1074 2837 l 5,1,-1
 1047 2844 l 5,2,-1
 1081 2864 l 1029,3,-1
821 3206 m 29,0,-1
 821 3166 l 5,1,-1
 801 3186 l 5,2,-1
 841 3186 l 1029,3,-1
519 2884 m 1
 769 3220 l 1
 772 3220 l 1
 758 3202 758 3202 758 3183 c 0
 758 3164 758 3164 777 3145 c 0
 796 3126 796 3126 821 3126 c 0
 846 3126 846 3126 865 3145 c 0
 884 3164 884 3164 884 3183 c 0
 884 3202 884 3202 870 3220 c 1
 873 3220 l 1
 1109 2893 l 1
 1098 2906 1098 2906 1076 2912 c 0
 1054 2918 1054 2918 1033 2906 c 0
 1012 2894 1012 2894 1006 2870 c 0
 1000 2846 1000 2846 1011 2825 c 1
 821 3095 l 1
 617 2815 l 1
 629 2836 629 2836 622 2860 c 0
 614 2884 614 2884 594 2896 c 0
 574 2908 574 2908 552 2902 c 0
 530 2896 530 2896 519 2884 c 1
60 -106 m 0
 86 -106 86 -106 103 -89 c 0
 120 -72 120 -72 120 -46 c 1
 120 -336 120 -336 331 -460 c 1
 311 -449 311 -449 290 -449 c 0
 268 -449 268 -449 253 -474 c 0
 238 -499 238 -499 239 -521 c 0
 239 -542 239 -542 266 -560 c 1
 0 -403 0 -403 0 -46 c 1
 0 -74 0 -74 17 -90 c 0
 34 -106 34 -106 60 -106 c 0
352 -542 m 0
 339 -565 339 -565 316 -571 c 0
 293 -577 293 -577 271 -564 c 1
 331 -460 l 1
 353 -473 353 -473 359 -496 c 0
 365 -519 365 -519 352 -542 c 0
1116 2884 m 1
 1128 2862 1128 2862 1122 2838 c 0
 1116 2814 1116 2814 1094 2802 c 0
 1072 2790 1072 2790 1048 2796 c 0
 1024 2802 1024 2802 1012 2824 c 1
 1116 2884 l 1
616 2814 m 1
 604 2792 604 2792 580 2786 c 0
 556 2780 556 2780 534 2792 c 0
 512 2804 512 2804 506 2828 c 0
 500 2852 500 2852 512 2874 c 1
 616 2814 l 1
1109 2893 m 1
 1112 2890 1112 2890 1115 2886 c 1
 1109 2893 l 1
870 3220 m 1
 772 3220 l 1
 791 3246 791 3246 821 3246 c 0
 851 3246 851 3246 870 3220 c 1
0 -46 m 1
 0 14 0 14 60 14 c 0
 120 14 120 14 120 -46 c 1
 0 -46 l 1
512 2874 m 1
 513 2876 l 1
 513 2875 513 2875 512 2874 c 1
EndSplineSet
Validated: 2051
EndChar

StartChar: E
Encoding: 69 69 41
Width: 628
VWidth: 0
GlyphClass: 2
Flags: HW
LayerCount: 3
Fore
SplineSet
558.235351562 104 m 29,0,-1
 518.235351562 101 l 5,1,-1
 537.235351562 123 l 5,2,-1
 540.235351562 83 l 1029,3,-1
79.2353515625 62 m 29,0,-1
 39.2353515625 59 l 5,1,-1
 57.2353515625 81 l 5,2,-1
 61.2353515625 41 l 1029,3,-1
54.2353515625 120 m 1025
78.2353515625 2069 m 29,0,-1
 58.2353515625 2035 l 5,1,-1
 51.2353515625 2062 l 5,2,-1
 85.2353515625 2042 l 1029,3,-1
558.235351562 2079 m 29,0,-1
 578.235351562 2045 l 5,1,-1
 551.235351562 2052 l 5,2,-1
 585.235351562 2072 l 1029,3,-1
325.235351562 2414 m 29,0,-1
 325.235351562 2374 l 5,1,-1
 305.235351562 2394 l 5,2,-1
 345.235351562 2394 l 1029,3,-1
64.2353515625 1 m 1
 40.2353515625 0 40.2353515625 0 21.2353515625 16 c 0
 2.2353515625 32 2.2353515625 32 0.2353515625 56 c 0
 -1.7646484375 80 -1.7646484375 80 13.2353515625 99 c 0
 29.2353515625 118 29.2353515625 118 54.2353515625 120 c 1
 64.2353515625 1 l 1
23.2353515625 2092 m 1
 273.235351562 2428 l 1
 276.235351562 2428 l 1
 262.235351562 2410 262.235351562 2410 262.235351562 2391 c 0
 262.235351562 2372 262.235351562 2372 281.235351562 2353 c 0
 300.235351562 2334 300.235351562 2334 325.235351562 2334 c 0
 350.235351562 2334 350.235351562 2334 369.235351562 2353 c 0
 388.235351562 2372 388.235351562 2372 388.235351562 2391 c 0
 388.235351562 2410 388.235351562 2410 374.235351562 2428 c 1
 377.235351562 2428 l 1
 613.235351562 2101 l 1
 602.235351562 2114 602.235351562 2114 580.235351562 2120 c 0
 558.235351562 2126 558.235351562 2126 537.235351562 2114 c 0
 516.235351562 2102 516.235351562 2102 510.235351562 2078 c 0
 504.235351562 2054 504.235351562 2054 515.235351562 2033 c 1
 325.235351562 2303 l 1
 121.235351562 2023 l 1
 133.235351562 2044 133.235351562 2044 126.235351562 2068 c 0
 118.235351562 2092 118.235351562 2092 98.2353515625 2104 c 0
 78.2353515625 2116 78.2353515625 2116 56.2353515625 2110 c 0
 34.2353515625 2104 34.2353515625 2104 23.2353515625 2092 c 1
620.235351562 2092 m 1
 632.235351562 2070 632.235351562 2070 626.235351562 2046 c 0
 620.235351562 2022 620.235351562 2022 598.235351562 2010 c 0
 576.235351562 1998 576.235351562 1998 552.235351562 2004 c 0
 528.235351562 2010 528.235351562 2010 516.235351562 2032 c 1
 620.235351562 2092 l 1
120.235351562 2022 m 1
 108.235351562 2000 108.235351562 2000 84.2353515625 1994 c 0
 60.2353515625 1988 60.2353515625 1988 38.2353515625 2000 c 0
 16.2353515625 2012 16.2353515625 2012 10.2353515625 2036 c 0
 4.2353515625 2060 4.2353515625 2060 16.2353515625 2082 c 1
 120.235351562 2022 l 1
531.646484375 161.948242188 m 1
 508.0390625 159.766601562 508.0390625 159.766601562 492.235351562 141 c 0
 476.235351562 122 476.235351562 122 478.235351562 98 c 0
 480.235351562 74 480.235351562 74 500.235351562 58 c 0
 520.235351562 42 520.235351562 42 544.235351562 43 c 1
 71.5361328125 1.4658203125 l 1
 92.0361328125 4.2509765625 92.0361328125 4.2509765625 106.235351562 22 c 0
 122.235351562 42 122.235351562 42 119.235351562 66 c 0
 117.235351562 90 117.235351562 90 98.2353515625 106 c 0
 79.2353515625 122 79.2353515625 122 54.2353515625 120 c 1
 531.646484375 161.948242188 l 1
531.646484375 161.948242188 m 1
 532.235351562 162 l 1
 531.940429688 161.975585938 531.940429688 161.975585938 531.646484375 161.948242188 c 1
71.5361328125 1.4658203125 m 1
 66.2353515625 1 l 1
 68.9365234375 1.1123046875 68.9365234375 1.1123046875 71.5361328125 1.4658203125 c 1
544.235351562 43 m 1
 533.235351562 162 l 1
 558.235351562 164 558.235351562 164 577.235351562 148 c 0
 596.235351562 132 596.235351562 132 598.235351562 108 c 0
 600.235351562 84 600.235351562 84 584.235351562 64 c 0
 568.235351562 44 568.235351562 44 544.235351562 43 c 1
613.235351562 2101 m 1
 616.235351562 2098 616.235351562 2098 619.235351562 2094 c 1
 613.235351562 2101 l 1
374.235351562 2428 m 1
 276.235351562 2428 l 1
 295.235351562 2454 295.235351562 2454 325.235351562 2454 c 0
 355.235351562 2454 355.235351562 2454 374.235351562 2428 c 1
16.2353515625 2082 m 1
 17.2353515625 2084 l 1
 17.2353515625 2083 17.2353515625 2083 16.2353515625 2082 c 1
EndSplineSet
Validated: 526339
EndChar

StartChar: F
Encoding: 70 70 42
Width: 620
VWidth: 0
GlyphClass: 2
Flags: HW
LayerCount: 3
Fore
SplineSet
442 745 m 29,0,-1
 442 705 l 5,1,-1
 422 725 l 5,2,-1
 462 725 l 1029,3,-1
442 65 m 29,0,-1
 442 25 l 5,1,-1
 422 45 l 5,2,-1
 462 45 l 1029,3,-1
382 45 m 1025
70 3161 m 29,0,-1
 50 3127 l 5,1,-1
 43 3154 l 5,2,-1
 77 3134 l 1029,3,-1
550 3171 m 29,0,-1
 570 3137 l 5,1,-1
 543 3144 l 5,2,-1
 577 3164 l 1029,3,-1
317 3506 m 29,0,-1
 317 3466 l 5,1,-1
 297 3486 l 5,2,-1
 337 3486 l 1029,3,-1
15 3184 m 1
 265 3520 l 1
 268 3520 l 1
 254 3502 254 3502 254 3483 c 0
 254 3464 254 3464 273 3445 c 0
 292 3426 292 3426 317 3426 c 0
 342 3426 342 3426 361 3445 c 0
 380 3464 380 3464 380 3483 c 0
 380 3502 380 3502 366 3520 c 1
 369 3520 l 1
 605 3193 l 1
 594 3206 594 3206 572 3212 c 0
 550 3218 550 3218 529 3206 c 0
 508 3194 508 3194 502 3170 c 0
 496 3146 496 3146 507 3125 c 1
 317 3395 l 1
 113 3115 l 1
 125 3136 125 3136 118 3160 c 0
 110 3184 110 3184 90 3196 c 0
 70 3208 70 3208 48 3202 c 0
 26 3196 26 3196 15 3184 c 1
612 3184 m 1
 624 3162 624 3162 618 3138 c 0
 612 3114 612 3114 590 3102 c 0
 568 3090 568 3090 544 3096 c 0
 520 3102 520 3102 508 3124 c 1
 612 3184 l 1
112 3114 m 1
 100 3092 100 3092 76 3086 c 0
 52 3080 52 3080 30 3092 c 0
 8 3104 8 3104 2 3128 c 0
 -4 3152 -4 3152 8 3174 c 1
 112 3114 l 1
502 725 m 1
 382 725 l 1
 382 750 382 750 400 768 c 0
 418 786 418 786 442 786 c 0
 466 786 466 786 484 768 c 0
 502 750 502 750 502 738 c 2
 502 725 l 1
502 725 m 1
 502 45 l 2
 502 20 502 20 484 2 c 0
 466 -16 466 -16 442 -16 c 0
 418 -16 418 -16 400 2 c 0
 382 20 382 20 382 45 c 2
 382 725 l 1
 382 700 382 700 400 682 c 0
 418 664 418 664 442 664 c 0
 466 664 466 664 484 682 c 0
 502 700 502 700 502 725 c 1
605 3193 m 1
 608 3190 608 3190 611 3186 c 1
 605 3193 l 1
366 3520 m 1
 268 3520 l 1
 287 3546 287 3546 317 3546 c 0
 347 3546 347 3546 366 3520 c 1
8 3174 m 1
 9 3176 l 1
 9 3175 9 3175 8 3174 c 1
EndSplineSet
Validated: 2051
EndChar

StartChar: G
Encoding: 71 71 43
Width: 714
VWidth: 0
GlyphClass: 2
Flags: HW
LayerCount: 3
Fore
SplineSet
654 1744 m 29,0,-1
 654 1704 l 5,1,-1
 634 1724 l 5,2,-1
 674 1724 l 1029,3,-1
654 64 m 29,0,-1
 654 24 l 5,1,-1
 634 44 l 5,2,-1
 674 44 l 1029,3,-1
594 44 m 1025
70 2861 m 29,0,-1
 50 2827 l 5,1,-1
 43 2854 l 5,2,-1
 77 2834 l 1029,3,-1
550 2871 m 29,0,-1
 570 2837 l 5,1,-1
 543 2844 l 5,2,-1
 577 2864 l 1029,3,-1
317 3206 m 29,0,-1
 317 3166 l 5,1,-1
 297 3186 l 5,2,-1
 337 3186 l 1029,3,-1
15 2884 m 1
 265 3220 l 1
 268 3220 l 1
 254 3202 254 3202 254 3183 c 0
 254 3164 254 3164 273 3145 c 0
 292 3126 292 3126 317 3126 c 0
 342 3126 342 3126 361 3145 c 0
 380 3164 380 3164 380 3183 c 0
 380 3202 380 3202 366 3220 c 1
 369 3220 l 1
 605 2893 l 1
 594 2906 594 2906 572 2912 c 0
 550 2918 550 2918 529 2906 c 0
 508 2894 508 2894 502 2870 c 0
 496 2846 496 2846 507 2825 c 1
 317 3095 l 1
 113 2815 l 1
 125 2836 125 2836 118 2860 c 0
 110 2884 110 2884 90 2896 c 0
 70 2908 70 2908 48 2902 c 0
 26 2896 26 2896 15 2884 c 1
612 2884 m 1
 624 2862 624 2862 618 2838 c 0
 612 2814 612 2814 590 2802 c 0
 568 2790 568 2790 544 2796 c 0
 520 2802 520 2802 508 2824 c 1
 612 2884 l 1
112 2814 m 1
 100 2792 100 2792 76 2786 c 0
 52 2780 52 2780 30 2792 c 0
 8 2804 8 2804 2 2828 c 0
 -4 2852 -4 2852 8 2874 c 1
 112 2814 l 1
714 1724 m 1
 594 1724 l 1
 594 1748 594 1748 612 1766 c 0
 630 1784 630 1784 654 1784 c 0
 678 1784 678 1784 696 1766 c 0
 714 1748 714 1748 714 1737 c 2
 714 1724 l 1
714 1724 m 1
 714 44 l 2
 714 20 714 20 696 2 c 0
 678 -16 678 -16 654 -16 c 0
 630 -16 630 -16 612 2 c 0
 594 20 594 20 594 44 c 2
 594 1724 l 1
 594 1700 594 1700 612 1682 c 0
 630 1664 630 1664 654 1664 c 0
 678 1664 678 1664 696 1682 c 0
 714 1700 714 1700 714 1724 c 1
605 2893 m 1
 608 2890 608 2890 611 2886 c 1
 605 2893 l 1
366 3220 m 1
 268 3220 l 1
 287 3246 287 3246 317 3246 c 0
 347 3246 347 3246 366 3220 c 1
8 2874 m 1
 9 2876 l 1
 9 2875 9 2875 8 2874 c 1
EndSplineSet
Validated: 2051
EndChar

StartChar: H
Encoding: 72 72 44
Width: 620
VWidth: 0
GlyphClass: 3
Flags: HW
LayerCount: 3
Fore
SplineSet
545 756 m 29,0,-1
 545 716 l 5,1,-1
 525 736 l 5,2,-1
 565 736 l 1029,3,-1
545 76 m 29,0,-1
 545 36 l 5,1,-1
 525 56 l 5,2,-1
 565 56 l 1029,3,-1
485 56 m 1025
70 3121 m 29,0,-1
 50 3087 l 5,1,-1
 43 3114 l 5,2,-1
 77 3094 l 1029,3,-1
550 3131 m 29,0,-1
 570 3097 l 5,1,-1
 543 3104 l 5,2,-1
 577 3124 l 1029,3,-1
317 3466 m 29,0,-1
 317 3426 l 5,1,-1
 297 3446 l 5,2,-1
 337 3446 l 1029,3,-1
15 3144 m 1
 265 3480 l 1
 268 3480 l 1
 254 3462 254 3462 254 3443 c 0
 254 3424 254 3424 273 3405 c 0
 292 3386 292 3386 317 3386 c 0
 342 3386 342 3386 361 3405 c 0
 380 3424 380 3424 380 3443 c 0
 380 3462 380 3462 366 3480 c 1
 369 3480 l 1
 605 3153 l 1
 594 3166 594 3166 572 3172 c 0
 550 3178 550 3178 529 3166 c 0
 508 3154 508 3154 502 3130 c 0
 496 3106 496 3106 507 3085 c 1
 317 3355 l 1
 113 3075 l 1
 125 3096 125 3096 118 3120 c 0
 110 3144 110 3144 90 3156 c 0
 70 3168 70 3168 48 3162 c 0
 26 3156 26 3156 15 3144 c 1
612 3144 m 1
 624 3122 624 3122 618 3098 c 0
 612 3074 612 3074 590 3062 c 0
 568 3050 568 3050 544 3056 c 0
 520 3062 520 3062 508 3084 c 1
 612 3144 l 1
112 3074 m 1
 100 3052 100 3052 76 3046 c 0
 52 3040 52 3040 30 3052 c 0
 8 3064 8 3064 2 3088 c 0
 -4 3112 -4 3112 8 3134 c 1
 112 3074 l 1
605 736 m 1
 485 736 l 1
 485 760 485 760 503 778 c 0
 521 796 521 796 545 796 c 0
 569 796 569 796 587 778 c 0
 605 760 605 760 605 749 c 2
 605 736 l 1
605 731 m 1
 605 56 l 2
 606 32 606 32 588 14 c 0
 570 -4 570 -4 545 -4 c 0
 520 -4 520 -4 502 14 c 0
 484 32 484 32 485 56 c 2
 485 731 l 1
 486 710 486 710 503 693 c 0
 520 676 520 676 545 676 c 0
 570 676 570 676 587 693 c 0
 604 710 604 710 605 731 c 1
605 3153 m 1
 608 3150 608 3150 611 3146 c 1
 605 3153 l 1
366 3480 m 1
 268 3480 l 1
 287 3506 287 3506 317 3506 c 0
 347 3506 347 3506 366 3480 c 1
8 3134 m 1
 9 3136 l 1
 9 3135 9 3135 8 3134 c 1
EndSplineSet
Validated: 2051
LCarets2: 1 0
EndChar

StartChar: I
Encoding: 73 73 45
Width: 779
VWidth: 0
GlyphClass: 2
Flags: HW
LayerCount: 3
Fore
SplineSet
70 2862 m 29,0,-1
 50 2828 l 5,1,-1
 43 2855 l 5,2,-1
 77 2835 l 1029,3,-1
550 2872 m 29,0,-1
 570 2838 l 5,1,-1
 543 2845 l 5,2,-1
 577 2865 l 1029,3,-1
317 3207 m 29,0,-1
 317 3167 l 5,1,-1
 297 3187 l 5,2,-1
 337 3187 l 1029,3,-1
15 2885 m 1
 265 3221 l 1
 268 3221 l 1
 257 3206 257 3206 257 3184 c 0
 257 3162 257 3162 275 3144 c 0
 293 3126 293 3126 317 3126 c 0
 341 3126 341 3126 359 3144 c 0
 377 3162 377 3162 377 3184 c 0
 377 3206 377 3206 366 3221 c 1
 369 3221 l 1
 604.764648438 2894.32617188 l 1
 594.7421875 2908.0703125 594.7421875 2908.0703125 573 2914 c 0
 551 2920 551 2920 530 2908 c 0
 509 2896 509 2896 503 2871 c 0
 497 2847 497 2847 507 2826 c 1
 317 3096 l 1
 113 2816 l 1
 125 2836 125 2836 118 2860 c 0
 111 2884 111 2884 90 2896 c 0
 69 2908 69 2908 47 2903 c 0
 25 2898 25 2898 15 2885 c 1
779 564 m 1
 779 6 l 1
 630 6 l 1
 630 564 l 1
 779 564 l 1
612 2885 m 1
 624 2864 624 2864 618 2840 c 0
 612 2816 612 2816 590 2804 c 0
 568 2792 568 2792 544 2798 c 0
 520 2804 520 2804 508 2825 c 1
 612 2885 l 1
112 2815 m 1
 100 2794 100 2794 76 2787 c 0
 52 2780 52 2780 30 2792 c 0
 8 2804 8 2804 2 2828 c 0
 -4 2852 -4 2852 8 2875 c 1
 112 2815 l 1
604.764648438 2894.32617188 m 1
 605 2894 l 1
 604.8828125 2894.1640625 604.8828125 2894.1640625 604.764648438 2894.32617188 c 1
605 2894 m 1
 608 2891 608 2891 611 2887 c 1
 605 2894 l 1
366 3221 m 1
 268 3221 l 1
 287 3247 287 3247 317 3247 c 0
 347 3247 347 3247 366 3221 c 1
8 2875 m 1
 9 2877 l 1
 9 2876 9 2876 8 2875 c 1
EndSplineSet
Validated: 526339
EndChar

StartChar: J
Encoding: 74 74 46
Width: 1066
VWidth: 0
GlyphClass: 2
Flags: HW
LayerCount: 3
Fore
SplineSet
70 2857 m 29,0,-1
 50 2823 l 5,1,-1
 43 2850 l 5,2,-1
 77 2830 l 1029,3,-1
550 2867 m 29,0,-1
 570 2833 l 5,1,-1
 543 2840 l 5,2,-1
 577 2860 l 1029,3,-1
317 3202 m 29,0,-1
 317 3162 l 5,1,-1
 297 3182 l 5,2,-1
 337 3182 l 1029,3,-1
15 2880 m 1
 265 3216 l 1
 268 3216 l 1
 257 3202 257 3202 257 3180 c 0
 257 3158 257 3158 275 3140 c 0
 293 3122 293 3122 317 3122 c 0
 341 3122 341 3122 359 3140 c 0
 377 3158 377 3158 377 3180 c 0
 377 3202 377 3202 366 3216 c 1
 369 3216 l 1
 605 2889 l 1
 595 2902 595 2902 573 2908 c 0
 551 2914 551 2914 530 2902 c 0
 509 2890 509 2890 503 2866 c 0
 497 2842 497 2842 507 2821 c 1
 317 3091 l 1
 113 2811 l 1
 125 2832 125 2832 118 2856 c 0
 111 2880 111 2880 90 2892 c 0
 69 2904 69 2904 47 2898 c 0
 25 2892 25 2892 15 2880 c 1
617 250 m 1
 778 250 l 1
 778 70 l 1
 778 -110 l 1
 1066 154 l 1
 938 251 l 1
 778 70 l 1
 778 -110 l 1
 617 -264 l 1
 617 250 l 1
612 2880 m 1
 624 2858 624 2858 618 2834 c 0
 612 2810 612 2810 590 2798 c 0
 568 2786 568 2786 544 2792 c 0
 520 2798 520 2798 508 2820 c 1
 612 2880 l 1
112 2810 m 1
 100 2788 100 2788 76 2782 c 0
 52 2776 52 2776 30 2788 c 0
 8 2800 8 2800 2 2824 c 0
 -4 2848 -4 2848 8 2870 c 1
 112 2810 l 1
605 2889 m 1
 608 2886 608 2886 611 2882 c 1
 605 2889 l 1
366 3216 m 1
 268 3216 l 1
 287 3242 287 3242 317 3242 c 0
 347 3242 347 3242 366 3216 c 1
8 2870 m 1
 9 2872 l 1
 9 2871 9 2871 8 2870 c 1
EndSplineSet
Validated: 2059
EndChar

StartChar: K
Encoding: 75 75 47
Width: 684
VWidth: 0
GlyphClass: 2
Flags: HW
LayerCount: 3
Fore
SplineSet
624 755 m 29,0,-1
 624 715 l 5,1,-1
 604 735 l 5,2,-1
 644 735 l 1029,3,-1
624 75 m 29,0,-1
 624 35 l 5,1,-1
 604 55 l 5,2,-1
 644 55 l 1029,3,-1
564 55 m 1025
70 2861 m 29,0,-1
 50 2827 l 5,1,-1
 43 2854 l 5,2,-1
 77 2834 l 1029,3,-1
550 2871 m 29,0,-1
 570 2837 l 5,1,-1
 543 2844 l 5,2,-1
 577 2864 l 1029,3,-1
317 3206 m 29,0,-1
 317 3166 l 5,1,-1
 297 3186 l 5,2,-1
 337 3186 l 1029,3,-1
15 2884 m 1
 265 3220 l 1
 268 3220 l 1
 254 3202 254 3202 254 3183 c 0
 254 3164 254 3164 273 3145 c 0
 292 3126 292 3126 317 3126 c 0
 342 3126 342 3126 361 3145 c 0
 380 3164 380 3164 380 3183 c 0
 380 3202 380 3202 366 3220 c 1
 369 3220 l 1
 605 2893 l 1
 594 2906 594 2906 572 2912 c 0
 550 2918 550 2918 529 2906 c 0
 508 2894 508 2894 502 2870 c 0
 496 2846 496 2846 507 2825 c 1
 317 3095 l 1
 113 2815 l 1
 125 2836 125 2836 118 2860 c 0
 110 2884 110 2884 90 2896 c 0
 70 2908 70 2908 48 2902 c 0
 26 2896 26 2896 15 2884 c 1
612 2884 m 1
 624 2862 624 2862 618 2838 c 0
 612 2814 612 2814 590 2802 c 0
 568 2790 568 2790 544 2796 c 0
 520 2802 520 2802 508 2824 c 1
 612 2884 l 1
112 2814 m 1
 100 2792 100 2792 76 2786 c 0
 52 2780 52 2780 30 2792 c 0
 8 2804 8 2804 2 2828 c 0
 -4 2852 -4 2852 8 2874 c 1
 112 2814 l 1
684 735 m 1
 564 735 l 1
 564 760 564 760 582 778 c 0
 600 796 600 796 624 796 c 0
 648 796 648 796 666 778 c 0
 684 760 684 760 684 748 c 2
 684 735 l 1
684 735 m 1
 684 55 l 2
 684 30 684 30 666 12 c 0
 648 -6 648 -6 624 -6 c 0
 600 -6 600 -6 582 12 c 0
 564 30 564 30 564 55 c 2
 564 735 l 1
 564 710 564 710 582 692 c 0
 600 674 600 674 624 674 c 0
 648 674 648 674 666 692 c 0
 684 710 684 710 684 735 c 1
605 2893 m 1
 608 2890 608 2890 611 2886 c 1
 605 2893 l 1
366 3220 m 1
 268 3220 l 1
 287 3246 287 3246 317 3246 c 0
 347 3246 347 3246 366 3220 c 1
8 2874 m 1
 9 2876 l 1
 9 2875 9 2875 8 2874 c 1
EndSplineSet
Validated: 2051
EndChar

StartChar: L
Encoding: 76 76 48
Width: 914
GlyphClass: 2
Flags: HW
LayerCount: 3
Fore
SplineSet
70 2861 m 29,0,-1
 50 2827 l 5,1,-1
 43 2854 l 5,2,-1
 77 2834 l 1029,3,-1
550 2871 m 29,0,-1
 570 2837 l 5,1,-1
 543 2844 l 5,2,-1
 577 2864 l 1029,3,-1
317 3206 m 29,0,-1
 317 3166 l 5,1,-1
 297 3186 l 5,2,-1
 337 3186 l 1029,3,-1
15 2884 m 1
 265 3220 l 1
 268 3220 l 1
 254 3202 254 3202 254 3183 c 0
 254 3164 254 3164 273 3145 c 0
 292 3126 292 3126 317 3126 c 0
 342 3126 342 3126 361 3145 c 0
 380 3164 380 3164 380 3183 c 0
 380 3202 380 3202 366 3220 c 1
 369 3220 l 1
 605 2893 l 1
 594 2906 594 2906 572 2912 c 0
 550 2918 550 2918 529 2906 c 0
 508 2894 508 2894 502 2870 c 0
 496 2846 496 2846 507 2825 c 1
 317 3095 l 1
 113 2815 l 1
 125 2836 125 2836 118 2860 c 0
 110 2884 110 2884 90 2896 c 0
 70 2908 70 2908 48 2902 c 0
 26 2896 26 2896 15 2884 c 1
749 373 m 0
 809 373 809 373 862 324 c 0
 914 274 914 274 914 190 c 0
 914 148 914 148 897 110 c 0
 880 72 880 72 858 54 c 0
 801 9.5 801 9.5 745.5 9.5 c 0,0,0
 690 9.5 690 9.5 636 54 c 0
 580 100 580 100 581 188 c 0
 580 276 580 276 635 325 c 0
 689 373 689 373 749 373 c 0
612 2884 m 1
 624 2862 624 2862 618 2838 c 0
 612 2814 612 2814 590 2802 c 0
 568 2790 568 2790 544 2796 c 0
 520 2802 520 2802 508 2824 c 1
 612 2884 l 1
112 2814 m 1
 100 2792 100 2792 76 2786 c 0
 52 2780 52 2780 30 2792 c 0
 8 2804 8 2804 2 2828 c 0
 -4 2852 -4 2852 8 2874 c 1
 112 2814 l 1
605 2893 m 1
 608 2890 608 2890 611 2886 c 1
 605 2893 l 1
366 3220 m 1
 268 3220 l 1
 287 3246 287 3246 317 3246 c 0
 347 3246 347 3246 366 3220 c 1
8 2874 m 1
 9 2876 l 1
 9 2875 9 2875 8 2874 c 1
EndSplineSet
Validated: 526371
EndChar

StartChar: M
Encoding: 77 77 49
Width: 758
VWidth: 0
GlyphClass: 2
Flags: HW
LayerCount: 3
Fore
SplineSet
698 1760 m 29,0,-1
 698 1720 l 5,1,-1
 678 1740 l 5,2,-1
 718 1740 l 1029,3,-1
698 80 m 29,0,-1
 698 40 l 5,1,-1
 678 60 l 5,2,-1
 718 60 l 1029,3,-1
638 60 m 1025
698 80 m 29,0,-1
 698 40 l 5,1,-1
 678 60 l 5,2,-1
 718 60 l 1029,3,-1
70 2857 m 29,0,-1
 50 2823 l 5,1,-1
 43 2850 l 5,2,-1
 77 2830 l 1029,3,-1
550 2867 m 29,0,-1
 570 2833 l 5,1,-1
 543 2840 l 5,2,-1
 577 2860 l 1029,3,-1
317 3202 m 29,0,-1
 317 3162 l 5,1,-1
 297 3182 l 5,2,-1
 337 3182 l 1029,3,-1
15 2880 m 1
 265 3216 l 1
 268 3216 l 1
 254 3198 254 3198 254 3179 c 0
 254 3160 254 3160 273 3141 c 0
 292 3122 292 3122 317 3122 c 0
 342 3122 342 3122 361 3141 c 0
 380 3160 380 3160 380 3179 c 0
 380 3198 380 3198 366 3216 c 1
 369 3216 l 1
 605 2889 l 1
 594 2902 594 2902 572 2908 c 0
 550 2914 550 2914 529 2902 c 0
 508 2890 508 2890 502 2866 c 0
 496 2842 496 2842 507 2821 c 1
 317 3091 l 1
 113 2811 l 1
 125 2832 125 2832 118 2856 c 0
 110 2880 110 2880 90 2892 c 0
 70 2904 70 2904 48 2898 c 0
 26 2892 26 2892 15 2880 c 1
612 2880 m 1
 624 2858 624 2858 618 2834 c 0
 612 2810 612 2810 590 2798 c 0
 568 2786 568 2786 544 2792 c 0
 520 2798 520 2798 508 2820 c 1
 612 2880 l 1
112 2810 m 1
 100 2788 100 2788 76 2782 c 0
 52 2776 52 2776 30 2788 c 0
 8 2800 8 2800 2 2824 c 0
 -4 2848 -4 2848 8 2870 c 1
 112 2810 l 1
758 60 m 1
 758 36 758 36 740 18 c 1
 757 36 757 36 758 60 c 1
758 60 m 1
 638 60 l 1
 656 18 l 1
 647 26 l 1
 638 60 l 1
 638 1740 l 1
 638 1716 638 1716 656 1698 c 0
 674 1680 674 1680 698 1680 c 0
 722 1680 722 1680 740 1698 c 0
 758 1716 758 1716 758 1740 c 1
 758 60 l 1
758 1740 m 1
 638 1740 l 1
 638 1764 638 1764 656 1782 c 0
 674 1800 674 1800 698 1800 c 0
 722 1800 722 1800 740 1782 c 0
 758 1764 758 1764 758 1753 c 2
 758 1740 l 1
605 2889 m 1
 608 2886 608 2886 611 2882 c 1
 605 2889 l 1
366 3216 m 1
 268 3216 l 1
 287 3242 287 3242 317 3242 c 0
 347 3242 347 3242 366 3216 c 1
8 2870 m 1
 9 2872 l 1
 9 2871 9 2871 8 2870 c 1
EndSplineSet
Validated: 2051
EndChar

StartChar: N
Encoding: 78 78 50
Width: 620
VWidth: 0
GlyphClass: 2
Flags: HW
LayerCount: 3
Fore
SplineSet
70 2857 m 29,0,-1
 50 2823 l 5,1,-1
 43 2850 l 5,2,-1
 77 2830 l 1029,3,-1
550 2867 m 29,0,-1
 570 2833 l 5,1,-1
 543 2840 l 5,2,-1
 577 2860 l 1029,3,-1
317 3202 m 29,0,-1
 317 3162 l 5,1,-1
 297 3182 l 5,2,-1
 337 3182 l 1029,3,-1
15 2880 m 1
 265 3216 l 1
 268 3216 l 1
 254 3198 254 3198 254 3179 c 0
 254 3160 254 3160 273 3141 c 0
 292 3122 292 3122 317 3122 c 0
 342 3122 342 3122 361 3141 c 0
 380 3160 380 3160 380 3179 c 0
 380 3198 380 3198 366 3216 c 1
 369 3216 l 1
 605 2889 l 1
 594 2902 594 2902 572 2908 c 0
 550 2914 550 2914 529 2902 c 0
 508 2890 508 2890 502 2866 c 0
 496 2842 496 2842 507 2821 c 1
 317 3091 l 1
 113 2811 l 1
 125 2832 125 2832 118 2856 c 0
 110 2880 110 2880 90 2892 c 0
 70 2904 70 2904 48 2898 c 0
 26 2892 26 2892 15 2880 c 1
612 2880 m 1
 624 2858 624 2858 618 2834 c 0
 612 2810 612 2810 590 2798 c 0
 568 2786 568 2786 544 2792 c 0
 520 2798 520 2798 508 2820 c 1
 612 2880 l 1
112 2810 m 1
 100 2788 100 2788 76 2782 c 0
 52 2776 52 2776 30 2788 c 0
 8 2800 8 2800 2 2824 c 0
 -4 2848 -4 2848 8 2870 c 1
 112 2810 l 1
605 2889 m 1
 608 2886 608 2886 611 2882 c 1
 605 2889 l 1
366 3216 m 1
 268 3216 l 1
 287 3242 287 3242 317 3242 c 0
 347 3242 347 3242 366 3216 c 1
8 2870 m 1
 9 2872 l 1
 9 2871 9 2871 8 2870 c 1
EndSplineSet
Validated: 3
EndChar

StartChar: P
Encoding: 80 80 52
Width: 854
VWidth: 3070
GlyphClass: 2
Flags: HW
LayerCount: 3
Fore
SplineSet
434 764 m 29,0,-1
 434 724 l 5,1,-1
 414 744 l 5,2,-1
 454 744 l 1029,3,-1
434 752 m 29,0,-1
 434 712 l 5,1,-1
 414 732 l 5,2,-1
 454 732 l 1029,3,-1
434 752 m 29,0,-1
 434 712 l 5,1,-1
 414 732 l 5,2,-1
 454 732 l 1029,3,-1
434 72 m 29,0,-1
 434 32 l 5,1,-1
 414 52 l 5,2,-1
 454 52 l 1029,3,-1
374 52 m 1025
70 3085 m 29,0,-1
 50 3051 l 5,1,-1
 43 3078 l 5,2,-1
 77 3058 l 1029,3,-1
550 3095 m 29,0,-1
 570 3061 l 5,1,-1
 543 3068 l 5,2,-1
 577 3088 l 1029,3,-1
317 3430 m 29,0,-1
 317 3390 l 5,1,-1
 297 3410 l 5,2,-1
 337 3410 l 1029,3,-1
15 3108 m 1
 265 3444 l 1
 268 3444 l 1
 254 3426 254 3426 254 3407 c 0
 254 3388 254 3388 273 3369 c 0
 292 3350 292 3350 317 3350 c 0
 342 3350 342 3350 361 3369 c 0
 380 3388 380 3388 380 3407 c 0
 380 3426 380 3426 366 3444 c 1
 369 3444 l 1
 605 3117 l 1
 594 3130 594 3130 572 3136 c 0
 550 3142 550 3142 529 3130 c 0
 508 3118 508 3118 502 3094 c 0
 496 3070 496 3070 507 3049 c 1
 317 3319 l 1
 113 3039 l 1
 125 3060 125 3060 118 3084 c 0
 110 3108 110 3108 90 3120 c 0
 70 3132 70 3132 48 3126 c 0
 26 3120 26 3120 15 3108 c 1
494 889 m 1
 734 1130 734 1130 734 1275 c 0
 734 1448 734 1448 608 1448 c 0
 494 1448 494 1448 494 1216 c 2
 494 889 l 1
612 3108 m 1
 624 3086 624 3086 618 3062 c 0
 612 3038 612 3038 590 3026 c 0
 568 3014 568 3014 544 3020 c 0
 520 3026 520 3026 508 3048 c 1
 612 3108 l 1
112 3038 m 1
 100 3016 100 3016 76 3010 c 0
 52 3004 52 3004 30 3016 c 0
 8 3028 8 3028 2 3052 c 0
 -4 3076 -4 3076 8 3098 c 1
 112 3038 l 1
379 720 m 1
 396 684 396 684 434 684 c 0
 472 684 472 684 489 719 c 1
 461 720 461 720 434 720 c 2
 379 720 l 1
379 720 m 1
 376 726 376 726 375 732 c 1
 374 732 l 1
 374 1223 l 2
 375 1571 375 1571 609 1571 c 0
 854 1571 854 1571 854 1272 c 0
 854 1082 854 1082 494 721 c 1
 494 732 l 1
 493 732 l 1
 492 725 492 725 489 719 c 1
 492 719 492 719 494 721 c 1
 494 52 l 2
 494 28 494 28 476 10 c 0
 458 -8 458 -8 434 -8 c 0
 410 -8 410 -8 392 10 c 0
 374 28 374 28 374 52 c 2
 374 720 l 1
 375 720 l 1
 378 703 378 703 394 687 c 1
 379 702 379 702 375 720 c 1
 379 720 l 1
605 3117 m 1
 608 3114 608 3114 611 3110 c 1
 605 3117 l 1
366 3444 m 1
 268 3444 l 1
 287 3470 287 3470 317 3470 c 0
 347 3470 347 3470 366 3444 c 1
8 3098 m 1
 9 3100 l 1
 9 3099 9 3099 8 3098 c 1
EndSplineSet
Validated: 2051
EndChar

StartChar: Q
Encoding: 81 81 53
Width: 664
VWidth: 0
GlyphClass: 2
Flags: HW
LayerCount: 3
Fore
SplineSet
604 761 m 29,0,-1
 604 721 l 5,1,-1
 584 741 l 5,2,-1
 624 741 l 1029,3,-1
604 81 m 29,0,-1
 604 41 l 5,1,-1
 584 61 l 5,2,-1
 624 61 l 1029,3,-1
544 61 m 1025
70 2857 m 29,0,-1
 50 2823 l 5,1,-1
 43 2850 l 5,2,-1
 77 2830 l 1029,3,-1
550 2867 m 29,0,-1
 570 2833 l 5,1,-1
 543 2840 l 5,2,-1
 577 2860 l 1029,3,-1
317 3202 m 29,0,-1
 317 3162 l 5,1,-1
 297 3182 l 5,2,-1
 337 3182 l 1029,3,-1
15 2880 m 1
 265 3216 l 1
 268 3216 l 1
 254 3198 254 3198 254 3179 c 0
 254 3160 254 3160 273 3141 c 0
 292 3122 292 3122 317 3122 c 0
 342 3122 342 3122 361 3141 c 0
 380 3160 380 3160 380 3179 c 0
 380 3198 380 3198 366 3216 c 1
 369 3216 l 1
 605 2889 l 1
 594 2902 594 2902 572 2908 c 0
 550 2914 550 2914 529 2902 c 0
 508 2890 508 2890 502 2866 c 0
 496 2842 496 2842 507 2821 c 1
 317 3091 l 1
 113 2811 l 1
 125 2832 125 2832 118 2856 c 0
 110 2880 110 2880 90 2892 c 0
 70 2904 70 2904 48 2898 c 0
 26 2892 26 2892 15 2880 c 1
612 2880 m 1
 624 2858 624 2858 618 2834 c 0
 612 2810 612 2810 590 2798 c 0
 568 2786 568 2786 544 2792 c 0
 520 2798 520 2798 508 2820 c 1
 612 2880 l 1
112 2810 m 1
 100 2788 100 2788 76 2782 c 0
 52 2776 52 2776 30 2788 c 0
 8 2800 8 2800 2 2824 c 0
 -4 2848 -4 2848 8 2870 c 1
 112 2810 l 1
664 741 m 1
 544 741 l 1
 544 766 544 766 562 784 c 0
 580 802 580 802 604 802 c 0
 628 802 628 802 646 784 c 0
 664 766 664 766 664 754 c 2
 664 741 l 1
664 741 m 1
 664 61 l 2
 664 36 664 36 646 18 c 0
 628 0 628 0 604 0 c 0
 580 0 580 0 562 18 c 0
 544 36 544 36 544 61 c 2
 544 741 l 1
 544 716 544 716 562 698 c 0
 580 680 580 680 604 680 c 0
 628 680 628 680 646 698 c 0
 664 716 664 716 664 741 c 1
605 2889 m 1
 608 2886 608 2886 611 2882 c 1
 605 2889 l 1
366 3216 m 1
 268 3216 l 1
 287 3242 287 3242 317 3242 c 0
 347 3242 347 3242 366 3216 c 1
8 2870 m 1
 9 2872 l 1
 9 2871 9 2871 8 2870 c 1
EndSplineSet
Validated: 2051
EndChar

StartChar: R
Encoding: 82 82 54
Width: 1128
VWidth: 0
GlyphClass: 2
Flags: HW
LayerCount: 3
Fore
SplineSet
70 2861 m 29,0,-1
 50 2827 l 5,1,-1
 43 2854 l 5,2,-1
 77 2834 l 1029,3,-1
550 2871 m 29,0,-1
 570 2837 l 5,1,-1
 543 2844 l 5,2,-1
 577 2864 l 1029,3,-1
317 3206 m 29,0,-1
 317 3166 l 5,1,-1
 297 3186 l 5,2,-1
 337 3186 l 1029,3,-1
15 2884 m 1
 265 3220 l 1
 268 3220 l 1
 254 3202 254 3202 254 3183 c 0
 254 3164 254 3164 273 3145 c 0
 292 3126 292 3126 317 3126 c 0
 342 3126 342 3126 361 3145 c 0
 380 3164 380 3164 380 3183 c 0
 380 3202 380 3202 366 3220 c 1
 369 3220 l 1
 605 2893 l 1
 594 2906 594 2906 572 2912 c 0
 550 2918 550 2918 529 2906 c 0
 508 2894 508 2894 502 2870 c 0
 496 2846 496 2846 507 2825 c 1
 317 3095 l 1
 113 2815 l 1
 125 2836 125 2836 118 2860 c 0
 110 2884 110 2884 90 2896 c 0
 70 2908 70 2908 48 2902 c 0
 26 2896 26 2896 15 2884 c 1
856 305 m 1
 1128 -82 l 1
 946 -82 l 1
 666 305 l 1
 856 305 l 1
612 2884 m 1
 624 2862 624 2862 618 2838 c 0
 612 2814 612 2814 590 2802 c 0
 568 2790 568 2790 544 2796 c 0
 520 2802 520 2802 508 2824 c 1
 612 2884 l 1
112 2814 m 1
 100 2792 100 2792 76 2786 c 0
 52 2780 52 2780 30 2792 c 0
 8 2804 8 2804 2 2828 c 0
 -4 2852 -4 2852 8 2874 c 1
 112 2814 l 1
605 2893 m 1
 608 2890 608 2890 611 2886 c 1
 605 2893 l 1
366 3220 m 1
 268 3220 l 1
 287 3246 287 3246 317 3246 c 0
 347 3246 347 3246 366 3220 c 1
8 2874 m 1
 9 2876 l 1
 9 2875 9 2875 8 2874 c 1
EndSplineSet
Validated: 2051
EndChar

StartChar: S
Encoding: 83 83 55
Width: 802
GlyphClass: 2
Flags: HW
LayerCount: 3
Fore
SplineSet
252 2857 m 29,0,-1
 232 2823 l 5,1,-1
 225 2850 l 5,2,-1
 259 2830 l 1029,3,-1
732 2867 m 29,0,-1
 752 2833 l 5,1,-1
 725 2840 l 5,2,-1
 759 2860 l 1029,3,-1
499 3202 m 29,0,-1
 499 3162 l 5,1,-1
 479 3182 l 5,2,-1
 519 3182 l 1029,3,-1
197 2880 m 1
 447 3216 l 1
 450 3216 l 1
 436 3198 436 3198 436 3179 c 0
 436 3160 436 3160 455 3141 c 0
 474 3122 474 3122 499 3122 c 0
 524 3122 524 3122 543 3141 c 0
 562 3160 562 3160 562 3179 c 0
 562 3198 562 3198 548 3216 c 1
 551 3216 l 1
 787 2889 l 1
 776 2902 776 2902 754 2908 c 0
 732 2914 732 2914 711 2902 c 0
 690 2890 690 2890 684 2866 c 0
 678 2842 678 2842 689 2821 c 1
 499 3091 l 1
 295 2811 l 1
 307 2832 307 2832 300 2856 c 0
 292 2880 292 2880 272 2892 c 0
 252 2904 252 2904 230 2898 c 0
 208 2892 208 2892 197 2880 c 1
388 117 m 0
 547 118 547 118 586 266 c 0
 596 304 596 304 596 350 c 0
 596 446 596 446 550 518 c 0
 504 590 504 590 388 591 c 2
 387 591 l 2
 385 591 385 591 384 591 c 0
 317 591 317 591 269 552 c 0
 180 480 180 480 180 366 c 0
 180 252 180 252 232 184 c 0
 283.24609375 116.985351562 283.24609375 116.985351562 384.99609375 116.985351562 c 0,0,0
 386.493164062 116.985351562 386.493164062 116.985351562 388 117 c 0
640 666 m 0
 698 612 698 612 734 530 c 0
 770 448 770 448 770 350 c 0
 770 252 770 252 731 164 c 0
 692 76 692 76 633 30 c 0
 573 -16 573 -16 516 -44 c 0
 458 -72 458 -72 382 -72 c 0
 306 -72 306 -72 248 -44 c 0
 190 -16 190 -16 130 32 c 0
 71 82 71 82 36 166 c 0
 0 250 0 250 0 351 c 0
 0 552 0 552 124 663 c 0
 248 774 248 774 385 774 c 0
 522 774 522 774 640 666 c 0
794 2880 m 1
 806 2858 806 2858 800 2834 c 0
 794 2810 794 2810 772 2798 c 0
 750 2786 750 2786 726 2792 c 0
 702 2798 702 2798 690 2820 c 1
 794 2880 l 1
294 2810 m 1
 282 2788 282 2788 258 2782 c 0
 234 2776 234 2776 212 2788 c 0
 190 2800 190 2800 184 2824 c 0
 178 2848 178 2848 190 2870 c 1
 294 2810 l 1
787 2889 m 1
 790 2886 790 2886 793 2882 c 1
 787 2889 l 1
548 3216 m 1
 450 3216 l 1
 469 3242 469 3242 499 3242 c 0
 529 3242 529 3242 548 3216 c 1
190 2870 m 1
 191 2872 l 1
 191 2871 191 2871 190 2870 c 1
EndSplineSet
Validated: 526339
EndChar

StartChar: T
Encoding: 84 84 56
Width: 620
VWidth: 0
GlyphClass: 2
Flags: HW
LayerCount: 3
Fore
SplineSet
70 3054 m 29,0,-1
 50 3020 l 5,1,-1
 43 3047 l 5,2,-1
 77 3027 l 1029,3,-1
550 3064 m 29,0,-1
 570 3030 l 5,1,-1
 543 3037 l 5,2,-1
 577 3057 l 1029,3,-1
317 3399 m 29,0,-1
 317 3359 l 5,1,-1
 297 3379 l 5,2,-1
 337 3379 l 1029,3,-1
15 3077 m 1
 265 3413 l 1
 268 3413 l 1
 257 3398 257 3398 257 3376 c 0
 257 3354 257 3354 275 3336 c 0
 293 3318 293 3318 317 3318 c 0
 341 3318 341 3318 359 3336 c 0
 377 3354 377 3354 377 3376 c 0
 377 3398 377 3398 366 3413 c 1
 369 3413 l 1
 604.764648438 3086.32617188 l 1
 594.7421875 3100.0703125 594.7421875 3100.0703125 573 3106 c 0
 551 3112 551 3112 530 3100 c 0
 509 3088 509 3088 503 3063 c 0
 497 3039 497 3039 507 3018 c 1
 317 3288 l 1
 113 3008 l 1
 125 3028 125 3028 118 3052 c 0
 111 3076 111 3076 90 3088 c 0
 69 3100 69 3100 47 3095 c 0
 25 3090 25 3090 15 3077 c 1
612 3077 m 1
 624 3056 624 3056 618 3032 c 0
 612 3008 612 3008 590 2996 c 0
 568 2984 568 2984 544 2990 c 0
 520 2996 520 2996 508 3017 c 1
 612 3077 l 1
112 3007 m 1
 100 2986 100 2986 76 2979 c 0
 52 2972 52 2972 30 2984 c 0
 8 2996 8 2996 2 3020 c 0
 -4 3044 -4 3044 8 3067 c 1
 112 3007 l 1
604.764648438 3086.32617188 m 1
 605 3086 l 1
 604.8828125 3086.1640625 604.8828125 3086.1640625 604.764648438 3086.32617188 c 1
605 3086 m 1
 608 3083 608 3083 611 3079 c 1
 605 3086 l 1
366 3413 m 1
 268 3413 l 1
 287 3439 287 3439 317 3439 c 0
 347 3439 347 3439 366 3413 c 1
8 3067 m 1
 9 3069 l 1
 9 3068 9 3068 8 3067 c 1
EndSplineSet
Validated: 526339
EndChar

StartChar: U
Encoding: 85 85 57
Width: 731
VWidth: 0
GlyphClass: 2
Flags: HW
LayerCount: 3
Fore
SplineSet
671 800 m 29,0,-1
 671 760 l 5,1,-1
 651 780 l 5,2,-1
 691 780 l 1029,3,-1
242 80 m 29,0,-1
 242 40 l 5,1,-1
 222 60 l 5,2,-1
 262 60 l 1029,3,-1
70 2069 m 29,0,-1
 50 2035 l 5,1,-1
 43 2062 l 5,2,-1
 77 2042 l 1029,3,-1
550 2079 m 29,0,-1
 570 2045 l 5,1,-1
 543 2052 l 5,2,-1
 577 2072 l 1029,3,-1
317 2414 m 29,0,-1
 317 2374 l 5,1,-1
 297 2394 l 5,2,-1
 337 2394 l 1029,3,-1
15 2092 m 1
 265 2428 l 1
 268 2428 l 1
 254 2410 254 2410 254 2391 c 0
 254 2372 254 2372 273 2353 c 0
 292 2334 292 2334 317 2334 c 0
 342 2334 342 2334 361 2353 c 0
 380 2372 380 2372 380 2391 c 0
 380 2410 380 2410 366 2428 c 1
 369 2428 l 1
 605 2101 l 1
 594 2114 594 2114 572 2120 c 0
 550 2126 550 2126 529 2114 c 0
 508 2102 508 2102 502 2078 c 0
 496 2054 496 2054 507 2033 c 1
 317 2303 l 1
 113 2023 l 1
 125 2044 125 2044 118 2068 c 0
 110 2092 110 2092 90 2104 c 0
 70 2116 70 2116 48 2110 c 0
 26 2104 26 2104 15 2092 c 1
399 -44 m 0
 610 -44 610 -44 610 780 c 1
 611 780 l 1
 610 756 610 756 628 738 c 0
 646 720 646 720 671 720 c 0
 696 720 696 720 714 738 c 0
 731 756 731 756 731 780 c 1
 730 -174 730 -174 396 -174 c 0
 182 -174 182 -174 182 48 c 0
 182 54 182 54 182 60 c 1
 182 36 182 36 200 18 c 0
 218 0 218 0 242 0 c 0
 266 0 266 0 284 18 c 0
 301 36 301 36 302 60 c 1
 302 49 l 2
 302 -44 302 -44 399 -44 c 0
612 2092 m 1
 624 2070 624 2070 618 2046 c 0
 612 2022 612 2022 590 2010 c 0
 568 1998 568 1998 544 2004 c 0
 520 2010 520 2010 508 2032 c 1
 612 2092 l 1
112 2022 m 1
 100 2000 100 2000 76 1994 c 0
 52 1988 52 1988 30 2000 c 0
 8 2012 8 2012 2 2036 c 0
 -4 2060 -4 2060 8 2082 c 1
 112 2022 l 1
605 2101 m 1
 608 2098 608 2098 611 2094 c 1
 605 2101 l 1
366 2428 m 1
 268 2428 l 1
 287 2454 287 2454 317 2454 c 0
 347 2454 347 2454 366 2428 c 1
302 60 m 1
 182 60 l 1
 182 84 182 84 200 102 c 0
 218 120 218 120 242 120 c 0
 266 120 266 120 284 102 c 0
 302 84 302 84 302 73 c 2
 302 60 l 1
731 780 m 1
 611 780 l 1
 611 804 611 804 629 822 c 0
 647 840 647 840 671 840 c 0
 695 840 695 840 713 822 c 0
 731 804 731 804 731 793 c 2
 731 780 l 1
8 2082 m 1
 9 2084 l 1
 9 2083 9 2083 8 2082 c 1
EndSplineSet
Validated: 2051
EndChar

StartChar: V
Encoding: 86 86 58
Width: 620
VWidth: 0
GlyphClass: 2
Flags: HW
LayerCount: 3
Fore
SplineSet
70 2856 m 29,0,-1
 50 2822 l 5,1,-1
 43 2849 l 5,2,-1
 77 2829 l 1029,3,-1
550 2866 m 29,0,-1
 570 2832 l 5,1,-1
 543 2839 l 5,2,-1
 577 2859 l 1029,3,-1
317 3201 m 29,0,-1
 317 3161 l 5,1,-1
 297 3181 l 5,2,-1
 337 3181 l 1029,3,-1
477 1715 m 29,0,-1
 477 1675 l 5,1,-1
 457 1695 l 5,2,-1
 497 1695 l 1029,3,-1
477 35 m 29,0,-1
 477 -5 l 5,1,-1
 457 15 l 5,2,-1
 497 15 l 1029,3,-1
417 15 m 1025
15 2879 m 1
 265 3215 l 1
 268 3215 l 1
 256 3200 256 3200 256 3178 c 0
 256 3156 256 3156 274 3138 c 0
 292 3120 292 3120 317 3120 c 0
 342 3120 342 3120 361 3139 c 0
 380 3158 380 3158 380 3178 c 0
 380 3197 380 3197 366 3215 c 1
 369 3215 l 1
 605 2888 l 1
 594 2902 594 2902 572 2908 c 0
 550 2914 550 2914 529 2902 c 0
 508 2890 508 2890 502 2865 c 0
 496 2841 496 2841 507 2820 c 1
 317 3090 l 1
 113 2810 l 1
 125 2830 125 2830 118 2854 c 0
 110 2878 110 2878 90 2890 c 0
 70 2902 70 2902 48 2897 c 0
 26 2892 26 2892 15 2879 c 1
612 2879 m 1
 624 2858 624 2858 618 2834 c 0
 612 2810 612 2810 590 2798 c 0
 568 2786 568 2786 544 2792 c 0
 520 2798 520 2798 508 2819 c 1
 612 2879 l 1
112 2809 m 1
 100 2788 100 2788 76 2781 c 0
 52 2774 52 2774 30 2786 c 0
 8 2798 8 2798 2 2822 c 0
 -4 2846 -4 2846 8 2869 c 1
 112 2809 l 1
605 2888 m 1
 608 2885 608 2885 611 2881 c 1
 605 2888 l 1
366 3215 m 1
 268 3215 l 1
 287 3241 287 3241 317 3241 c 0
 347 3241 347 3241 366 3215 c 1
537 1695 m 1
 417 1695 l 1
 417 1720 417 1720 435 1738 c 0
 453 1756 453 1756 477 1756 c 0
 501 1756 501 1756 519 1738 c 0
 537 1720 537 1720 537 1708 c 2
 537 1695 l 1
537 1690 m 1
 537 15 l 2
 538 -10 538 -10 520 -28 c 0
 502 -46 502 -46 477 -46 c 0
 452 -46 452 -46 434 -28 c 0
 416 -10 416 -10 417 15 c 2
 417 1690 l 1
 418 1668 418 1668 435 1651 c 0
 452 1634 452 1634 477 1634 c 0
 502 1634 502 1634 519 1652 c 0
 536 1670 536 1670 537 1690 c 1
8 2869 m 1
 9 2871 l 1
 9 2870 9 2870 8 2869 c 1
EndSplineSet
Validated: 2051
EndChar

StartChar: W
Encoding: 87 87 59
Width: 620
VWidth: 0
GlyphClass: 2
Flags: HW
LayerCount: 3
Fore
SplineSet
528 1711 m 29,0,-1
 528 1671 l 5,1,-1
 508 1691 l 5,2,-1
 548 1691 l 1029,3,-1
528 31 m 29,0,-1
 528 -9 l 5,1,-1
 508 11 l 5,2,-1
 548 11 l 1029,3,-1
468 11 m 1025
70 2861 m 29,0,-1
 50 2827 l 5,1,-1
 43 2854 l 5,2,-1
 77 2834 l 1029,3,-1
550 2871 m 29,0,-1
 570 2837 l 5,1,-1
 543 2844 l 5,2,-1
 577 2864 l 1029,3,-1
317 3206 m 29,0,-1
 317 3166 l 5,1,-1
 297 3186 l 5,2,-1
 337 3186 l 1029,3,-1
15 2884 m 1
 265 3220 l 1
 268 3220 l 1
 254 3202 254 3202 254 3183 c 0
 254 3164 254 3164 273 3145 c 0
 292 3126 292 3126 317 3126 c 0
 342 3126 342 3126 361 3145 c 0
 380 3164 380 3164 380 3183 c 0
 380 3202 380 3202 366 3220 c 1
 369 3220 l 1
 605 2893 l 1
 594 2906 594 2906 572 2912 c 0
 550 2918 550 2918 529 2906 c 0
 508 2894 508 2894 502 2870 c 0
 496 2846 496 2846 507 2825 c 1
 317 3095 l 1
 113 2815 l 1
 125 2836 125 2836 118 2860 c 0
 110 2884 110 2884 90 2896 c 0
 70 2908 70 2908 48 2902 c 0
 26 2896 26 2896 15 2884 c 1
612 2884 m 1
 624 2862 624 2862 618 2838 c 0
 612 2814 612 2814 590 2802 c 0
 568 2790 568 2790 544 2796 c 0
 520 2802 520 2802 508 2824 c 1
 612 2884 l 1
112 2814 m 1
 100 2792 100 2792 76 2786 c 0
 52 2780 52 2780 30 2792 c 0
 8 2804 8 2804 2 2828 c 0
 -4 2852 -4 2852 8 2874 c 1
 112 2814 l 1
588 1691 m 1
 468 1691 l 1
 468 1716 468 1716 486 1734 c 0
 504 1752 504 1752 528 1752 c 0
 552 1752 552 1752 570 1734 c 0
 588 1716 588 1716 588 1704 c 2
 588 1691 l 1
588 1691 m 1
 588 11 l 2
 588 -14 588 -14 570 -32 c 0
 552 -50 552 -50 528 -50 c 0
 504 -50 504 -50 486 -32 c 0
 468 -14 468 -14 468 11 c 2
 468 1691 l 1
 468 1666 468 1666 486 1648 c 0
 504 1630 504 1630 528 1630 c 0
 552 1630 552 1630 570 1648 c 0
 588 1666 588 1666 588 1691 c 1
605 2893 m 1
 608 2890 608 2890 611 2886 c 1
 605 2893 l 1
366 3220 m 1
 268 3220 l 1
 287 3246 287 3246 317 3246 c 0
 347 3246 347 3246 366 3220 c 1
8 2874 m 1
 9 2876 l 1
 9 2875 9 2875 8 2874 c 1
EndSplineSet
Validated: 2051
EndChar

StartChar: X
Encoding: 88 88 60
Width: 1120
VWidth: 0
GlyphClass: 3
Flags: HW
LayerCount: 3
Fore
SplineSet
602 761 m 29,0,-1
 602 721 l 5,1,-1
 582 741 l 5,2,-1
 622 741 l 1029,3,-1
602 81 m 29,0,-1
 602 41 l 5,1,-1
 582 61 l 5,2,-1
 622 61 l 1029,3,-1
542 61 m 1025
70 2857 m 29,0,-1
 50 2823 l 5,1,-1
 43 2850 l 5,2,-1
 77 2830 l 1029,3,-1
550 2867 m 29,0,-1
 570 2833 l 5,1,-1
 543 2840 l 5,2,-1
 577 2860 l 1029,3,-1
317 3202 m 29,0,-1
 317 3162 l 5,1,-1
 297 3182 l 5,2,-1
 337 3182 l 1029,3,-1
946 315 m 0
 946 578 946 578 741 578 c 0
 739 578 739 578 738 578 c 2
 737 578 l 2
 696 578 696 578 662 564 c 1
 662 741 l 1
 662 717 662 717 644 699 c 0
 626 681 626 681 598 681 c 0
 570 681 570 681 551 709 c 1
 584 730 584 730 614 741 c 1
 542 741 l 1
 542 766 542 766 560 784 c 0
 578 802 578 802 602 802 c 0
 626 802 626 802 642 786 c 0
 658 770 658 770 660 754 c 1
 694 761 694 761 752 761 c 0
 871 761 871 761 990 653 c 0
 1048 600 1048 600 1084 518 c 0
 1120 436 1120 436 1120 338 c 0
 1120 240 1120 240 1081 152 c 0
 1042 64 1042 64 982 17 c 0
 922 -30 922 -30 866 -58 c 0
 810 -86 810 -86 733 -86 c 0
 656 -86 656 -86 598 -58 c 0
 350 62 350 62 350 333 c 0
 350 336 350 336 350 338 c 0
 350 578 350 578 542 703 c 1
 542 423 l 1
 562 494 562 494 600 524 c 0
 638 554 638 554 662 564 c 1
 662 115 l 1
 574 145 574 145 542 251 c 1
 542 61 l 1
 662 61 l 1
 662 74 l 2
 662 86 662 86 644 104 c 0
 626 122 626 122 602 122 c 0
 578 122 578 122 560 104 c 0
 542 86 542 86 542 61 c 0
 542 36 542 36 560 18 c 0
 578 0 578 0 602 0 c 0
 626 0 626 0 644 18 c 0
 661 36 661 36 662 61 c 2
 662 74 l 1
 662 115 l 1
 696 104 696 104 746 104 c 0
 854 104 854 104 900 174 c 0
 946 244 946 244 946 315 c 0
15 2880 m 1
 265 3216 l 1
 268 3216 l 1
 254 3198 254 3198 254 3179 c 0
 254 3160 254 3160 273 3141 c 0
 292 3122 292 3122 317 3122 c 0
 342 3122 342 3122 361 3141 c 0
 380 3160 380 3160 380 3179 c 0
 380 3198 380 3198 366 3216 c 1
 369 3216 l 1
 605 2889 l 1
 594 2902 594 2902 572 2908 c 0
 550 2914 550 2914 529 2902 c 0
 508 2890 508 2890 502 2866 c 0
 496 2842 496 2842 507 2821 c 1
 317 3091 l 1
 113 2811 l 1
 125 2832 125 2832 118 2856 c 0
 110 2880 110 2880 90 2892 c 0
 70 2904 70 2904 48 2898 c 0
 26 2892 26 2892 15 2880 c 1
612 2880 m 1
 624 2858 624 2858 618 2834 c 0
 612 2810 612 2810 590 2798 c 0
 568 2786 568 2786 544 2792 c 0
 520 2798 520 2798 508 2820 c 1
 612 2880 l 1
112 2810 m 1
 100 2788 100 2788 76 2782 c 0
 52 2776 52 2776 30 2788 c 0
 8 2800 8 2800 2 2824 c 0
 -4 2848 -4 2848 8 2870 c 1
 112 2810 l 1
542 251 m 1
 542 423 l 1
 530 382 530 382 530 336 c 0
 530 290 530 290 542 251 c 1
542 703 m 1
 542 741 l 1
 542 723 542 723 551 709 c 1
 546 706 546 706 542 703 c 1
605 2889 m 1
 608 2886 608 2886 611 2882 c 1
 605 2889 l 1
366 3216 m 1
 268 3216 l 1
 287 3242 287 3242 317 3242 c 0
 347 3242 347 3242 366 3216 c 1
8 2870 m 1
 9 2872 l 1
 9 2871 9 2871 8 2870 c 1
EndSplineSet
Validated: 2059
LCarets2: 1 0
EndChar

StartChar: Y
Encoding: 89 89 61
Width: 893
VWidth: 0
GlyphClass: 2
Flags: HW
LayerCount: 3
Fore
SplineSet
60 200 m 29,0,-1
 60 160 l 5,1,-1
 40 180 l 5,2,-1
 80 180 l 1029,3,-1
60 80 m 29,0,-1
 60 40 l 5,1,-1
 40 60 l 5,2,-1
 80 60 l 1029,3,-1
0 60 m 1025
343 2861 m 29,0,-1
 323 2827 l 5,1,-1
 316 2854 l 5,2,-1
 350 2834 l 1029,3,-1
823 2871 m 29,0,-1
 843 2837 l 5,1,-1
 816 2844 l 5,2,-1
 850 2864 l 1029,3,-1
590 3206 m 29,0,-1
 590 3166 l 5,1,-1
 570 3186 l 5,2,-1
 610 3186 l 1029,3,-1
288 2884 m 1
 538 3220 l 1
 541 3220 l 1
 530 3206 530 3206 530 3184 c 0
 530 3162 530 3162 548 3144 c 0
 566 3126 566 3126 590 3126 c 0
 614 3126 614 3126 632 3144 c 0
 650 3162 650 3162 650 3184 c 0
 650 3206 650 3206 639 3220 c 1
 642 3220 l 1
 878 2893 l 1
 868 2906 868 2906 846 2912 c 0
 824 2918 824 2918 803 2906 c 0
 782 2894 782 2894 776 2870 c 0
 770 2846 770 2846 780 2825 c 1
 590 3095 l 1
 386 2815 l 1
 398 2836 398 2836 391 2860 c 0
 384 2884 384 2884 363 2896 c 0
 342 2908 342 2908 320 2902 c 0
 298 2896 298 2896 288 2884 c 1
60 120 m 0
 84 120 84 120 102 138 c 0
 119 156 119 156 120 180 c 1
 120 60 l 2
 120 36 120 36 102 18 c 0
 84 0 84 0 60 0 c 0
 36 0 36 0 18 18 c 0
 0 36 0 36 0 60 c 2
 0 180 l 1
 0 156 0 156 18 138 c 0
 36 120 36 120 60 120 c 0
885 2884 m 1
 897 2862 897 2862 891 2838 c 0
 885 2814 885 2814 863 2802 c 0
 841 2790 841 2790 817 2796 c 0
 793 2802 793 2802 781 2824 c 1
 885 2884 l 1
385 2814 m 1
 373 2792 373 2792 349 2786 c 0
 325 2780 325 2780 303 2792 c 0
 281 2804 281 2804 275 2828 c 0
 269 2852 269 2852 281 2874 c 1
 385 2814 l 1
878 2893 m 1
 881 2890 881 2890 884 2886 c 1
 878 2893 l 1
639 3220 m 1
 541 3220 l 1
 560 3246 560 3246 590 3246 c 0
 620 3246 620 3246 639 3220 c 1
0 180 m 1
 0 204 0 204 18 222 c 0
 36 240 36 240 60 240 c 0
 84 240 84 240 102 222 c 0
 120 204 120 204 120 193 c 2
 120 180 l 1
 0 180 l 1
281 2874 m 1
 282 2876 l 1
 282 2875 282 2875 281 2874 c 1
EndSplineSet
Validated: 2051
EndChar

StartChar: Z
Encoding: 90 90 62
Width: 995
GlyphClass: 2
Flags: HW
LayerCount: 3
Fore
SplineSet
70 2857 m 29,0,-1
 50 2823 l 5,1,-1
 43 2850 l 5,2,-1
 77 2830 l 1029,3,-1
550 2867 m 29,0,-1
 570 2833 l 5,1,-1
 543 2840 l 5,2,-1
 577 2860 l 1029,3,-1
317 3202 m 29,0,-1
 317 3162 l 5,1,-1
 297 3182 l 5,2,-1
 337 3182 l 1029,3,-1
15 2880 m 1
 265 3216 l 1
 268 3216 l 1
 254 3198 254 3198 254 3179 c 0
 254 3160 254 3160 273 3141 c 0
 292 3122 292 3122 317 3122 c 0
 342 3122 342 3122 361 3141 c 0
 380 3160 380 3160 380 3179 c 0
 380 3198 380 3198 366 3216 c 1
 369 3216 l 1
 605 2889 l 1
 594 2902 594 2902 572 2908 c 0
 550 2914 550 2914 529 2902 c 0
 508 2890 508 2890 502 2866 c 0
 496 2842 496 2842 507 2821 c 1
 317 3091 l 1
 113 2811 l 1
 125 2832 125 2832 118 2856 c 0
 110 2880 110 2880 90 2892 c 0
 70 2904 70 2904 48 2898 c 0
 26 2892 26 2892 15 2880 c 1
440 300 m 0
 440 444 440 444 529 524 c 0
 618 604 618 604 716 604 c 0
 814 604 814 604 904 522 c 0
 994 440 994 440 995 300 c 0
 994 230 994 230 966 166 c 0
 938 102 938 102 895 68 c 0
 852 34 852 34 813 14 c 0
 775.857421875 -5.0478515625 775.857421875 -5.0478515625 748.69140625 -5.0478515625 c 0,0,0
 747.333007812 -5.0478515625 747.333007812 -5.0478515625 746 -5 c 0
 718 -5 718 -5 716 -5 c 0
 625 -5 625 -5 531 73 c 0
 492 108 492 108 466 168 c 0
 440 228 440 228 440 300 c 0
621 177 m 0
 660 116 660 116 721 116 c 0
 782 116 782 116 816 172 c 0
 850 228 850 228 849 291 c 0
 850 354 850 354 816 412 c 0
 782 470 782 470 722 470 c 0
 662 470 662 470 622 410 c 0
 582 350 582 350 582 294 c 0
 582 238 582 238 621 177 c 0
612 2880 m 1
 624 2858 624 2858 618 2834 c 0
 612 2810 612 2810 590 2798 c 0
 568 2786 568 2786 544 2792 c 0
 520 2798 520 2798 508 2820 c 1
 612 2880 l 1
112 2810 m 1
 100 2788 100 2788 76 2782 c 0
 52 2776 52 2776 30 2788 c 0
 8 2800 8 2800 2 2824 c 0
 -4 2848 -4 2848 8 2870 c 1
 112 2810 l 1
605 2889 m 1
 608 2886 608 2886 611 2882 c 1
 605 2889 l 1
366 3216 m 1
 268 3216 l 1
 287 3242 287 3242 317 3242 c 0
 347 3242 347 3242 366 3216 c 1
8 2870 m 1
 9 2872 l 1
 9 2871 9 2871 8 2870 c 1
EndSplineSet
Validated: 526371
EndChar

StartChar: bracketleft
Encoding: 91 91 63
Width: 486
GlyphClass: 2
Flags: HW
LayerCount: 3
Fore
SplineSet
425 3210 m 29,0,-1
 425 3170 l 5,1,-1
 405 3190 l 5,2,-1
 445 3190 l 1029,3,-1
424 -920 m 29,0,-1
 424 -960 l 5,1,-1
 404 -940 l 5,2,-1
 444 -940 l 1029,3,-1
424 -1000 m 1
 424 -880 l 1
 448 -880 448 -880 466 -898 c 0
 484 -916 484 -916 484 -940 c 0
 484 -964 484 -964 466 -982 c 0
 448 -1000 448 -1000 424 -1000 c 1
424 -1000 m 1
 0 -1000 l 1
 0 3250 l 1
 425 3250 l 1
 400 3250 400 3250 382 3232 c 0
 364 3214 364 3214 364 3190 c 0
 364 3166 364 3166 382 3148 c 0
 400 3130 400 3130 425 3130 c 1
 120 3130 l 1
 120 -880 l 1
 424 -880 l 1
 400 -880 400 -880 382 -898 c 0
 364 -916 364 -916 364 -940 c 0
 364 -964 364 -964 382 -982 c 0
 400 -1000 400 -1000 424 -1000 c 1
425 3130 m 1
 425 3250 l 1
 450 3250 450 3250 468 3232 c 0
 486 3214 486 3214 486 3190 c 0
 486 3166 486 3166 468 3148 c 0
 450 3130 450 3130 425 3130 c 1
EndSplineSet
Validated: 3
EndChar

StartChar: backslash
Encoding: 92 92 64
Width: 2245
GlyphClass: 2
Flags: HW
LayerCount: 3
Fore
SplineSet
50.4501953125 2760 m 29,0,-1
 70.4501953125 2725 l 5,1,-1
 43.4501953125 2732 l 5,2,-1
 77.4501953125 2752 l 1029,3,-1
2175.45019531 -921 m 29,0,-1
 2195.45019531 -956 l 5,1,-1
 2168.45019531 -948 l 5,2,-1
 2202.45019531 -928 l 1029,3,-1
2237.45019531 -908 m 2
 2249.45019531 -930 2249.45019531 -930 2243.45019531 -954 c 0
 2237.45019531 -978 2237.45019531 -978 2215.45019531 -990 c 0
 2193.45019531 -1002 2193.45019531 -1002 2169.45019531 -996 c 0
 2145.45019531 -990 2145.45019531 -990 2133.45019531 -968 c 2
 8.7529296875 2710.47558594 l 1
 20.7509765625 2689.92480469 20.7509765625 2689.92480469 44.4501953125 2684 c 0
 68.4501953125 2678 68.4501953125 2678 90.4501953125 2690 c 0
 112.450195312 2702 112.450195312 2702 118.450195312 2726 c 0
 124.450195312 2750 124.450195312 2750 112.450195312 2772 c 1
 2237.45019531 -908 l 2
8.4501953125 2712 m 1
 -4.5498046875 2734 -4.5498046875 2734 2.4501953125 2758 c 0
 9.4501953125 2782 9.4501953125 2782 30.4501953125 2794 c 0
 52.4501953125 2806 52.4501953125 2806 76.4501953125 2800 c 0
 100.450195312 2794 100.450195312 2794 112.450195312 2772 c 1
 8.4501953125 2712 l 1
8.7529296875 2710.47558594 m 1
 8.4501953125 2711 l 1
 8.6005859375 2710.73632812 8.6005859375 2710.73632812 8.7529296875 2710.47558594 c 1
EndSplineSet
Validated: 524291
EndChar

StartChar: bracketright
Encoding: 93 93 65
Width: 485
GlyphClass: 2
Flags: HW
LayerCount: 3
Fore
SplineSet
61 3170 m 29,0,-1
 61 3210 l 5,1,-1
 81 3190 l 5,2,-1
 41 3190 l 1029,3,-1
60 -960 m 29,0,-1
 60 -920 l 5,1,-1
 80 -940 l 5,2,-1
 40 -940 l 1029,3,-1
121 3190 m 0
 122 3214 122 3214 104 3232 c 0
 86 3250 86 3250 61 3250 c 1
 485 3250 l 1
 485 -1000 l 1
 60 -1000 l 1
 84 -1000 84 -1000 102 -982 c 0
 120 -964 120 -964 120 -940 c 0
 120 -916 120 -916 102 -898 c 0
 84 -880 84 -880 60 -880 c 1
 365 -880 l 1
 365 3130 l 1
 61 3130 l 1
 85 3130 85 3130 103 3148 c 0
 121 3166 121 3166 121 3190 c 0
61 3130 m 1
 37 3130 37 3130 19 3148 c 0
 1 3166 1 3166 1 3190 c 0
 0 3214 0 3214 18 3232 c 0
 36 3250 36 3250 61 3250 c 1
 61 3130 l 1
60 -880 m 1
 60 -1000 l 1
 36 -1000 36 -1000 18 -982 c 0
 0 -964 0 -964 0 -940 c 0
 0 -916 0 -916 18 -898 c 0
 36 -880 36 -880 60 -880 c 1
EndSplineSet
Validated: 3
EndChar

StartChar: asciicircum
Encoding: 94 94 66
Width: 620
GlyphClass: 2
Flags: HW
LayerCount: 3
Fore
SplineSet
70 1666 m 29,0,-1
 50 1632 l 5,1,-1
 43 1659 l 5,2,-1
 78 1639 l 1029,3,-1
550 1676 m 29,0,-1
 570 1642 l 5,1,-1
 543 1649 l 5,2,-1
 577 1669 l 1029,3,-1
317 2011 m 29,0,-1
 317 1971 l 5,1,-1
 297 1991 l 5,2,-1
 337 1991 l 1029,3,-1
16 1689 m 1
 265 2025 l 1
 268 2025 l 1
 257 2010 257 2010 257 1988 c 0
 257 1966 257 1966 275 1948 c 0
 293 1930 293 1930 317 1930 c 0
 341 1930 341 1930 359 1948 c 0
 377 1966 377 1966 377 1988 c 0
 377 2010 377 2010 367 2025 c 1
 369 2025 l 1
 606 1698 l 1
 595 1712 595 1712 573 1718 c 0
 551 1724 551 1724 531 1712 c 0
 511 1700 511 1700 503 1675 c 0
 495 1651 495 1651 507 1630 c 1
 317 1900 l 1
 113 1620 l 1
 125 1640 125 1640 118 1664 c 0
 111 1688 111 1688 90 1700 c 0
 69 1712 69 1712 48 1707 c 0
 27 1702 27 1702 16 1689 c 1
612 1689 m 1
 624 1668 624 1668 618 1644 c 0
 612 1620 612 1620 590 1608 c 0
 568 1596 568 1596 544 1602 c 0
 520 1608 520 1608 508 1629 c 1
 612 1689 l 1
112 1619 m 1
 100 1598 100 1598 76 1591 c 0
 52 1584 52 1584 30 1596 c 0
 8 1608 8 1608 2 1632 c 0
 -4 1656 -4 1656 8 1679 c 1
 112 1619 l 1
606 1698 m 1
 609 1695 609 1695 611 1691 c 1
 606 1698 l 1
367 2025 m 1
 268 2025 l 1
 287 2051 287 2051 317 2051 c 0
 347 2051 347 2051 367 2025 c 1
EndSplineSet
Validated: 3
EndChar

StartChar: underscore
Encoding: 95 95 67
Width: 1354
GlyphClass: 2
Flags: HW
LayerCount: 3
Fore
SplineSet
60 80 m 29,0,-1
 60 40 l 5,1,-1
 40 60 l 5,2,-1
 80 60 l 1029,3,-1
1293 80 m 29,0,-1
 1293 40 l 5,1,-1
 1273 60 l 5,2,-1
 1313 60 l 1029,3,-1
0 60 m 0
 0 84 0 84 18 102 c 0
 36 120 36 120 60 120 c 1
 60 0 l 1
 36 0 36 0 18 18 c 0
 0 36 0 36 0 60 c 0
60 120 m 1
 1293 120 l 1
 1268 120 1268 120 1250 102 c 0
 1232 84 1232 84 1232 60 c 0
 1232 36 1232 36 1250 18 c 0
 1268 0 1268 0 1293 0 c 1
 60 0 l 1
 84 0 84 0 102 18 c 0
 120 36 120 36 120 60 c 0
 120 84 120 84 102 102 c 0
 84 120 84 120 60 120 c 1
1293 0 m 1
 1293 120 l 1
 1318 120 1318 120 1336 102 c 0
 1354 84 1354 84 1354 60 c 0
 1354 36 1354 36 1336 18 c 0
 1318 0 1318 0 1293 0 c 1
EndSplineSet
Validated: 3
EndChar

StartChar: grave
Encoding: 96 96 68
Width: 582
GlyphClass: 2
Flags: HW
LayerCount: 3
Fore
SplineSet
521 1667 m 29,0,-1
 521 1627 l 5,1,-1
 501 1647 l 5,2,-1
 541 1647 l 1029,3,-1
60 2072 m 29,0,-1
 60 2032 l 5,1,-1
 40 2052 l 5,2,-1
 80 2052 l 1029,3,-1
102 2010 m 0
 120 2028 120 2028 120 2054 c 0
 120 2080 120 2080 97 2099 c 1
 99 2101 l 1
 565 1691 l 1
 563 1689 l 1
 582 1672 582 1672 582 1648 c 0
 582 1624 582 1624 564 1606 c 0
 546 1588 546 1588 521 1588 c 0
 496 1588 496 1588 479 1605 c 1
 477 1602 l 1
 21 2003 l 1
 23 2005 l 1
 0 2024 0 2024 0 2050 c 0
 0 2076 0 2076 18 2094 c 0
 36 2112 36 2112 58 2112 c 0
 80 2112 80 2112 97 2099 c 1
 23 2005 l 1
 40 1992 40 1992 62 1992 c 0
 84 1992 84 1992 102 2010 c 0
EndSplineSet
Validated: 3
EndChar

StartChar: a
Encoding: 97 97 69
Width: 466
VWidth: 0
GlyphClass: 2
Flags: HW
LayerCount: 3
Fore
SplineSet
413 669 m 25,0,-1
 393 634 l 25,1,-1
 385 661 l 25,2,-1
 420 641 l 1049,3,-1
73 80 m 25,0,-1
 53 45 l 25,1,-1
 45 72 l 25,2,-1
 80 52 l 1049,3,-1
11 92 m 1025
11 92 m 1
 63 62 63 62 115 32 c 1
 96 -1 96 -1 74 -1 c 0
 52 -1 52 -1 26 14 c 0
 0 29 0 29 0 51 c 0
 0 73 0 73 11 92 c 1
115 32 m 1
 126 51 126 51 126 73 c 0
 126 95 126 95 97 112 c 0
 69 130 69 130 46 122 c 0
 23.3548861132 114.123438648 23.3548861132 114.123438648 11.3729348207 93.6449578664 c 1
 351 681 l 1
 340 662 340 662 340 640 c 0
 340 618 340 618 366 603 c 0
 392 588 392 588 414 588 c 0
 436 588 436 588 455 621 c 1
 115 32 l 1
11.3729348207 93.6449578664 m 1
 11.1851579721 93.3240264511 11.1851579721 93.3240264511 11 93 c 1
 11.3729348207 93.6449578664 l 1
455 621 m 1
 403 651 403 651 351 681 c 1
 370.80952381 713.19047619 370.80952381 713.19047619 399.049886621 713.19047619 c 0,0,0
 416.428571429 713.19047619 416.428571429 713.19047619 437 701 c 0
 466 684 466 684 466 662 c 0
 466 640 466 640 455 621 c 1
EndSplineSet
Validated: 524291
EndChar

StartChar: b
Encoding: 98 98 70
Width: 448
VWidth: 0
GlyphClass: 2
Flags: HW
LayerCount: 3
Fore
SplineSet
60 881 m 25,0,-1
 60 841 l 25,1,-1
 40 861 l 25,2,-1
 80 861 l 1049,3,-1
60 876 m 25,0,-1
 60 836 l 25,1,-1
 40 856 l 25,2,-1
 80 856 l 1049,3,-1
60 1760 m 29,0,-1
 60 1720 l 5,1,-1
 40 1740 l 5,2,-1
 80 1740 l 1029,3,-1
60 80 m 29,0,-1
 60 40 l 5,1,-1
 40 60 l 5,2,-1
 80 60 l 1029,3,-1
0 60 m 1025
329 1270 m 0
 329 1390 329 1390 225 1390 c 0
 120 1390 120 1390 120 1222 c 1
 120 1489 l 1
 0 1432 0 1432 0 1225 c 1
 0 1740 l 1
 0 1716 0 1716 18 1698 c 0
 36 1680 36 1680 60 1680 c 0
 84 1680 84 1680 102 1698 c 0
 120 1716 120 1716 120 1740 c 1
 120 1489 l 1
 164 1510 164 1510 196 1510 c 0
 228 1510 228 1510 231 1510 c 0
 336 1509 336 1509 392 1429 c 0
 448 1349 448 1349 448 1273 c 0
 448 1197 448 1197 401 1127 c 0
 354 1057 354 1057 120 838 c 1
 120 856 l 1
 120 845 120 845 118 836 c 1
 119 837 119 837 120 838 c 1
 120 60 l 2
 120 36 120 36 102 18 c 0
 84 0 84 0 60 0 c 0
 36 0 36 0 18 18 c 0
 0 36 0 36 0 60 c 2
 0 855 l 1
 1 796 1 796 60 796 c 0
 108 796 108 796 118 836 c 1
 116 836 l 1
 119 845 119 845 120 856 c 2
 120 861 l 2
 118 884 118 884 102 900 c 0
 86 916 86 916 60 916 c 0
 34 916 34 916 18 900 c 0
 2 884 2 884 0 861 c 1
 0 888 0 888 17 904 c 0
 34 920 34 920 60 920 c 0
 86 920 86 920 103 904 c 0
 120 888 120 888 120 861 c 1
 120 999 l 1
 167 1047 167 1047 214 1095 c 0
 329 1210 329 1210 329 1270 c 0
116 836 m 1
 104 801 104 801 68 801 c 0
 3 801 3 801 0 855 c 1
 116 836 l 1
120 1740 m 1
 0 1740 l 1
 0 1764 0 1764 18 1782 c 0
 36 1800 36 1800 60 1800 c 0
 84 1800 84 1800 102 1782 c 0
 120 1764 120 1764 120 1753 c 2
 120 1740 l 1
EndSplineSet
Validated: 3
EndChar

StartChar: c
Encoding: 99 99 71
Width: 770
GlyphClass: 2
Flags: HW
LayerCount: 3
Fore
SplineSet
640 60 m 0
 698 6 698 6 734 -76 c 0
 770 -158 770 -158 770 -256 c 0
 770 -354 770 -354 731 -442 c 0
 692 -530 692 -530 632 -576 c 0
 572 -622 572 -622 515 -650 c 0
 458 -678 458 -678 382 -678 c 0
 306 -678 306 -678 248 -650 c 0
 190 -622 190 -622 130 -574 c 0
 72 -524 72 -524 36 -440 c 0
 0 -356 0 -356 0 -255 c 0
 0 -54 0 -54 124 57 c 0
 248 168 248 168 385 168 c 0
 522 168 522 168 640 60 c 0
385 -515 m 0
 565 -515 565 -515 608 -350 c 0
 619 -308 619 -308 619 -227 c 0
 619 -147 619 -147 569 -68 c 0
 518 10 518 10 388 11 c 2
 386 11 l 2
 385 11 385 11 383 11 c 0
 269 11 269 11 213 -74 c 0
 156 -160 156 -160 156 -262 c 0
 156 -364 156 -364 214 -440 c 0
 272 -515 272 -515 385 -515 c 0
EndSplineSet
Validated: 1
EndChar

StartChar: d
Encoding: 100 100 72
Width: 361
VWidth: 0
GlyphClass: 2
Flags: HW
LayerCount: 3
Fore
SplineSet
60 -46 m 25,0,-1
 60 -6 l 25,1,-1
 80 -26 l 25,2,-1
 40 -26 l 1049,3,-1
318 -502 m 25,0,-1
 283 -482 l 25,1,-1
 311 -475 l 25,2,-1
 291 -509 l 1049,3,-1
60 -86 m 0
 86 -86 86 -86 103 -69 c 0
 120 -52 120 -52 120 -26 c 1
 120 -316 120 -316 331 -440 c 1
 311 -429 311 -429 290 -429 c 0
 268 -429 268 -429 253 -454 c 0
 238 -479 238 -479 239 -501 c 0
 239 -522 239 -522 266 -541 c 1
 0 -383 0 -383 0 -26 c 1
 0 -54 0 -54 17 -70 c 0
 34 -86 34 -86 60 -86 c 0
352 -522 m 0
 339 -545 339 -545 316 -551 c 0
 293 -557 293 -557 271 -544 c 1
 331 -440 l 1
 353 -453 353 -453 359 -476 c 0
 365 -499 365 -499 352 -522 c 0
0 -26 m 1
 0 34 0 34 60 34 c 0
 120 34 120 34 120 -26 c 1
 0 -26 l 1
EndSplineSet
Validated: 3
EndChar

StartChar: e
Encoding: 101 101 73
Width: 600
VWidth: 0
GlyphClass: 2
Flags: HW
LayerCount: 3
Fore
SplineSet
559.22265625 104 m 29,0,-1
 519.22265625 101 l 5,1,-1
 538.22265625 123 l 5,2,-1
 541.22265625 83 l 1029,3,-1
80.22265625 62 m 29,0,-1
 40.22265625 59 l 5,1,-1
 58.22265625 81 l 5,2,-1
 62.22265625 41 l 1029,3,-1
55.22265625 120 m 1025
65.22265625 1 m 1
 42.22265625 0 42.22265625 0 22.22265625 16 c 0
 2.22265625 32 2.22265625 32 0.22265625 56 c 0
 -1.77734375 80 -1.77734375 80 14.22265625 99 c 0
 30.22265625 118 30.22265625 118 55.22265625 120 c 1
 65.22265625 1 l 1
533.22265625 162 m 1
 510.22265625 160 510.22265625 160 494.22265625 141 c 0
 478.22265625 122 478.22265625 122 480.22265625 98 c 0
 482.22265625 74 482.22265625 74 502.22265625 58 c 0
 522.22265625 42 522.22265625 42 545.22265625 43 c 1
 71.9345703125 1.4140625 l 1
 91.8876953125 4.08203125 91.8876953125 4.08203125 106.22265625 22 c 0
 122.22265625 42 122.22265625 42 120.22265625 66 c 0
 118.22265625 90 118.22265625 90 99.22265625 106 c 0
 80.22265625 122 80.22265625 122 55.22265625 120 c 1
 533.22265625 162 l 1
71.9345703125 1.4140625 m 1
 67.22265625 1 l 1
 69.6162109375 1.1044921875 69.6162109375 1.1044921875 71.9345703125 1.4140625 c 1
545.22265625 43 m 1
 534.22265625 162 l 1
 559.22265625 164 559.22265625 164 578.22265625 148 c 0
 598.22265625 132 598.22265625 132 600.22265625 108 c 0
 602.22265625 84 602.22265625 84 586.22265625 64 c 0
 570.22265625 44 570.22265625 44 545.22265625 43 c 1
EndSplineSet
Validated: 524291
EndChar

StartChar: f
Encoding: 102 102 74
Width: 120
VWidth: 0
GlyphClass: 2
Flags: HW
LayerCount: 3
Fore
SplineSet
60 757 m 29,0,-1
 60 717 l 5,1,-1
 40 737 l 5,2,-1
 80 737 l 1029,3,-1
60 77 m 29,0,-1
 60 37 l 5,1,-1
 40 57 l 5,2,-1
 80 57 l 1029,3,-1
0 57 m 1025
120 737 m 1
 0 737 l 1
 0 762 0 762 18 780 c 0
 36 798 36 798 60 798 c 0
 84 798 84 798 102 780 c 0
 120 762 120 762 120 750 c 2
 120 737 l 1
120 737 m 1
 120 57 l 2
 120 32 120 32 102 14 c 0
 84 -4 84 -4 60 -4 c 0
 36 -4 36 -4 18 14 c 0
 0 32 0 32 0 57 c 2
 0 737 l 1
 0 712 0 712 18 694 c 0
 36 676 36 676 60 676 c 0
 84 676 84 676 102 694 c 0
 120 712 120 712 120 737 c 1
EndSplineSet
Validated: 3
EndChar

StartChar: g
Encoding: 103 103 75
Width: 120
VWidth: 0
GlyphClass: 2
Flags: HW
LayerCount: 3
Fore
SplineSet
60 1760 m 29,0,-1
 60 1720 l 5,1,-1
 40 1740 l 5,2,-1
 80 1740 l 1029,3,-1
60 80 m 29,0,-1
 60 40 l 5,1,-1
 40 60 l 5,2,-1
 80 60 l 1029,3,-1
0 60 m 1025
120 1740 m 1
 0 1740 l 1
 0 1764 0 1764 18 1782 c 0
 36 1800 36 1800 60 1800 c 0
 84 1800 84 1800 102 1782 c 0
 120 1764 120 1764 120 1753 c 2
 120 1740 l 1
120 1740 m 1
 120 60 l 2
 120 36 120 36 102 18 c 0
 84 0 84 0 60 0 c 0
 36 0 36 0 18 18 c 0
 0 36 0 36 0 60 c 2
 0 1740 l 1
 0 1716 0 1716 18 1698 c 0
 36 1680 36 1680 60 1680 c 0
 84 1680 84 1680 102 1698 c 0
 120 1716 120 1716 120 1740 c 1
EndSplineSet
Validated: 3
EndChar

StartChar: h
Encoding: 104 104 76
Width: 120
VWidth: 0
GlyphClass: 3
Flags: HW
LayerCount: 3
Fore
SplineSet
60.052734375 760 m 29,0,-1
 60.052734375 720 l 5,1,-1
 40.052734375 740 l 5,2,-1
 80.052734375 740 l 1029,3,-1
60.052734375 80 m 29,0,-1
 60.052734375 40 l 5,1,-1
 40.052734375 60 l 5,2,-1
 80.052734375 60 l 1029,3,-1
0.052734375 60 m 1025
120.052734375 740 m 1
 0.052734375 740 l 1
 0.052734375 764 0.052734375 764 18.052734375 782 c 0
 36.052734375 800 36.052734375 800 60.052734375 800 c 0
 84.052734375 800 84.052734375 800 102.052734375 782 c 0
 120.052734375 764 120.052734375 764 120.052734375 753 c 2
 120.052734375 740 l 1
120.052734375 735 m 1
 120.052734375 60 l 2
 121.052734375 36 121.052734375 36 103.052734375 18 c 0
 85.052734375 0 85.052734375 0 60.052734375 0 c 0
 35.052734375 0 35.052734375 0 17.052734375 18 c 0
 -0.947265625 36 -0.947265625 36 0.052734375 60 c 2
 0.052734375 735 l 1
 1.052734375 714 1.052734375 714 18.052734375 697 c 0
 35.052734375 680 35.052734375 680 60.052734375 680 c 0
 85.052734375 680 85.052734375 680 102.052734375 697 c 0
 119.052734375 714 119.052734375 714 120.052734375 735 c 1
EndSplineSet
Validated: 524291
LCarets2: 1 760
EndChar

StartChar: i
Encoding: 105 105 77
Width: 149
VWidth: 0
GlyphClass: 2
Flags: HW
LayerCount: 3
Fore
SplineSet
149 584 m 1
 149 26 l 1
 0 26 l 1
 0 584 l 1
 149 584 l 1
EndSplineSet
Validated: 1
EndChar

StartChar: j
Encoding: 106 106 78
Width: 449
VWidth: 0
GlyphClass: 2
Flags: HW
LayerCount: 3
Fore
SplineSet
0 154 m 1
 161 154 l 1
 161 -26 l 1
 161 -206 l 1
 449 58 l 1
 321 155 l 1
 161 -26 l 1
 161 -206 l 1
 0 -360 l 1
 0 154 l 1
EndSplineSet
Validated: 5
EndChar

StartChar: k
Encoding: 107 107 79
Width: 120
VWidth: 3070
GlyphClass: 2
Flags: HW
LayerCount: 3
Fore
SplineSet
60 761 m 29,0,-1
 60 721 l 5,1,-1
 40 741 l 5,2,-1
 80 741 l 1029,3,-1
60 81 m 29,0,-1
 60 41 l 5,1,-1
 40 61 l 5,2,-1
 80 61 l 1029,3,-1
0 61 m 1025
120 741 m 1
 0 741 l 1
 0 766 0 766 18 784 c 0
 36 802 36 802 60 802 c 0
 84 802 84 802 102 784 c 0
 120 766 120 766 120 754 c 2
 120 741 l 1
120 741 m 1
 120 61 l 2
 120 36 120 36 102 18 c 0
 84 0 84 0 60 0 c 0
 36 0 36 0 18 18 c 0
 0 36 0 36 0 61 c 2
 0 741 l 1
 0 716 0 716 18 698 c 0
 36 680 36 680 60 680 c 0
 84 680 84 680 102 698 c 0
 120 716 120 716 120 741 c 1
EndSplineSet
Validated: 3
EndChar

StartChar: l
Encoding: 108 108 80
Width: 333
GlyphClass: 2
Flags: HW
LayerCount: 3
Fore
SplineSet
168.017578125 397 m 0
 228.017578125 397 228.017578125 397 281.017578125 348 c 0
 333.017578125 298 333.017578125 298 333.017578125 214 c 0
 333.017578125 172 333.017578125 172 316.017578125 134 c 0
 299.017578125 96 299.017578125 96 277.017578125 78 c 0
 220.017578125 33.5 220.017578125 33.5 164.517578125 33.5 c 0,0,0
 109.017578125 33.5 109.017578125 33.5 55.017578125 78 c 0
 -0.982421875 124 -0.982421875 124 0.017578125 212 c 0
 -0.982421875 300 -0.982421875 300 54.017578125 349 c 0
 108.017578125 397 108.017578125 397 168.017578125 397 c 0
EndSplineSet
Validated: 524321
EndChar

StartChar: m
Encoding: 109 109 81
Width: 120
VWidth: 3070
GlyphClass: 2
Flags: HW
LayerCount: 3
Fore
SplineSet
60.052734375 80 m 29,0,-1
 60.052734375 40 l 5,1,-1
 40.052734375 60 l 5,2,-1
 80.052734375 60 l 1029,3,-1
60.052734375 1760 m 29,0,-1
 60.052734375 1720 l 5,1,-1
 40.052734375 1740 l 5,2,-1
 80.052734375 1740 l 1029,3,-1
60.052734375 80 m 29,0,-1
 60.052734375 40 l 5,1,-1
 40.052734375 60 l 5,2,-1
 80.052734375 60 l 1029,3,-1
0.052734375 60 m 1025
102.052734375 18 m 1
 119.052734375 36 119.052734375 36 120.052734375 60 c 1
 120.052734375 36 120.052734375 36 102.052734375 18 c 1
102.052734375 18 m 1
 99.052734375 15 99.052734375 15 97.052734375 13 c 1
 100.052734375 15 100.052734375 15 102.052734375 18 c 1
97.052734375 13 m 1
 82.052734375 0 82.052734375 0 72.052734375 0 c 2
 60.052734375 0 l 1
 81.052734375 0 81.052734375 0 97.052734375 13 c 1
17.052734375 18 m 1
 0.052734375 35 0.052734375 35 0.052734375 60 c 1
 -0.947265625 36 -0.947265625 36 17.052734375 18 c 1
17.052734375 18 m 1
 35.052734375 0 35.052734375 0 60.052734375 0 c 1
 47.052734375 0 l 2
 34.052734375 1 34.052734375 1 17.052734375 18 c 1
120.052734375 60 m 1
 120.052734375 63 120.052734375 63 120.052734375 66 c 2
 120.052734375 1740 l 1
 119.052734375 1716 119.052734375 1716 102.052734375 1698 c 0
 85.052734375 1680 85.052734375 1680 60.052734375 1680 c 0
 35.052734375 1680 35.052734375 1680 17.052734375 1698 c 0
 0.052734375 1716 0.052734375 1716 0.052734375 1740 c 1
 0.052734375 60 l 1
 120.052734375 60 l 1
120.052734375 1740 m 1
 0.052734375 1740 l 1
 0.052734375 1764 0.052734375 1764 18.052734375 1782 c 0
 36.052734375 1800 36.052734375 1800 60.052734375 1800 c 0
 84.052734375 1800 84.052734375 1800 102.052734375 1782 c 0
 120.052734375 1764 120.052734375 1764 120.052734375 1753 c 2
 120.052734375 1740 l 1
EndSplineSet
Validated: 526347
EndChar

StartChar: o
Encoding: 111 111 83
Width: 515
VWidth: 0
GlyphClass: 2
Flags: HW
LayerCount: 3
Fore
SplineSet
52.0302734375 90 m 25,0,-1
 72.0302734375 125 l 25,1,-1
 79.0302734375 98 l 25,2,-1
 45.0302734375 118 l 1049,3,-1
442.030273438 766 m 25,0,-1
 462.030273438 800 l 25,1,-1
 469.030273438 773 l 25,2,-1
 435.030273438 793 l 1049,3,-1
391.030273438 775 m 1
 393.030273438 746 393.030273438 746 419.030273438 732 c 0
 445.030273438 718 445.030273438 718 468.030273438 724 c 0
 508.030273438 734 508.030273438 734 515.030273438 783 c 1
 513.030273438 589 513.030273438 589 388.030273438 373 c 0
 263.030273438 157 263.030273438 157 94.0302734375 56 c 1
 124.030273438 75 124.030273438 75 124.030273438 108 c 0
 124.030273438 141 124.030273438 141 92.0302734375 160 c 0
 59.0302734375 179 59.0302734375 179 34.0302734375 164 c 1
 179.030273438 250 179.030273438 250 283.030273438 430 c 0
 387.030273438 610 387.030273438 610 391.030273438 775 c 1
391.030273438 783 m 1
 391.030273438 798 391.030273438 798 405.030273438 823 c 0
 419.030273438 848 419.030273438 848 439.030273438 849 c 0
 458.030273438 849 458.030273438 849 473.030273438 840 c 0
 517.030273438 815 517.030273438 815 514.030273438 783 c 1
 391.030273438 783 l 1
92.0302734375 55 m 1
 77.9443359375 46.7431640625 77.9443359375 46.7431640625 63.1513671875 46.7431640625 c 0,0,0
 47.4873046875 46.7431640625 47.4873046875 46.7431640625 31.0302734375 56 c 0
 -0.9697265625 74 -0.9697265625 74 0.0302734375 97 c 0
 0.0302734375 139 0.0302734375 139 30.0302734375 161 c 1
 61.0302734375 108 61.0302734375 108 92.0302734375 55 c 1
30.0302734375 161 m 1
 31.0302734375 162 l 1
 30.0302734375 162 30.0302734375 162 30.0302734375 161 c 1
EndSplineSet
Validated: 524323
EndChar

StartChar: p
Encoding: 112 112 84
Width: 480
VWidth: 3070
GlyphClass: 2
Flags: HW
LayerCount: 3
Fore
SplineSet
60 760 m 29,0,-1
 60 720 l 5,1,-1
 40 740 l 5,2,-1
 80 740 l 1029,3,-1
60 80 m 29,0,-1
 60 40 l 5,1,-1
 40 60 l 5,2,-1
 80 60 l 1029,3,-1
0 60 m 1025
60 772 m 29,0,-1
 60 732 l 5,1,-1
 40 752 l 5,2,-1
 80 752 l 1029,3,-1
60 760 m 29,0,-1
 60 720 l 5,1,-1
 40 740 l 5,2,-1
 80 740 l 1029,3,-1
120 897 m 1
 360 1138 360 1138 360 1283 c 0
 360 1456 360 1456 234 1456 c 0
 120 1456 120 1456 120 1224 c 2
 120 897 l 1
5 728 m 1
 22 692 22 692 60 692 c 0
 98 692 98 692 115 727 c 1
 87 728 87 728 60 728 c 2
 5 728 l 1
5 728 m 1
 2 734 2 734 1 740 c 1
 0 740 l 1
 0 1231 l 2
 1 1579 1 1579 235 1579 c 0
 480 1579 480 1579 480 1280 c 0
 480 1090 480 1090 120 729 c 1
 120 740 l 1
 119 740 l 1
 118 733 118 733 115 727 c 1
 118 727 118 727 120 729 c 1
 120 60 l 2
 120 36 120 36 102 18 c 0
 84 0 84 0 60 0 c 0
 36 0 36 0 18 18 c 0
 0 36 0 36 0 60 c 2
 0 728 l 1
 1 728 l 1
 4 711 4 711 20 695 c 1
 5 710 5 710 1 728 c 1
 5 728 l 1
EndSplineSet
Validated: 3
EndChar

StartChar: q
Encoding: 113 113 85
Width: 120
VWidth: 0
GlyphClass: 2
Flags: HW
LayerCount: 3
Fore
SplineSet
60 761 m 29,0,-1
 60 721 l 5,1,-1
 40 741 l 5,2,-1
 80 741 l 1029,3,-1
60 81 m 29,0,-1
 60 41 l 5,1,-1
 40 61 l 5,2,-1
 80 61 l 1029,3,-1
0 61 m 1025
120 741 m 1
 0 741 l 1
 0 766 0 766 18 784 c 0
 36 802 36 802 60 802 c 0
 84 802 84 802 102 784 c 0
 120 766 120 766 120 754 c 2
 120 741 l 1
120 741 m 1
 120 61 l 2
 120 36 120 36 102 18 c 0
 84 0 84 0 60 0 c 0
 36 0 36 0 18 18 c 0
 0 36 0 36 0 61 c 2
 0 741 l 1
 0 716 0 716 18 698 c 0
 36 680 36 680 60 680 c 0
 84 680 84 680 102 698 c 0
 120 716 120 716 120 741 c 1
EndSplineSet
Validated: 3
EndChar

StartChar: r
Encoding: 114 114 86
Width: 462
VWidth: 0
GlyphClass: 2
Flags: HW
LayerCount: 3
Fore
SplineSet
190 299 m 1
 462 -88 l 1
 280 -88 l 1
 0 299 l 1
 190 299 l 1
EndSplineSet
Validated: 1
EndChar

StartChar: s
Encoding: 115 115 87
Width: 770
GlyphClass: 2
Flags: HW
LayerCount: 3
Fore
SplineSet
388 141 m 0
 547 142 547 142 586 290 c 0
 596 328 596 328 596 374 c 0
 596 470 596 470 550 542 c 0
 504 614 504 614 388 615 c 2
 387 615 l 2
 385 615 385 615 384 615 c 0
 317 615 317 615 269 576 c 0
 180 504 180 504 180 390 c 0
 180 276 180 276 232 208 c 0
 283.24609375 140.985351562 283.24609375 140.985351562 384.99609375 140.985351562 c 0,0,0
 386.493164062 140.985351562 386.493164062 140.985351562 388 141 c 0
640 690 m 0
 698 636 698 636 734 554 c 0
 770 472 770 472 770 374 c 0
 770 276 770 276 731 188 c 0
 692 100 692 100 633 54 c 0
 573 8 573 8 516 -20 c 0
 458 -48 458 -48 382 -48 c 0
 306 -48 306 -48 248 -20 c 0
 190 8 190 8 130 56 c 0
 71 106 71 106 36 190 c 0
 0 274 0 274 0 375 c 0
 0 576 0 576 124 687 c 0
 248 798 248 798 385 798 c 0
 522 798 522 798 640 690 c 0
EndSplineSet
Validated: 524289
EndChar

StartChar: u
Encoding: 117 117 89
Width: 585
VWidth: 0
GlyphClass: 2
Flags: HW
LayerCount: 3
Fore
SplineSet
489 800 m 29,0,-1
 489 760 l 5,1,-1
 469 780 l 5,2,-1
 509 780 l 1029,3,-1
60 80 m 29,0,-1
 60 40 l 5,1,-1
 40 60 l 5,2,-1
 80 60 l 1029,3,-1
217 -44 m 0
 428 -44 428 -44 428 780 c 1
 429 780 l 1
 428 756 428 756 446 738 c 0
 464 720 464 720 489 720 c 0
 514 720 514 720 532 738 c 0
 549 756 549 756 549 780 c 1
 548 -174 548 -174 214 -174 c 0
 0 -174 0 -174 0 48 c 0
 0 54 0 54 0 60 c 1
 0 36 0 36 18 18 c 0
 36 0 36 0 60 0 c 0
 84 0 84 0 102 18 c 0
 119 36 119 36 120 60 c 1
 120 49 l 2
 120 -44 120 -44 217 -44 c 0
120 60 m 1
 0 60 l 1
 0 84 0 84 18 102 c 0
 36 120 36 120 60 120 c 0
 84 120 84 120 102 102 c 0
 120 84 120 84 120 73 c 2
 120 60 l 1
549 780 m 1
 429 780 l 1
 429 804 429 804 447 822 c 0
 465 840 465 840 489 840 c 0
 513 840 513 840 531 822 c 0
 549 804 549 804 549 793 c 2
 549 780 l 1
EndSplineSet
Validated: 3
Layer: 2
SplineSet
291.913085938 1746.18457031 m 4
 357.490234375 1746.48242188 420.852539062 1717.75390625 482 1660 c 4
 550.186523438 1595.75390625 584.432617188 1510.96386719 584.740234375 1405.63085938 c 4
 585.099609375 1301.63085938 550.852539062 1218.84082031 482 1157.26074219 c 4
 418.852539062 1100.17382812 355.82421875 1071.44628906 292.913085938 1071.07714844 c 4
 231.82421875 1070.77929688 168.39453125 1099.5078125 102.625976562 1157.26074219 c 4
 35.728515625 1216.17382812 2.279296875 1298.29785156 2.279296875 1403.63085938 c 4
 2.279296875 1514.29785156 35.728515625 1599.75390625 102.625976562 1660 c 4
 166.39453125 1717.08691406 229.490234375 1745.81542969 291.913085938 1746.18457031 c 4
293.903320312 1197.13085938 m 4
 344.154296875 1197.46386719 385.49609375 1222.56054688 417.928710938 1272.41992188 c 4
 447.49609375 1317.89355469 461.75390625 1362.40820312 460.704101562 1405.96289062 c 4
 459.087890625 1463.74121094 447.279296875 1509.96386719 425.279296875 1544.63085938 c 4
 393.946289062 1595.29785156 349.8203125 1620.7265625 292.903320312 1620.91796875 c 4
 238.487304688 1620.7265625 196.612304688 1595.29785156 167.279296875 1544.63085938 c 4
 137.946289062 1493.29785156 123.553710938 1446.2265625 124.103515625 1403.41894531 c 4
 124.220703125 1357.56054688 138.329101562 1313.56054688 166.428710938 1271.41992188 c 4
 199.662109375 1221.56054688 242.154296875 1196.79785156 293.903320312 1197.13085938 c 4
EndSplineSet
Refer: 320 57346 S 1 0 0 1 396.279 1158.63 2
Refer: 320 57346 S 1 0 0 1 2.2793 1342.63 2
Refer: 320 57346 S 1 0 0 1 253.279 1073.63 2
Refer: 320 57346 S 1 0 0 1 212.913 1073.08 2
Refer: 320 57346 S 1 0 0 1 464.279 1342.63 2
Refer: 320 57346 S 1 0 0 1 29.2793 1474.63 2
Refer: 320 57346 S 1 0 0 1 432.279 1211.63 2
Refer: 320 57346 S 1 0 0 1 67.2793 1538.63 2
Refer: 320 57346 S 1 0 0 1 252.279 1623.63 2
Refer: 320 57346 S 1 0 0 1 217.279 1623.63 2
EndChar

StartChar: v
Encoding: 118 118 90
Width: 120
VWidth: 0
GlyphClass: 2
Flags: HW
LayerCount: 3
Fore
SplineSet
60 1715 m 29,0,-1
 60 1675 l 5,1,-1
 40 1695 l 5,2,-1
 80 1695 l 1029,3,-1
60 35 m 29,0,-1
 60 -5 l 5,1,-1
 40 15 l 5,2,-1
 80 15 l 1029,3,-1
0 15 m 1025
120 1695 m 1
 0 1695 l 1
 0 1720 0 1720 18 1738 c 0
 36 1756 36 1756 60 1756 c 0
 84 1756 84 1756 102 1738 c 0
 120 1720 120 1720 120 1708 c 2
 120 1695 l 1
120 1695 m 1
 120 15 l 2
 120 -10 120 -10 102 -28 c 0
 84 -46 84 -46 60 -46 c 0
 36 -46 36 -46 18 -28 c 0
 0 -10 0 -10 0 15 c 2
 0 1695 l 1
 0 1670 0 1670 18 1652 c 0
 36 1634 36 1634 60 1634 c 0
 84 1634 84 1634 102 1652 c 0
 120 1670 120 1670 120 1695 c 1
EndSplineSet
Validated: 3
EndChar

StartChar: w
Encoding: 119 119 91
Width: 120
VWidth: 0
GlyphClass: 2
Flags: HW
LayerCount: 3
Fore
SplineSet
60 1715 m 29,0,-1
 60 1675 l 5,1,-1
 40 1695 l 5,2,-1
 80 1695 l 1029,3,-1
60 35 m 29,0,-1
 60 -5 l 5,1,-1
 40 15 l 5,2,-1
 80 15 l 1029,3,-1
0 15 m 1025
120 1695 m 1
 0 1695 l 1
 0 1720 0 1720 18 1738 c 0
 36 1756 36 1756 60 1756 c 0
 84 1756 84 1756 102 1738 c 0
 120 1720 120 1720 120 1708 c 2
 120 1695 l 1
120 1695 m 1
 120 15 l 2
 120 -10 120 -10 102 -28 c 0
 84 -46 84 -46 60 -46 c 0
 36 -46 36 -46 18 -28 c 0
 0 -10 0 -10 0 15 c 2
 0 1695 l 1
 0 1670 0 1670 18 1652 c 0
 36 1634 36 1634 60 1634 c 0
 84 1634 84 1634 102 1652 c 0
 120 1670 120 1670 120 1695 c 1
EndSplineSet
Validated: 3
EndChar

StartChar: x
Encoding: 120 120 92
Width: 770
GlyphClass: 3
Flags: HW
LayerCount: 3
Fore
SplineSet
252 761 m 29,0,-1
 252 721 l 5,1,-1
 232 741 l 5,2,-1
 272 741 l 1029,3,-1
252 81 m 29,0,-1
 252 41 l 5,1,-1
 232 61 l 5,2,-1
 272 61 l 1029,3,-1
192 61 m 1025
596 315 m 0
 596 578 596 578 391 578 c 0
 389 578 389 578 388 578 c 2
 387 578 l 2
 346 578 346 578 312 564 c 1
 312 741 l 1
 312 717 312 717 294 699 c 0
 276 681 276 681 248 681 c 0
 220 681 220 681 201 709 c 1
 234 730 234 730 264 741 c 1
 192 741 l 1
 192 766 192 766 210 784 c 0
 228 802 228 802 252 802 c 0
 276 802 276 802 292 786 c 0
 308 770 308 770 310 754 c 1
 344 761 344 761 402 761 c 0
 521 761 521 761 640 653 c 0
 698 600 698 600 734 518 c 0
 770 436 770 436 770 338 c 0
 770 240 770 240 731 152 c 0
 692 64 692 64 632 17 c 0
 572 -30 572 -30 516 -58 c 0
 460 -86 460 -86 383 -86 c 0
 306 -86 306 -86 248 -58 c 0
 0 62 0 62 0 333 c 0
 0 336 0 336 0 338 c 0
 0 578 0 578 192 703 c 1
 192 423 l 1
 212 494 212 494 250 524 c 0
 288 554 288 554 312 564 c 1
 312 115 l 1
 224 144 224 144 192 251 c 1
 192 61 l 1
 312 61 l 1
 312 74 l 2
 312 86 312 86 294 104 c 0
 276 122 276 122 252 122 c 0
 228 122 228 122 210 104 c 0
 192 86 192 86 192 61 c 0
 192 36 192 36 210 18 c 0
 228 0 228 0 252 0 c 0
 276 0 276 0 294 18 c 0
 311 36 311 36 312 61 c 2
 312 74 l 1
 312 115 l 1
 346 104 346 104 396 104 c 0
 504 104 504 104 550 174 c 0
 596 244 596 244 596 315 c 0
192 251 m 1
 192 423 l 1
 180 382 180 382 180 336 c 0
 180 290 180 290 192 251 c 1
192 703 m 1
 192 741 l 1
 192 723 192 723 201 709 c 1
 197 706 197 706 192 703 c 1
EndSplineSet
Validated: 11
LCarets2: 1 -7
EndChar

StartChar: y
Encoding: 121 121 93
Width: 120
VWidth: 0
GlyphClass: 2
Flags: HW
LayerCount: 3
Fore
SplineSet
60 200 m 29,0,-1
 60 160 l 5,1,-1
 40 180 l 5,2,-1
 80 180 l 1029,3,-1
60 80 m 29,0,-1
 60 40 l 5,1,-1
 40 60 l 5,2,-1
 80 60 l 1029,3,-1
0 60 m 1025
60 120 m 0
 84 120 84 120 102 138 c 0
 119 156 119 156 120 180 c 1
 120 60 l 2
 120 36 120 36 102 18 c 0
 84 0 84 0 60 0 c 0
 36 0 36 0 18 18 c 0
 0 36 0 36 0 60 c 2
 0 180 l 1
 0 156 0 156 18 138 c 0
 36 120 36 120 60 120 c 0
0 180 m 1
 0 204 0 204 18 222 c 0
 36 240 36 240 60 240 c 0
 84 240 84 240 102 222 c 0
 120 204 120 204 120 193 c 2
 120 180 l 1
 0 180 l 1
EndSplineSet
Validated: 3
EndChar

StartChar: z
Encoding: 122 122 94
Width: 555
GlyphClass: 2
Flags: HW
LayerCount: 3
Fore
SplineSet
0 306 m 0
 0 450 0 450 89 530 c 0
 178 610 178 610 276 610 c 0
 374 610 374 610 464 528 c 0
 554 446 554 446 555 306 c 0
 554 236 554 236 526 172 c 0
 498 108 498 108 455 74 c 0
 412 40 412 40 373 20 c 0
 335.857421875 0.9521484375 335.857421875 0.9521484375 308.69140625 0.9521484375 c 0,0,0
 307.333007812 0.9521484375 307.333007812 0.9521484375 306 1 c 0
 278 1 278 1 276 1 c 0
 185 1 185 1 91 79 c 0
 52 114 52 114 26 174 c 0
 0 234 0 234 0 306 c 0
181 183 m 0
 220 122 220 122 281 122 c 0
 342 122 342 122 376 178 c 0
 410 234 410 234 409 297 c 0
 410 360 410 360 376 418 c 0
 342 476 342 476 282 476 c 0
 222 476 222 476 182 416 c 0
 142 356 142 356 142 300 c 0
 142 244 142 244 181 183 c 0
EndSplineSet
Validated: 524321
EndChar

StartChar: braceleft
Encoding: 123 123 95
Width: 792
GlyphClass: 2
Flags: HW
LayerCount: 3
Fore
SplineSet
60 1102 m 29,0,-1
 60 1062 l 5,1,-1
 40 1082 l 5,2,-1
 80 1082 l 1029,3,-1
732 2829 m 29,0,-1
 732 2789 l 5,1,-1
 712 2809 l 5,2,-1
 752 2809 l 1029,3,-1
732 -541 m 29,0,-1
 732 -581 l 5,1,-1
 712 -561 l 5,2,-1
 752 -561 l 1029,3,-1
0 1082 m 0
 0 1106 0 1106 18 1124 c 0
 36 1142 36 1142 48 1142 c 2
 60 1142 l 1
 60 1143 l 1
 124 1143 l 2
 244 1143 244 1143 290 1186 c 0
 336 1229 336 1229 336 1358 c 2
 336 2567 l 2
 336 2746 336 2746 404 2808 c 0
 470.920634921 2869.01587302 470.920634921 2869.01587302 666.652557319 2869.01587302 c 0,0,0
 669.80952381 2869.01587302 669.80952381 2869.01587302 673 2869 c 0
 676 2869 676 2869 680 2869 c 2
 732 2869 l 1
 708 2868 708 2868 690 2850 c 0
 672 2832 672 2832 672 2808 c 0
 672 2784 672 2784 689 2767 c 0
 706 2750 706 2750 727 2749 c 1
 675 2749 l 2
 535 2749 535 2749 502 2715 c 0
 469 2681 469 2681 469 2564 c 2
 469 1348 l 2
 469 1220 469 1220 432 1162 c 0
 395 1104 395 1104 314 1082 c 1
 385 1060 385 1060 427 1002 c 0
 469 944 469 944 469 816 c 2
 469 -313 l 2
 469 -409 469 -409 524 -466 c 0
 560 -501 560 -501 675 -501 c 2
 726.213296399 -501 l 1
 706.105263158 -501.894736842 706.105263158 -501.894736842 690 -518 c 0
 672 -536 672 -536 672 -561 c 0
 672 -586 672 -586 689 -603 c 0
 706 -620 706 -620 716 -621 c 1
 680 -621 l 2
 478 -621 478 -621 407 -560 c 0
 336 -499 336 -499 336 -316 c 2
 336 805 l 2
 336 930 336 930 293 976 c 0
 249 1021 249 1021 124 1022 c 2
 48 1022 l 2
 36 1022 36 1022 18 1040 c 0
 0 1058 0 1058 0 1082 c 0
732 -501 m 1
 756 -500 756 -500 774 -518 c 0
 792 -536 792 -536 792 -560 c 0
 792 -584 792 -584 774 -602 c 0
 756 -620 756 -620 732 -621 c 1
 732 -501 l 1
732 2749 m 1
 732 2869 l 1
 756 2869 756 2869 774 2851 c 0
 792 2833 792 2833 792 2809 c 0
 792 2785 792 2785 774 2767 c 0
 756 2749 756 2749 732 2749 c 1
726.213296399 -501 m 1
 731 -501 l 1
 728.578947368 -500.894736842 728.578947368 -500.894736842 726.213296399 -501 c 1
EndSplineSet
Validated: 524291
EndChar

StartChar: bar
Encoding: 124 124 96
Width: 120
GlyphClass: 2
Flags: HW
LayerCount: 3
Fore
SplineSet
60 3270 m 29,0,-1
 60 3230 l 5,1,-1
 40 3250 l 5,2,-1
 80 3250 l 1029,3,-1
60 -980 m 29,0,-1
 60 -1020 l 5,1,-1
 40 -1000 l 5,2,-1
 80 -1000 l 1029,3,-1
120 3250 m 1
 120 -1000 l 2
 120 -1024 120 -1024 102 -1042 c 0
 84 -1060 84 -1060 60 -1060 c 0
 36 -1060 36 -1060 18 -1042 c 0
 0 -1024 0 -1024 0 -1000 c 2
 0 3250 l 1
 0 3226 0 3226 18 3208 c 0
 36 3190 36 3190 60 3190 c 0
 84 3190 84 3190 102 3208 c 0
 120 3226 120 3226 120 3250 c 1
120 3250 m 1
 0 3250 l 1
 0 3274 0 3274 18 3292 c 0
 36 3310 36 3310 60 3310 c 0
 84 3310 84 3310 102 3292 c 0
 120 3274 120 3274 120 3263 c 2
 120 3250 l 1
EndSplineSet
Validated: 3
EndChar

StartChar: braceright
Encoding: 125 125 97
Width: 793
GlyphClass: 2
Flags: HW
LayerCount: 3
Fore
SplineSet
61 2789 m 29,0,-1
 61 2829 l 5,1,-1
 81 2809 l 5,2,-1
 41 2809 l 1029,3,-1
60 -581 m 29,0,-1
 60 -541 l 5,1,-1
 80 -561 l 5,2,-1
 40 -561 l 1029,3,-1
732 1146 m 29,0,-1
 732 1186 l 5,1,-1
 752 1166 l 5,2,-1
 712 1166 l 1029,3,-1
60 2869 m 1
 60 2749 l 1
 36 2748 36 2748 18 2766 c 0
 0 2784 0 2784 1 2808 c 0
 1 2832 1 2832 18 2850 c 0
 35 2868 35 2868 60 2869 c 1
775 1208 m 0
 793 1190 793 1190 793 1166 c 0
 793 1142 793 1142 774 1124 c 0
 756 1106 756 1106 744 1106 c 2
 732 1106 l 1
 732 1105 l 1
 668 1105 l 2
 548 1104 548 1104 502 1062 c 0
 456 1020 456 1020 456 890 c 2
 456 -319 l 2
 456 -498 456 -498 388 -560 c 0
 321.079101562 -621.015625 321.079101562 -621.015625 125.34765625 -621.015625 c 0,0,0
 122.190429688 -621.015625 122.190429688 -621.015625 119 -621 c 0
 116 -621 116 -621 113 -621 c 2
 64.986328125 -621 l 1
 85.89453125 -620.10546875 85.89453125 -620.10546875 102 -604 c 0
 120 -586 120 -586 120 -561 c 0
 121 -536 121 -536 103 -518 c 0
 86.89453125 -501.89453125 86.89453125 -501.89453125 65.185546875 -501 c 1
 117 -501 l 2
 257 -501 257 -501 290 -467 c 0
 323 -433 323 -433 323 -316 c 2
 323 900 l 2
 323 1028 323 1028 360 1086 c 0
 397 1144 397 1144 478 1166 c 1
 407 1188 407 1188 365 1246 c 0
 323 1304 323 1304 323 1432 c 2
 323 2561 l 2
 323 2657 323 2657 268 2714 c 0
 232 2749 232 2749 117 2749 c 2
 61 2749 l 1
 85 2750 85 2750 103 2767 c 0
 121 2784 121 2784 121 2809 c 0
 121 2834 121 2834 104 2851 c 0
 87 2868 87 2868 76 2869 c 1
 113 2869 l 2
 116 2869 116 2869 119 2869 c 0
 315 2869 315 2869 386 2808 c 0
 456 2746 456 2746 456 2564 c 2
 456 1443 l 2
 456 1440 456 1440 456 1437 c 0
 456 1316 456 1316 499 1271 c 0
 543 1226 543 1226 668 1226 c 2
 732 1226 l 1
 707 1226 707 1226 689 1208 c 0
 671 1190 671 1190 671 1166 c 0
 671 1142 671 1142 690 1124 c 0
 708 1106 708 1106 732 1106 c 1
 732 1226 l 1
 744 1226 l 2
 757 1226 757 1226 775 1208 c 0
60 -501 m 1
 60 -621 l 1
 36 -621 36 -621 18 -603 c 0
 0 -585 0 -585 0 -561 c 0
 0 -537 0 -537 18 -519 c 0
 36 -501 36 -501 60 -501 c 1
60 -501 m 1
 65.185546875 -501 l 1
 62.6318359375 -500.89453125 62.6318359375 -500.89453125 60 -501 c 1
64.986328125 -621 m 1
 60 -621 l 1
 62.5263671875 -621.10546875 62.5263671875 -621.10546875 64.986328125 -621 c 1
EndSplineSet
Validated: 524291
EndChar

StartChar: asciitilde
Encoding: 126 126 98
Width: 1118
GlyphClass: 2
Flags: HW
LayerCount: 3
Fore
SplineSet
80 896 m 29,0,-1
 40 896 l 5,1,-1
 60 916 l 5,2,-1
 60 876 l 1029,3,-1
579 894 m 29,0,-1
 539 894 l 5,1,-1
 559 914 l 5,2,-1
 559 874 l 1029,3,-1
1038 910 m 29,0,-1
 1078 910 l 5,1,-1
 1058 890 l 5,2,-1
 1058 930 l 1029,3,-1
539 912 m 29,0,-1
 579 912 l 5,1,-1
 559 892 l 5,2,-1
 559 932 l 1029,3,-1
500 904 m 1
 503 922 503 922 519 938 c 0
 535 954 535 954 555 954 c 0
 575 954 575 954 590 946 c 1
 590 945 l 1
 615 929 615 929 619 902 c 1
 620 907 620 907 619 912 c 0
 619 947 619 947 589 964 c 1
 585 958 585 958 581 951 c 1
 562 961 562 961 544 970 c 1
 551 972 551 972 563 972 c 0
 575 972 575 972 589 964 c 1
 589 965 589 965 589 966 c 1
 701 903 701 903 813 903 c 0
 925 903 925 903 1028 963 c 1
 1029 962 l 1
 999 944 999 944 999 915 c 0
 999 886 999 886 1017 868 c 0
 1035 850 1035 850 1055 850 c 0
 1075 850 1075 850 1082 854 c 0
 1089 858 1089 858 1089 856 c 0
 961 782 961 782 823 782 c 0
 685 782 685 782 574 836 c 1
 551 830 551 830 529 840 c 0
 417 903 417 903 306 903 c 0
 195 903 195 903 90 843 c 0
 73 836 73 836 55 836 c 0
 37 836 37 836 19 854 c 0
 1 872 1 872 0 900 c 0
 0 929 0 929 30 948 c 1
 29 949 29 949 29 950 c 0
 157 1024 157 1024 295 1024 c 0
 433 1024 433 1024 544 970 c 1
 529 966 529 966 514 951 c 0
 499 936 499 936 499 922 c 0
 499 908 499 908 500 904 c 1
1029 962 m 1
 1042 970 1042 970 1062 970 c 0
 1082 970 1082 970 1100 952 c 0
 1118 934 1118 934 1118 905 c 0
 1118 876 1118 876 1088 858 c 1
 1058 911 1058 911 1029 962 c 1
EndSplineSet
Validated: 3
EndChar

StartChar: exclamdown
Encoding: 161 161 100
Width: 203
GlyphClass: 2
Flags: HW
LayerCount: 3
Fore
SplineSet
0 0 m 1
 0 655 l 1
 21 1012 l 1
 182 1012 l 1
 203 655 l 1
 203 0 l 1
 0 0 l 1
0 1239 m 1
 0 1493 l 1
 203 1493 l 1
 203 1239 l 1
 0 1239 l 1
EndSplineSet
Validated: 1
EndChar

StartChar: cent
Encoding: 162 162 101
Width: 848
GlyphClass: 2
Flags: HW
LayerCount: 3
Fore
SplineSet
485 127 m 1
 485 991 l 1
 353 978 353 978 273 860 c 0
 193 742 193 742 193 559 c 0
 193 376 193 376 273 258 c 0
 353 140 353 140 485 127 c 1
588 1145 m 1
 703 1139 703 1139 848 1077 c 1
 848 905 l 1
 716 983 716 983 588 993 c 1
 588 123 l 1
 715 132 715 132 848 213 c 1
 848 41 l 1
 703 -21 703 -21 588 -27 c 1
 588 -313 l 1
 485 -313 l 1
 485 -27 l 1
 260 -4 260 -4 130 152 c 0
 0 308 0 308 0 558 c 0
 0 808 0 808 131 968 c 0
 263 1126 263 1126 485 1145 c 1
 485 1432 l 1
 588 1432 l 1
 588 1145 l 1
EndSplineSet
Validated: 1
EndChar

StartChar: sterling
Encoding: 163 163 102
Width: 973
GlyphClass: 2
Flags: HW
LayerCount: 3
Fore
SplineSet
678 1520 m 0
 804 1520 804 1520 953 1462 c 1
 953 1278 l 1
 829 1366 829 1366 696 1366 c 0
 563 1366 563 1366 499 1278 c 0
 435.984375 1191.35351562 435.984375 1191.35351562 435.984375 1006.79101562 c 0,0,0
 435.984375 1003.90722656 435.984375 1003.90722656 436 1001 c 0
 436 998 436 998 436 995 c 2
 436 778 l 1
 807 778 l 1
 807 635 l 1
 436 635 l 1
 436 170 l 1
 973 170 l 1
 973 0 l 1
 0 0 l 1
 0 170 l 1
 236 170 l 1
 236 635 l 1
 37 635 l 1
 37 778 l 1
 236 778 l 1
 236 1016 l 2
 236 1269 236 1269 345 1395 c 0
 456 1520 456 1520 678 1520 c 0
EndSplineSet
Validated: 524289
EndChar

StartChar: currency
Encoding: 164 164 103
Width: 895
GlyphClass: 2
Flags: HW
LayerCount: 3
Fore
SplineSet
260 922 m 1
 351 983 351 983 445 983 c 0
 539 983 539 983 639 924 c 1
 805 1090 l 1
 895 997 l 1
 729 831 l 1
 788 734 788 734 788 638 c 0
 788 542 788 542 727 455 c 1
 895 289 l 1
 801 195 l 1
 635 362 l 1
 544 301 544 301 449 301 c 0
 354 301 354 301 256 358 c 1
 92 195 l 1
 0 285 l 1
 166 451 l 1
 106 548 106 548 106 645 c 0
 106 742 106 742 168 829 c 1
 0 995 l 1
 94 1090 l 1
 260 922 l 1
295 488 m 0
 359 426 359 426 449 426 c 0
 539 426 539 426 601 490 c 0
 663 554 663 554 663 644 c 0
 663 734 663 734 601 795 c 0
 539 856 539 856 448 856 c 0
 357 856 357 856 295 795 c 0
 233 734 233 734 233 643 c 0
 233 552 233 552 295 488 c 0
EndSplineSet
Validated: 1
EndChar

StartChar: yen
Encoding: 165 165 104
Width: 1159
GlyphClass: 2
Flags: HW
LayerCount: 3
Fore
SplineSet
0 1493 m 1
 215 1493 l 1
 579 834 l 1
 942 1493 l 1
 1159 1493 l 1
 829 932 l 1
 1081 932 l 1
 1081 821 l 1
 766 821 l 1
 680 670 l 1
 680 635 l 1
 1081 635 l 1
 1081 524 l 1
 680 524 l 1
 680 0 l 1
 477 0 l 1
 477 524 l 1
 78 524 l 1
 78 635 l 1
 477 635 l 1
 477 670 l 1
 387 821 l 1
 78 821 l 1
 78 932 l 1
 321 932 l 1
 0 1493 l 1
EndSplineSet
Validated: 1
EndChar

StartChar: brokenbar
Encoding: 166 166 105
Width: 172
GlyphClass: 2
Flags: HW
LayerCount: 3
Fore
SplineSet
172 408 m 1
 172 -350 l 1
 0 -350 l 1
 0 408 l 1
 172 408 l 1
172 1432 m 1
 172 674 l 1
 0 674 l 1
 0 1432 l 1
 172 1432 l 1
EndSplineSet
Validated: 1
EndChar

StartChar: section
Encoding: 167 167 106
Width: 837
GlyphClass: 2
Flags: HW
LayerCount: 3
Fore
SplineSet
551.014648438 410 m 1
 673.014648438 500 673.014648438 500 673.014648438 584 c 0
 673.014648438 668 673.014648438 668 601.014648438 736 c 0
 529.014648438 804 529.014648438 804 286.014648438 936 c 1
 163.014648438 844 163.014648438 844 163.014648438 762 c 0
 163.014648438 680 163.014648438 680 233.014648438 610 c 1
 308.014648438 541 308.014648438 541 551.014648438 410 c 1
184.014648438 1006 m 1
 65.0146484375 1090 65.0146484375 1090 65.0146484375 1226 c 0
 65.0146484375 1362 65.0146484375 1362 165.014648438 1441 c 0
 265.014648438 1520 265.014648438 1520 420.014648438 1520 c 0
 575.014648438 1520 575.014648438 1520 737.014648438 1462 c 1
 737.014648438 1298 l 1
 573.014648438 1376 573.014648438 1376 465.014648438 1376 c 0
 357.014648438 1376 357.014648438 1376 303.014648438 1336 c 0
 249.997070312 1296.72753906 249.997070312 1296.72753906 249.997070312 1227.57128906 c 0,0,0
 249.997070312 1135.00976562 249.997070312 1135.00976562 455.014648438 1020 c 0
 479.014648438 1006 479.014648438 1006 495.014648438 997 c 0
 707.014648438 878 707.014648438 878 772.014648438 801 c 0
 837.014648438 724 837.014648438 724 837.014648438 623 c 0
 837.014648438 443 837.014648438 443 653.014648438 340 c 1
 772.014648438 238 772.014648438 238 772.014648438 106 c 0
 772.014648438 -26 772.014648438 -26 670.014648438 -110 c 0
 568.014648438 -194 568.014648438 -194 411.014648438 -195 c 0
 254.014648438 -195 254.014648438 -195 80.0146484375 -137 c 1
 80.0146484375 27 l 1
 253.014648438 -51 253.014648438 -51 363.014648438 -51 c 0
 473.014648438 -51 473.014648438 -51 531.014648438 -9 c 0
 587.014648438 33 587.014648438 33 587.014648438 109 c 0
 587.014648438 211 587.014648438 211 366.014648438 334 c 1
 342.014648438 348 l 1
 131.014648438 466 131.014648438 466 65.0146484375 543 c 0
 0 618.850585938 0 618.850585938 0 717.020507812 c 0,0,0
 0 905.9921875 0 905.9921875 184.014648438 1006 c 1
EndSplineSet
Validated: 524289
EndChar

StartChar: dieresis
Encoding: 168 168 107
Width: 594
GlyphClass: 2
Flags: HW
LayerCount: 3
Fore
SplineSet
392 1552 m 1
 594 1552 l 1
 594 1350 l 1
 392 1350 l 1
 392 1552 l 1
0 1552 m 1
 203 1552 l 1
 203 1350 l 1
 0 1350 l 1
 0 1552 l 1
EndSplineSet
Validated: 1
EndChar

StartChar: copyright
Encoding: 169 169 108
Width: 1233
GlyphClass: 2
Flags: HW
LayerCount: 3
Fore
SplineSet
936 1291 m 29,0,-1
 936 1331 l 5,1,-1
 916 1311 l 5,2,-1
 956 1311 l 1029,3,-1
751 358 m 29,0,-1
 737 396 l 5,1,-1
 725 370 l 5,2,-1
 763 384 l 1029,3,-1
766 321 m 1
 747 370 747 370 735 402 c 2
 723 434 l 1
 723 433 l 1
 700 424 700 424 690 402 c 0
 680 380 680 380 689 357 c 0
 698 334 698 334 720 323 c 0
 739.376654266 313.311672867 739.376654266 313.311672867 750.995979462 316.035072049 c 1
 706.626646796 302.000000315 706.626646796 302.000000315 666 302 c 0
 568 302 568 302 490 391 c 0
 413 480 413 480 413 629 c 0
 413 787 413 787 500 909 c 0
 571 1010 571 1010 743 1010 c 0
 813 1010 813 1010 866 987 c 0
 967 943 967 943 1002 872 c 0
 1074 727 1074 727 1074 476 c 0
 1074 422 1074 422 1071 363 c 0
 1062 186 1062 186 954 70 c 0
 846 -46 846 -46 674 -46 c 0
 399 -46 399 -46 243 148 c 0
 88 342 88 342 88 677 c 0
 88 1012 88 1012 264 1209 c 0
 444 1410 444 1410 759 1410 c 0
 857 1410 857 1410 959 1368 c 1
 958 1367 l 1
 996 1352 996 1352 996 1319 c 0
 996 1286 996 1286 978 1268 c 0
 960 1250 960 1250 944 1251 c 0
 928 1251 928 1251 918 1253 c 0
 829 1288 829 1288 736 1288 c 0
 496 1288 496 1288 355 1121 c 0
 214 954 214 954 214 674 c 0
 214 394 214 394 339 230 c 0
 464 66 464 66 655 66 c 0
 976.003095975 66 976.003095975 66 976.003095975 518.187023742 c 0,0,0
 976.003095975 596.97551365 976.003095975 596.97551365 965 684 c 0
 953 771 953 771 896 849 c 0
 870 888 870 888 756 888 c 0
 642 888 642 888 586 822 c 0
 530 756 530 756 530 638 c 0
 530 520 530 520 585 475 c 0
 640 430 640 430 690 430 c 0
 706 430 706 430 723 434 c 0
 746 444 746 444 769 432 c 0
 792 420 792 420 800 397 c 0
 808 374 808 374 798 352 c 0
 788 330 788 330 766 321 c 1
750.995979462 316.035072049 m 1
 752.569084219 316.403784746 752.569084219 316.403784746 754 317 c 1
 752.495851334 316.509516739 752.495851334 316.509516739 750.995979462 316.035072049 c 1
EndSplineSet
Validated: 524291
Layer: 2
SplineSet
864 1071 m 5
 864 963 l 5
 823.333333333 983 785.333333333 996.666666667 750 1004 c 4
 716.666666667 1013.33333333 679 1018 637 1018 c 4
 559.666666667 1018 498 993.333333333 452 944 c 4
 407.333333333 893.333333333 385 825.666666667 385 741 c 4
 385 652.333333333 408.333333333 584.666666667 455 538 c 4
 502.333333333 490.666666667 569 467 655 467 c 4
 693.666666667 467 729.333333333 471.333333333 762 480 c 4
 796 488 830 500.666666667 864 518 c 5
 864 414 l 5
 826 398 789.666666667 386.666666667 755 380 c 4
 715 372.666666667 675.666666667 369 637 369 c 4
 515.666666667 369 421.333333333 402.333333333 354 469 c 4
 284.666666667 535.666666667 250 626.333333333 250 741 c 4
 250 856.333333333 284.666666667 947.666666667 354 1015 c 132
 423.333333333 1082.33333333 517.666666667 1116 637 1116 c 4
 675.666666667 1116 715 1112.33333333 755 1105 c 4
 789.666666667 1098.33333333 826 1087 864 1071 c 5
616 1255 m 4
 544.666666667 1255 479.333333333 1242.66666667 420 1218 c 4
 358.666666667 1192.66666667 303.333333333 1155.33333333 254 1106 c 4
 204 1056 166 1000.33333333 140 939 c 4
 114.666666667 877 102 811 102 741 c 4
 102 671.666666667 114.666666667 606.666666667 140 546 c 132
 165.333333333 485.333333333 203.333333333 429.666666667 254 379 c 4
 305.333333333 327.666666667 360.666666667 289.666666667 420 265 c 4
 482 239.666666667 547.333333333 227 616 227 c 4
 686 227 751.333333333 239.666666667 812 265 c 4
 872 289.666666667 927.666666667 327.666666667 979 379 c 4
 1031 431 1068.66666667 486.666666667 1092 546 c 4
 1117.33333333 604.666666667 1130 669.666666667 1130 741 c 4
 1130 811 1117.33333333 877 1092 939 c 4
 1066.66666667 999.666666667 1029 1055.33333333 979 1106 c 4
 929.666666667 1155.33333333 874.666666667 1192.66666667 814 1218 c 4
 754 1242.66666667 688 1255 616 1255 c 4
616 1358 m 4
 700 1358 778.666666667 1343 852 1313 c 4
 924.666666667 1283 991 1238 1051 1178 c 4
 1110.33333333 1117.33333333 1155.66666667 1050.33333333 1187 977 c 4
 1217.66666667 905 1233 826.333333333 1233 741 c 4
 1233 657.666666667 1218 579.666666667 1188 507 c 4
 1156.66666667 434.333333333 1111 367.666666667 1051 307 c 4
 990.333333333 247 923.666666667 201.333333333 851 170 c 4
 778.333333333 140 700 125 616 125 c 4
 533.333333333 125 455.333333333 140 382 170 c 4
 308.666666667 201.333333333 242 247 182 307 c 4
 121.333333333 367.666666667 76 434.333333333 46 507 c 4
 15.3333333333 579 0 657 0 741 c 4
 0 826.333333333 15.3333333333 905 46 977 c 4
 77.3333333333 1050.33333333 122.666666667 1117.33333333 182 1178 c 4
 242 1238 308.333333333 1283 381 1313 c 4
 454.333333333 1343 532.666666667 1358 616 1358 c 4
EndSplineSet
EndChar

StartChar: ordfeminine
Encoding: 170 170 109
Width: 691
GlyphClass: 2
Flags: HW
LayerCount: 3
Fore
SplineSet
23 592 m 1
 691 592 l 1
 691 469 l 1
 23 469 l 1
 23 592 l 1
62 1464 m 1
 193 1520 193 1520 328 1520 c 0
 512 1520 512 1520 598 1434 c 0
 684 1348 684 1348 684 1165 c 2
 684 717 l 1
 541 717 l 1
 541 829 l 1
 442 698 442 698 279 698 c 0
 151 698 151 698 75 766 c 0
 0 834 0 834 0 956 c 0
 0 1078 0 1078 93 1148 c 0
 186 1218 186 1218 359 1219 c 2
 541 1219 l 1
 541 1223 l 2
 541 1405 541 1405 305 1405 c 0
 202 1405 202 1405 62 1337 c 1
 62 1464 l 1
146 964 m 0
 146 817 146 817 321 817 c 0
 410 817 410 817 476 888 c 0
 541 961 541 961 541 1075 c 2
 541 1104 l 1
 414 1104 l 2
 270 1104 270 1104 208 1070 c 0
 146 1036 146 1036 146 964 c 0
EndSplineSet
Validated: 1
EndChar

StartChar: guillemotleft
Encoding: 171 171 110
Width: 923
GlyphClass: 2
Flags: HW
LayerCount: 3
Fore
SplineSet
923 1059 m 1
 923 868 l 1
 622 600 l 1
 923 332 l 1
 923 141 l 1
 454 559 l 1
 454 641 l 1
 923 1059 l 1
469 1059 m 1
 469 868 l 1
 168 600 l 1
 469 332 l 1
 469 141 l 1
 0 559 l 1
 0 641 l 1
 469 1059 l 1
EndSplineSet
Validated: 1
EndChar

StartChar: logicalnot
Encoding: 172 172 111
Width: 1057
GlyphClass: 2
Flags: HW
LayerCount: 3
Fore
SplineSet
0 862 m 1
 1057 862 l 1
 1057 371 l 1
 889 371 l 1
 889 690 l 1
 0 690 l 1
 0 862 l 1
EndSplineSet
Validated: 1
EndChar

StartChar: uni00AD
Encoding: 173 173 112
Width: 521
GlyphClass: 2
Flags: HW
LayerCount: 3
Fore
SplineSet
0 643 m 1
 521 643 l 1
 521 479 l 1
 0 479 l 1
 0 643 l 1
EndSplineSet
Validated: 1
EndChar

StartChar: registered
Encoding: 174 174 113
Width: 1233
GlyphClass: 2
Flags: HW
LayerCount: 3
Fore
SplineSet
1130 742 m 0
 1130 954 1130 954 980 1104 c 0
 830 1254 830 1254 616 1254 c 0
 402 1254 402 1254 252 1104 c 0
 102 954 102 954 102 742 c 0
 102 530 102 530 254 378 c 0
 405.006535948 226.993464052 405.006535948 226.993464052 613.25737964 226.993464052 c 0,0,0
 614.62745098 226.993464052 614.62745098 226.993464052 616 227 c 0
 617 227 617 227 619 227 c 0
 827 227 827 227 978 378 c 0
 1130 530 1130 530 1130 742 c 0
616 1358 m 0
 870 1358 870 1358 1051 1178 c 0
 1233 992 1233 992 1233 742 c 0
 1233 492 1233 492 1051 307 c 0
 868 125 868 125 616 125 c 0
 614.62295082 124.994535519 614.62295082 124.994535519 613.247991878 124.994535519 c 0,0,0
 363.005464481 124.994535519 363.005464481 124.994535519 182 306 c 0
 0 488 0 488 0 740 c 0
 0 992 0 992 181 1175 c 0
 362 1358 362 1358 616 1358 c 0
594 1016 m 2
 492 1016 l 1
 492 784 l 1
 594 784 l 2
 684 784 684 784 721 811 c 0
 758 838 758 838 758 900 c 0
 758 962 758 962 721 990 c 0
 683 1016 683 1016 594 1016 c 2
600 1100 m 2
 891 1100 891 1100 891 898 c 0
 891 829 891 829 848 783 c 0
 804 738 804 738 723 723 c 1
 760 713 760 713 838 592 c 2
 952 406 l 1
 809 406 l 1
 702 580 l 2
 652 662 652 662 622 682 c 0
 592 702 592 702 547 702 c 2
 492 702 l 1
 492 406 l 1
 362 406 l 1
 362 1100 l 1
 600 1100 l 2
EndSplineSet
Validated: 524289
EndChar

StartChar: macron
Encoding: 175 175 114
Width: 598
GlyphClass: 2
Flags: HW
LayerCount: 3
Fore
SplineSet
0 1526 m 1
 598 1526 l 1
 598 1378 l 1
 0 1378 l 1
 0 1526 l 1
EndSplineSet
Validated: 1
EndChar

StartChar: degree
Encoding: 176 176 115
Width: 636
GlyphClass: 2
Flags: HW
LayerCount: 3
Fore
SplineSet
453 1334 m 0
 396 1390 396 1390 318 1391 c 0
 316.631835938 1391.01757812 316.631835938 1391.01757812 315.26953125 1391.01757812 c 0,0,0
 239.017578125 1391.01757812 239.017578125 1391.01757812 184 1336 c 0
 128 1280 128 1280 128 1200 c 0
 128 1120 128 1120 183 1066 c 0
 238 1012 238 1012 318 1012 c 0
 398 1012 398 1012 454 1067 c 0
 509.017578125 1121.03515625 509.017578125 1121.03515625 509.017578125 1197.27050781 c 0,0,0
 509.017578125 1277.98242188 509.017578125 1277.98242188 453 1334 c 0
318 1520 m 0
 382 1520 382 1520 442 1494 c 0
 564 1442 564 1442 612 1323 c 0
 636 1266 636 1266 636 1200 c 0
 636 1069 636 1069 543 976 c 0
 449 885 449 885 315 885 c 0
 313.516601562 884.989257812 313.516601562 884.989257812 312.038085938 884.989257812 c 0,0,0
 179.010742188 884.989257812 179.010742188 884.989257812 90 974 c 0
 0 1064 0 1064 0 1198 c 0
 0 1332 0 1332 92 1426 c 0
 184 1520 184 1520 318 1520 c 0
EndSplineSet
Validated: 524289
EndChar

StartChar: plusminus
Encoding: 177 177 116
Width: 1057
GlyphClass: 2
Flags: HW
LayerCount: 3
Fore
SplineSet
612 1171 m 1
 612 842 l 1
 1057 842 l 1
 1057 672 l 1
 612 672 l 1
 612 340 l 1
 444 340 l 1
 444 672 l 1
 0 672 l 1
 0 842 l 1
 444 842 l 1
 444 1171 l 1
 612 1171 l 1
0 170 m 1
 1057 170 l 1
 1057 0 l 1
 0 0 l 1
 0 170 l 1
EndSplineSet
Validated: 1
EndChar

StartChar: uni00B2
Encoding: 178 178 117
Width: 571
GlyphClass: 2
Flags: HW
LayerCount: 3
Fore
SplineSet
6 1464 m 1
 134 1520 134 1520 264 1520 c 0
 394 1520 394 1520 480 1453 c 0
 566 1386 566 1386 565 1280 c 0
 566 1222 566 1222 528 1163 c 0
 490 1104 490 1104 372 987 c 2
 161 782 l 1
 571 782 l 1
 571 668 l 1
 0 668 l 1
 0 778 l 1
 231 1004 l 2
 337 1106 337 1106 375 1164 c 0
 413 1222 413 1222 413 1278 c 0
 413 1334 413 1334 363 1372 c 0
 313 1410 313 1410 222 1410 c 0
 131 1410 131 1410 6 1339 c 1
 6 1464 l 1
EndSplineSet
Validated: 33
EndChar

StartChar: uni00B3
Encoding: 179 179 118
Width: 598
GlyphClass: 2
Flags: HW
LayerCount: 3
Fore
SplineSet
577 1303 m 0
 577 1160 577 1160 405 1120 c 1
 598 1077 598 1077 598 911 c 0
 598 788 598 788 505 720 c 0
 413.34765625 652.985351562 413.34765625 652.985351562 241.083984375 652.985351562 c 0,0,0
 238.55078125 652.985351562 238.55078125 652.985351562 236 653 c 0
 233 653 233 653 231 653 c 0
 125 653 125 653 0 694 c 1
 0 815 l 1
 135 762 135 762 231 762 c 0
 327 762 327 762 387 802 c 0
 446 844 446 844 446 911 c 0
 446 1061 446 1061 227 1061 c 2
 161 1061 l 1
 161 1169 l 1
 235 1169 l 2
 426 1169 426 1169 426 1292 c 0
 426 1347 426 1347 378 1380 c 0
 328 1411 328 1411 239 1411 c 0
 150 1411 150 1411 28 1364 c 1
 28 1485 l 1
 176 1520 176 1520 264 1520 c 0
 408 1520 408 1520 492 1461 c 0
 576 1402 576 1402 577 1303 c 0
EndSplineSet
Validated: 524289
EndChar

StartChar: acute
Encoding: 180 180 119
Width: 479
GlyphClass: 2
Flags: HW
LayerCount: 3
Fore
SplineSet
281 1638 m 1
 479 1638 l 1
 154 1262 l 1
 0 1262 l 1
 281 1638 l 1
EndSplineSet
Validated: 1
EndChar

StartChar: mu
Encoding: 181 181 120
Width: 987
GlyphClass: 2
Flags: HW
LayerCount: 3
Fore
SplineSet
698 129 m 1
 606 -29 606 -29 429 -29 c 0
 252 -29 252 -29 167 127 c 1
 167 -428 l 1
 0 -428 l 1
 0 1120 l 1
 184 1120 l 1
 184 424 l 2
 184 282 184 282 244 206 c 0
 303.220703125 130.987304688 303.220703125 130.987304688 409.203125 130.987304688 c 0,0,0
 410.59765625 130.987304688 410.59765625 130.987304688 412 131 c 0
 413 131 413 131 415 131 c 0
 671 131 671 131 671 467 c 2
 671 1120 l 1
 856 1120 l 1
 856 256 l 2
 856 141 856 141 921 141 c 0
 941 141 941 141 987 164 c 1
 987 16 l 1
 913 -29 913 -29 847 -29 c 0
 723 -29 723 -29 698 129 c 1
EndSplineSet
Validated: 524289
EndChar

StartChar: paragraph
Encoding: 182 182 121
Width: 924
GlyphClass: 2
Flags: HW
LayerCount: 3
Fore
SplineSet
476 1493 m 2
 924 1493 l 1
 924 -197 l 1
 783 -197 l 1
 783 1370 l 1
 592 1370 l 1
 592 -197 l 1
 451 -197 l 1
 451 649 l 1
 238 665 238 665 118 776 c 0
 0 887 0 887 0 1074 c 0
 0 1261 0 1261 130 1377 c 0
 263 1493 263 1493 476 1493 c 2
EndSplineSet
Validated: 1
EndChar

StartChar: periodcentered
Encoding: 183 183 122
Width: 252
GlyphClass: 2
Flags: HW
LayerCount: 3
Fore
SplineSet
0 864 m 1
 252 864 l 1
 252 559 l 1
 0 559 l 1
 0 864 l 1
EndSplineSet
Validated: 1
EndChar

StartChar: cedilla
Encoding: 184 184 123
Width: 414
GlyphClass: 2
Flags: HW
LayerCount: 3
Fore
SplineSet
275 -178 m 0
 275 -126 275 -126 187 0 c 1
 305 0 l 1
 414 -121 414 -121 414 -215 c 0
 414 -395 414 -395 176 -395 c 0
 84 -395 84 -395 0 -371 c 1
 0 -240 l 1
 66 -272 66 -272 156 -272 c 0
 275 -272 275 -272 275 -178 c 0
EndSplineSet
Validated: 1
EndChar

StartChar: uni00B9
Encoding: 185 185 124
Width: 571
GlyphClass: 2
Flags: HW
LayerCount: 3
Fore
SplineSet
18 778 m 1
 223 778 l 1
 223 1389 l 1
 0 1348 l 1
 0 1464 l 1
 229 1503 l 1
 367 1503 l 1
 367 778 l 1
 571 778 l 1
 571 668 l 1
 18 668 l 1
 18 778 l 1
EndSplineSet
Validated: 1
EndChar

StartChar: ordmasculine
Encoding: 186 186 125
Width: 744
GlyphClass: 2
Flags: HW
LayerCount: 3
Fore
SplineSet
32 592 m 1
 708 592 l 1
 708 469 l 1
 32 469 l 1
 32 592 l 1
372 1520 m 0
 542 1520 542 1520 644 1408 c 0
 744 1294 744 1294 744 1108 c 0
 744 922 744 922 644 810 c 0
 544 698 544 698 372 698 c 0
 200 698 200 698 100 810 c 0
 0 922 0 922 0 1109 c 0
 0 1296 0 1296 101 1408 c 0
 202 1520 202 1520 372 1520 c 0
532 1326 m 0
 474 1404 474 1404 372 1404 c 0
 270 1404 270 1404 212 1326 c 0
 154 1248 154 1248 154 1108 c 0
 154 968 154 968 213 892 c 0
 272 816 272 816 372 816 c 0
 472 816 472 816 531 894 c 0
 590 972 590 972 590 1110 c 0
 590 1248 590 1248 532 1326 c 0
EndSplineSet
Validated: 1
EndChar

StartChar: guillemotright
Encoding: 187 187 126
Width: 923
GlyphClass: 2
Flags: HW
LayerCount: 3
Fore
SplineSet
0 1059 m 1
 469 641 l 1
 469 559 l 1
 0 141 l 1
 0 332 l 1
 301 600 l 1
 0 868 l 1
 0 1059 l 1
454 1059 m 1
 923 641 l 1
 923 559 l 1
 454 141 l 1
 454 332 l 1
 755 600 l 1
 454 868 l 1
 454 1059 l 1
EndSplineSet
Validated: 1
EndChar

StartChar: onequarter
Encoding: 188 188 127
Width: 1087
GlyphClass: 2
Flags: HW
LayerCount: 3
Fore
SplineSet
24 504 m 1
 0 612 l 1
 1060 874 l 1
 1087 766 l 1
 24 504 l 1
77 934 m 1
 282 934 l 1
 282 1545 l 1
 59 1504 l 1
 59 1620 l 1
 288 1659 l 1
 426 1659 l 1
 426 934 l 1
 630 934 l 1
 630 824 l 1
 77 824 l 1
 77 934 l 1
812 440 m 1
 538 27 l 1
 812 27 l 1
 812 440 l 1
788 565 m 1
 950 565 l 1
 950 27 l 1
 1066 27 l 1
 1066 -84 l 1
 950 -84 l 1
 950 -270 l 1
 812 -270 l 1
 812 -84 l 1
 425 -84 l 1
 425 37 l 1
 788 565 l 1
EndSplineSet
Validated: 1
EndChar

StartChar: onehalf
Encoding: 189 189 128
Width: 1087
GlyphClass: 2
Flags: HW
LayerCount: 3
Fore
SplineSet
502 526 m 1
 629 582 629 582 759 582 c 0
 889 582 889 582 975 515 c 0
 1061 448 1061 448 1061 342 c 0
 1061 284 1061 284 1024 225 c 0
 987 166 987 166 868 49 c 2
 657 -156 l 1
 1067 -156 l 1
 1067 -270 l 1
 496 -270 l 1
 496 -160 l 1
 727 66 l 2
 829 164 829 164 869 226 c 0
 909 288 909 288 909 342 c 0
 909 396 909 396 859 434 c 0
 809 472 809 472 717 473 c 0
 625 473 625 473 502 401 c 1
 502 526 l 1
24 504 m 1
 0 612 l 1
 1060 874 l 1
 1087 766 l 1
 24 504 l 1
77 934 m 1
 282 934 l 1
 282 1545 l 1
 59 1504 l 1
 59 1620 l 1
 288 1659 l 1
 426 1659 l 1
 426 934 l 1
 630 934 l 1
 630 824 l 1
 77 824 l 1
 77 934 l 1
EndSplineSet
Validated: 1
EndChar

StartChar: threequarters
Encoding: 190 190 129
Width: 1087
GlyphClass: 2
Flags: HW
LayerCount: 3
Fore
SplineSet
24 504 m 1
 0 612 l 1
 1060 874 l 1
 1087 766 l 1
 24 504 l 1
649 1459 m 0
 649 1316 649 1316 477 1276 c 1
 570 1255 570 1255 621 1201 c 0
 670 1146 670 1146 670 1067 c 0
 669 944 669 944 576 876 c 0
 484.34765625 808.985351562 484.34765625 808.985351562 313.055664062 808.985351562 c 0,0,0
 310.536132812 808.985351562 310.536132812 808.985351562 308 809 c 0
 305 809 305 809 303 809 c 0
 197 809 197 809 72 850 c 1
 72 971 l 1
 211 918 211 918 305 918 c 0
 399 918 399 918 459 958 c 0
 518 1000 518 1000 518 1067 c 0
 518 1217 518 1217 299 1217 c 2
 233 1217 l 1
 233 1325 l 1
 307 1325 l 2
 498 1325 498 1325 498 1448 c 0
 498 1503 498 1503 450 1536 c 0
 400 1567 400 1567 311 1567 c 0
 222 1567 222 1567 100 1520 c 1
 100 1641 l 1
 241 1676 241 1676 361 1676 c 0
 481 1676 481 1676 565 1617 c 0
 649 1558 649 1558 649 1459 c 0
812 440 m 1
 538 27 l 1
 812 27 l 1
 812 440 l 1
788 565 m 1
 950 565 l 1
 950 27 l 1
 1066 27 l 1
 1066 -84 l 1
 950 -84 l 1
 950 -270 l 1
 812 -270 l 1
 812 -84 l 1
 425 -84 l 1
 425 37 l 1
 788 565 l 1
EndSplineSet
Validated: 524289
EndChar

StartChar: questiondown
Encoding: 191 191 130
Width: 744
GlyphClass: 2
Flags: HW
LayerCount: 3
Fore
SplineSet
225 1117 m 29,0,-1
 253 1146 l 5,1,-1
 253 1117 l 5,2,-1
 225 1146 l 1029,3,-1
565 1457 m 29,0,-1
 593 1486 l 5,1,-1
 593 1457 l 5,2,-1
 565 1486 l 1029,3,-1
621 1429 m 1025
223 1415 m 29,0,-1
 251 1387 l 5,1,-1
 223 1387 l 5,2,-1
 251 1415 l 1029,3,-1
563 1075 m 29,0,-1
 591 1047 l 5,1,-1
 563 1047 l 5,2,-1
 591 1075 l 1029,3,-1
535 1019 m 1025
385 583 m 29,0,-1
 385 623 l 5,1,-1
 405 603 l 5,2,-1
 365 603 l 1029,3,-1
684 -391 m 29,0,-1
 684 -351 l 5,1,-1
 704 -371 l 5,2,-1
 664 -371 l 1029,3,-1
537 1514 m 1
 554 1532 554 1532 579 1532 c 0
 604 1532 604 1532 622 1514 c 0
 640 1496 640 1496 640 1471 c 0
 640 1446 640 1446 621 1429 c 1
 537 1514 l 1
445 602 m 1
 325 602 l 1
 324 627 324 627 342 645 c 0
 360 663 360 663 385 663 c 0
 410 663 410 663 430 643 c 0
 450 623 450 623 445 602 c 1
652 -320 m 1
 670 -309 670 -309 689 -309 c 0
 708 -309 708 -309 726 -327 c 0
 744 -345 744 -345 744 -374 c 0
 744 -403 744 -403 715 -422 c 1
 717 -424 l 1
 517 -541 517 -541 388 -541 c 0
 365 -541 365 -541 345 -537 c 0
 47 -486 47 -486 4 -200 c 0
 0 -175 0 -175 0 -150 c 0
 0 41 0 41 225 227 c 0
 293 284 293 284 319 370 c 0
 325 389 325 389 325 596 c 1
 327 575 327 575 344 559 c 0
 361 543 361 543 385 543 c 0
 409 543 409 543 426 560 c 0
 443 577 443 577 445 599 c 1
 445 372 l 2
 445 279 445 279 300 142 c 1
 129 -3 129 -3 129 -152 c 0
 129 -170 129 -170 131 -188 c 0
 160 -390 160 -390 353 -416 c 0
 367 -418 367 -418 383 -418 c 0
 492 -418 492 -418 650 -318 c 1
 652 -320 l 1
652 -320 m 1
 624 -338 624 -338 624 -366 c 0
 624 -394 624 -394 642 -412 c 0
 660 -430 660 -430 680 -431 c 0
 700 -431 700 -431 715 -422 c 1
 652 -320 l 1
281 1089 m 1
 263 1072 263 1072 238 1072 c 0
 213 1072 213 1072 196 1089 c 0
 179 1106 179 1106 179 1131 c 0
 179 1156 179 1156 196 1173 c 1
 281 1089 l 1
373 1181 m 1
 458 1265 l 1
 373 1350 l 1
 288 1265 l 1
 195 1359 l 1
 214 1341 214 1341 238 1341 c 0
 262 1341 262 1341 280 1359 c 0
 298 1377 298 1377 297 1402 c 0
 297 1425.07692308 297 1425.07692308 281.662721893 1441.33727811 c 1
 373 1350 l 1
 536 1514 l 1
 520 1498 520 1498 520 1472 c 0
 520 1446 520 1446 537 1429 c 0
 554 1412 554 1412 578 1412 c 0
 602 1412 602 1412 621 1429 c 1
 458 1265 l 1
 620 1103 l 2
 638 1086 638 1086 638 1061 c 0
 638 1036 638 1036 620 1018 c 0
 602 1000 602 1000 577 1000 c 0
 552 1000 552 1000 535 1019 c 2
 373 1181 l 1
373 1181 m 1
 288 1265 l 1
 201.231308878 1179.17444683 l 1
 216.053000779 1192 216.053000779 1192 238 1192 c 0
 264 1192 264 1192 282 1174 c 0
 300 1156 300 1156 300 1132 c 0
 300 1108 300 1108 284 1092 c 1
 373 1181 l 1
201.231308878 1179.17444683 m 1
 196 1174 l 1
 198.494154326 1176.80592362 198.494154326 1176.80592362 201.231308878 1179.17444683 c 1
281.662721893 1441.33727811 m 1
 280.384615385 1442.69230769 280.384615385 1442.69230769 279 1444 c 1
 281.662721893 1441.33727811 l 1
279 1444 m 0
 279 1443 279 1443 195 1359 c 1
 178 1377 178 1377 178 1402 c 0
 178 1427 178 1427 195 1444 c 0
 212 1461 212 1461 237 1461 c 0
 262 1461 262 1461 279 1444 c 0
EndSplineSet
Validated: 526347
EndChar

StartChar: Oacute
Encoding: 211 211 131
Width: 731
VWidth: 0
GlyphClass: 2
Flags: HW
LayerCount: 3
Fore
SplineSet
671 800 m 29,0,-1
 671 760 l 5,1,-1
 651 780 l 5,2,-1
 691 780 l 1029,3,-1
242 80 m 29,0,-1
 242 40 l 5,1,-1
 222 60 l 5,2,-1
 262 60 l 1029,3,-1
70 2069 m 29,0,-1
 50 2035 l 5,1,-1
 43 2062 l 5,2,-1
 77 2042 l 1029,3,-1
550 2079 m 29,0,-1
 570 2045 l 5,1,-1
 543 2052 l 5,2,-1
 577 2072 l 1029,3,-1
317 2414 m 29,0,-1
 317 2374 l 5,1,-1
 297 2394 l 5,2,-1
 337 2394 l 1029,3,-1
15 2092 m 1
 265 2428 l 1
 268 2428 l 1
 254 2410 254 2410 254 2391 c 0
 254 2372 254 2372 273 2353 c 0
 292 2334 292 2334 317 2334 c 0
 342 2334 342 2334 361 2353 c 0
 380 2372 380 2372 380 2391 c 0
 380 2410 380 2410 366 2428 c 1
 369 2428 l 1
 605 2101 l 1
 594 2114 594 2114 572 2120 c 0
 550 2126 550 2126 529 2114 c 0
 508 2102 508 2102 502 2078 c 0
 496 2054 496 2054 507 2033 c 1
 317 2303 l 1
 113 2023 l 1
 125 2044 125 2044 118 2068 c 0
 110 2092 110 2092 90 2104 c 0
 70 2116 70 2116 48 2110 c 0
 26 2104 26 2104 15 2092 c 1
399 -44 m 0
 610 -44 610 -44 610 780 c 1
 611 780 l 1
 610 756 610 756 628 738 c 0
 646 720 646 720 671 720 c 0
 696 720 696 720 714 738 c 0
 731 756 731 756 731 780 c 1
 730 -174 730 -174 396 -174 c 0
 182 -174 182 -174 182 48 c 0
 182 54 182 54 182 60 c 1
 182 36 182 36 200 18 c 0
 218 0 218 0 242 0 c 0
 266 0 266 0 284 18 c 0
 301 36 301 36 302 60 c 1
 302 49 l 2
 302 -44 302 -44 399 -44 c 0
612 2092 m 1
 624 2070 624 2070 618 2046 c 0
 612 2022 612 2022 590 2010 c 0
 568 1998 568 1998 544 2004 c 0
 520 2010 520 2010 508 2032 c 1
 612 2092 l 1
112 2022 m 1
 100 2000 100 2000 76 1994 c 0
 52 1988 52 1988 30 2000 c 0
 8 2012 8 2012 2 2036 c 0
 -4 2060 -4 2060 8 2082 c 1
 112 2022 l 1
605 2101 m 1
 608 2098 608 2098 611 2094 c 1
 605 2101 l 1
366 2428 m 1
 268 2428 l 1
 287 2454 287 2454 317 2454 c 0
 347 2454 347 2454 366 2428 c 1
302 60 m 1
 182 60 l 1
 182 84 182 84 200 102 c 0
 218 120 218 120 242 120 c 0
 266 120 266 120 284 102 c 0
 302 84 302 84 302 73 c 2
 302 60 l 1
731 780 m 1
 611 780 l 1
 611 804 611 804 629 822 c 0
 647 840 647 840 671 840 c 0
 695 840 695 840 713 822 c 0
 731 804 731 804 731 793 c 2
 731 780 l 1
8 2082 m 1
 9 2084 l 1
 9 2083 9 2083 8 2082 c 1
EndSplineSet
Validated: 2051
EndChar

